<svg width="61" height="56" viewBox="0 0 61 56" fill="none" xmlns="http://www.w3.org/2000/svg">
<path d="M36.0313 7.77303L39.1531 14.0984C40.1009 16.0185 41.9327 17.3495 44.0517 17.6574L51.0322 18.6717C56.3684 19.447 58.4991 26.0048 54.6378 29.7688L49.5866 34.6925C48.0532 36.1871 47.3535 38.3405 47.7156 40.451L48.9081 47.4032C49.8197 52.718 44.2411 56.7707 39.4684 54.2616L33.225 50.9793C31.3298 49.9828 29.0654 49.9828 27.17 50.9793L20.9265 54.2616C16.1535 56.771 10.5752 52.718 11.4869 47.4032L12.6794 40.451C13.0415 38.3405 12.3417 36.1871 10.8083 34.6925L5.75715 29.7688C1.89556 26.0048 4.02628 19.447 9.36248 18.6717L16.343 17.6574C18.462 17.3495 20.2938 16.0187 21.2415 14.0984L24.3634 7.77303C26.7496 2.93763 33.6448 2.93763 36.0313 7.77303Z" fill="#C3A695"/>
<path d="M54.6363 29.7677L49.5853 34.6918C48.0519 36.1857 47.3529 38.3391 47.7138 40.4503L48.906 47.404C49.7601 52.3818 44.9177 56.2517 40.3797 54.6593C43.1956 53.6784 45.2617 50.7977 44.6782 47.404L43.486 40.4503C43.1251 38.3391 43.8241 36.1857 45.3575 34.6918L50.4085 29.7677C54.27 26.0048 52.1391 19.4459 46.8034 18.6708L39.8216 17.656C37.7021 17.3488 35.8727 16.0185 34.9228 14.0989L31.8027 7.77381C30.9769 6.10219 29.6125 5.00867 28.082 4.49275C30.9769 3.5148 34.4691 4.60832 36.0307 7.77381L39.1506 14.0987C40.1006 16.0183 41.9299 17.3485 44.0494 17.6558L51.0312 18.6705C56.3669 19.4456 58.4978 26.0048 54.6363 29.7677Z" fill="#946E5F"/>
<path d="M32.3116 4.49275C30.7811 5.00867 29.4167 6.1022 28.5909 7.77381L25.4705 14.0987C24.5206 16.0183 22.6912 17.3486 20.5717 17.6558L13.59 18.6705C8.25428 19.4456 6.12331 26.0046 9.9849 29.7674L15.0358 34.6916C16.5692 36.1854 17.2682 38.3388 16.9074 40.4501L15.7151 47.4038C15.1317 50.7975 17.1978 53.6782 20.0136 54.6591C15.4757 56.2517 10.6332 52.3815 11.4873 47.4038L12.6796 40.4501C13.0404 38.3388 12.3414 36.1854 10.808 34.6916L5.7571 29.7674C1.89551 26.0046 4.02648 19.4456 9.36219 18.6705L16.3439 17.6558C18.4637 17.3486 20.2928 16.0183 21.2427 14.0987L24.3629 7.77357C25.9245 4.60832 29.4167 3.5148 32.3116 4.49275Z" fill="#DFC8BA"/>
<path d="M58.8116 9.48053L45.587 22.1001L42.9101 24.7009C42.774 26.1243 42.3583 27.5238 41.6625 28.8112C41.1546 29.7567 40.4929 30.6425 39.6812 31.4302L37.666 33.3874L37.6699 33.3935L32.7738 38.1835L32.7058 38.2515L29.749 41.1445L27.7158 43.1338C26.8861 43.9393 25.4247 44.0934 24.565 43.3176C23.6794 42.5159 23.6172 41.1805 24.3611 40.3028L26.0264 38.7055L24.0112 40.6327C23.1596 41.4604 21.7781 41.5263 20.9265 40.7007C20.0429 39.8449 20.0468 38.4356 20.9226 37.5859L20.2869 38.1816C19.3872 38.9013 18.0538 38.7994 17.2802 37.8917C16.5285 37.01 16.6504 35.6785 17.4801 34.873L19.0734 33.3476C18.2118 34.0374 16.9503 33.9735 16.1647 33.1638C15.3291 32.3041 15.3491 30.9326 16.2086 30.097C16.2266 30.081 16.7884 29.5772 17.642 28.8116C19.7013 26.9684 23.4556 23.6056 25.361 21.8984C26.0808 21.2547 26.5365 20.8468 26.5365 20.8468C27.808 19.7072 28.7696 18.7717 29.6374 18.0381C30.9669 16.9145 32.0843 16.2587 33.7818 16.0448C34.5135 15.9529 35.2513 15.9349 35.9849 15.991L37.9362 14.0958L51.0948 1.54035C51.8865 0.770614 53.1541 0.788657 53.9216 1.58033L55.8749 3.58964L55.9009 3.61548L58.8519 6.65419C59.6214 7.44538 59.6033 8.71079 58.8116 9.48053Z" fill="#FFBB98"/>
<path d="M43.7192 39.469C42.9514 40.4226 41.586 40.5406 40.6724 39.8089L38.3832 37.5838C39.2887 38.4635 39.2629 39.9408 38.2852 40.7847C37.4255 41.5283 36.124 41.4384 35.3084 40.6467L32.7734 38.1836L32.4535 37.8737C32.5535 37.9917 32.6374 38.1197 32.7054 38.2517C33.1611 39.1172 32.9934 40.2288 32.1895 40.9146C31.4997 41.5044 30.5242 41.5564 29.7484 41.1446C29.5565 41.0446 29.3785 40.9166 29.2186 40.7608L21.6356 33.3938L21.6395 33.3877L19.6243 31.4284C18.8127 30.6406 18.1509 29.757 17.6411 28.8115C16.9475 27.5241 16.5315 26.1246 16.3957 24.7012L13.7147 22.0963L1.57838 10.6573C0.786703 9.88952 0.768661 8.6241 1.53839 7.83047L6.4684 2.75833C7.23618 1.96665 8.50354 1.94861 9.29522 2.71639L21.2962 14.0213L23.3213 15.9906C24.055 15.9345 24.7928 15.9525 25.5245 16.0445C26.9659 16.2263 28.3133 16.8542 29.3948 17.8216L29.6367 18.0377L41.6618 28.8113L43.0972 30.0967C43.9569 30.9303 43.9769 32.3037 43.1411 33.1634C42.3555 33.9712 41.094 34.037 40.2323 33.3453L43.4809 36.5042C44.2929 37.292 44.4289 38.5874 43.7192 39.469Z" fill="#FFBB98"/>
<path d="M24.8164 32.4071L24.8227 32.4007L22.5547 30.1971C20.3962 28.1 19.1849 25.4002 18.9208 22.6234L15.9377 19.7305L13.7631 22.0531L13.7148 22.095L16.3951 24.7012C16.6304 27.1689 17.7064 29.5658 19.623 31.4311L21.6397 33.3865L21.6365 33.3928L29.2168 40.7605C30.0287 41.5497 31.3302 41.6497 32.1904 40.9151C32.3901 40.7444 32.5512 40.5447 32.6705 40.3319L24.8164 32.4071Z" fill="#FFCAA6"/>
<path d="M21.2949 14.0213L21.2169 14.0973L15.939 19.729L13.7619 22.0521L13.7139 22.096L1.57712 10.6573C0.770324 9.87708 0.785441 8.59606 1.53713 7.83242V7.83047L6.46713 2.75833C7.23492 1.96665 8.50228 1.94861 9.29396 2.71639L21.2949 14.0213Z" fill="#87828E"/>
<path d="M55.8755 3.58964C43.3126 16.1587 38.1707 21.0112 36.8092 22.1966C35.3658 23.4562 33.1887 23.374 31.8451 22.0067C31.6312 21.7909 31.2853 21.7809 31.0614 21.9867L29.2842 23.62C28.4787 24.3378 27.243 24.2678 26.5254 23.462C26.473 23.403 26.4067 23.3221 26.3279 23.2216C25.762 22.4989 25.853 21.4593 26.5371 20.8471L26.5374 20.8468C27.8089 19.7072 28.7705 18.7717 29.6383 18.0381C30.9678 16.9145 32.0852 16.2587 33.7827 16.0448C34.5144 15.9529 35.2522 15.9349 35.9858 15.991L37.9371 14.0958L51.0957 1.54035C51.8874 0.770614 53.155 0.788656 53.9225 1.58033L55.8755 3.58964Z" fill="#FFAA80"/>
<path d="M15.9389 19.7306L13.7618 22.0537L13.7138 22.0976L1.577 10.6608C0.806778 9.94738 0.750456 8.6332 1.53701 7.83397V7.83201L2.44865 6.89648C2.62444 7.17224 6.13274 10.2024 15.9389 19.7306Z" fill="#A4A4A5"/>
<path d="M58.8083 9.48116L45.5849 22.1019L41.4646 17.7044C41.4548 17.6947 41.4453 17.6817 41.4356 17.6722C39.219 15.3048 39.6425 15.7607 37.9336 14.0964L51.0927 1.53976C51.8851 0.770025 53.1513 0.789043 53.9181 1.5817L55.8735 3.58881L55.8993 3.61465L58.8503 6.65579C59.6202 7.44503 59.601 8.71094 58.8083 9.48116Z" fill="#0F2846"/>
<path d="M55.1845 2.95585C50.7453 7.39505 42.6439 15.1321 40.7465 17.0393C38.5297 14.6716 39.6374 15.7556 37.9336 14.0964L51.0927 1.53976C51.8851 0.770025 53.1513 0.789043 53.9181 1.5817L55.1845 2.95585Z" fill="#5B6B82"/>
<path d="M59.553 5.97596L54.623 0.902107C53.4678 -0.29382 51.576 -0.285287 50.4244 0.836276L39.0503 11.6886L36.9047 7.34134C34.1659 1.78473 26.2284 1.78497 23.4899 7.34134L20.9956 12.3957C20.9907 12.3911 9.97137 2.01197 9.96527 2.00904C8.77812 0.862608 6.89975 0.916493 5.7716 2.07975C5.75649 2.09535 0.802591 7.19261 0.802591 7.19261C-0.226809 8.28979 -0.344817 10.1118 0.912309 11.3668C0.912309 11.3707 7.95109 18.0008 7.95377 18.0035C2.6778 19.7317 1.01935 26.5159 5.07672 30.4675L10.1262 35.3926C11.4306 36.6629 12.0255 38.4915 11.7183 40.286L10.5261 47.2397C9.47739 53.3479 15.8983 58.005 21.3808 55.1248L27.6226 51.843C29.2342 50.997 31.1604 50.9945 32.772 51.843L39.0138 55.1248C44.4963 58.008 50.9177 53.3508 49.8685 47.2397L48.6763 40.286C48.3691 38.4915 48.964 36.6629 50.2684 35.3926L55.3179 30.4675C59.6508 26.2477 57.4306 18.9181 51.5387 17.7719C59.7666 9.91752 59.4945 10.1818 59.4945 10.1818C60.6697 9.03832 60.6965 7.15116 59.553 5.97596ZM31.1731 29.2118C30.7868 28.8366 30.1695 28.8444 29.7938 29.2308C29.4181 29.6168 29.4268 30.2341 29.8128 30.6099C29.8143 30.6113 37.7596 38.3411 37.7608 38.3428C38.1936 38.8214 38.1831 39.5853 37.6511 40.0471C37.1902 40.447 36.4612 40.4031 35.9931 39.9496C32.8342 36.8819 34.8537 38.8702 28.2309 32.2581C27.8496 31.8775 27.232 31.878 26.8516 32.2593C26.471 32.6404 26.4715 33.258 26.8526 33.6386C27.0028 33.7885 31.5719 38.3396 31.7065 38.5037C32.1183 38.9843 32.0718 39.7374 31.5627 40.1739C31.0655 40.5945 30.3346 40.4845 29.8998 40.0617C22.9298 33.2921 24.0653 34.3908 20.3056 30.7284C18.6474 29.127 17.5917 26.9606 17.37 24.611C17.3481 24.3793 17.2432 24.1648 17.0774 24.0039L15.0879 22.0704C20.0296 16.7969 18.6693 18.2481 21.3296 15.4117C21.5735 15.6485 21.3255 15.4073 22.6462 16.6918C22.8462 16.8844 23.1168 16.9819 23.3972 16.9648C24.0726 16.9136 24.748 16.9307 25.4063 17.0136C27.0286 17.2194 27.8891 17.9455 28.1329 18.0674C27.4331 18.7028 26.7492 19.3496 25.8878 20.1216C24.824 21.0734 24.6807 22.6997 25.5613 23.8242C25.655 23.9439 25.7344 24.0402 25.7983 24.1121C26.8728 25.318 28.728 25.4236 29.9454 24.3394L31.4422 22.9635C32.4156 23.7966 33.6634 24.1589 34.8767 24.0414L34.8786 24.0431C35.7907 24.8604 41.4671 29.9477 42.4321 30.8115C42.8929 31.2699 42.8978 32.0184 42.4443 32.4865C42.0232 32.9198 41.3542 32.9688 40.8765 32.6099L34.1801 26.1146C33.7934 25.7394 33.1758 25.7489 32.801 26.1356C32.426 26.5223 32.4353 27.1396 32.822 27.5146C41.4127 35.8471 38.8014 33.3104 42.8027 37.2066C43.2733 37.6601 43.3415 38.3867 42.9612 38.8597C42.5564 39.3644 41.8274 39.4571 41.3178 39.0743C36.4254 34.3247 40.9738 38.7471 31.1731 29.2118ZM25.2229 42.5972C24.775 42.1915 24.6782 41.4781 25.08 40.9685C26.6085 39.5022 26.5052 39.6014 26.5668 39.5424C28.5237 41.4466 28.2607 41.1901 28.286 41.2152L27.0384 42.436C26.5371 42.9232 25.654 42.9858 25.2229 42.5972ZM23.3353 39.9335C22.8396 40.414 22.0645 40.4445 21.6061 40C21.1195 39.529 21.1368 38.7517 21.5949 38.2997L23.4391 36.5047L25.1568 38.1736C24.6368 38.6929 24.9991 38.3413 23.3353 39.9335ZM19.6558 37.4397C19.1499 37.8235 18.4392 37.7477 18.0232 37.2588C17.627 36.7948 17.6848 36.0378 18.1566 35.5796C19.9504 33.8624 20.3375 33.4811 20.3375 33.4811C20.4173 33.5584 22.036 35.1407 22.0401 35.1446C20.1181 37.0152 20.4958 36.6551 19.6558 37.4397ZM18.436 32.6077C17.9418 32.9778 17.2676 32.9005 16.8665 32.4863C16.413 32.0184 16.4189 31.2723 16.8841 30.8054C16.9031 30.7881 17.3966 30.3461 17.4254 30.3202C17.4254 30.3202 17.7448 30.8808 18.9392 32.1194L18.436 32.6077ZM41.942 24.611C41.8567 25.5082 41.6519 26.3762 41.3325 27.2076L36.9681 23.2968L36.9674 23.2961C37.1339 23.1854 37.2973 23.0671 37.4516 22.9323C37.8576 22.5783 37.8993 21.9621 37.5452 21.5562C37.191 21.1502 36.5751 21.1083 36.1691 21.4626C35.1153 22.382 33.5222 22.321 32.5392 21.3209C31.9528 20.7294 31.0141 20.7067 30.4026 21.2692L28.6366 22.8923C28.2333 23.2517 27.6133 23.2166 27.2559 22.8157C27.2137 22.768 27.1603 22.7021 27.0967 22.6209C26.8477 22.303 26.8882 21.8436 27.1893 21.574C28.4647 20.431 29.4237 19.4984 30.2685 18.784C31.6639 17.6049 33.0149 16.7427 35.9119 16.9644C36.1925 16.9861 36.4654 16.8863 36.666 16.6915L37.9385 15.4556C39.34 16.8322 37.9402 15.3634 44.2241 22.068L42.2322 24.0039C42.0664 24.1648 41.964 24.3793 41.942 24.611ZM25.238 8.20446C27.2729 4.08783 33.1204 4.0854 35.1566 8.20446L37.5704 13.1003C37.1312 13.5182 37.5626 13.1018 35.6144 14.9938C32.9166 14.8902 31.2462 15.5641 29.6599 16.7715C28.4923 15.8452 27.1149 15.2603 25.6501 15.0777C25.0088 14.9972 24.3554 14.968 23.6971 14.9948L22.4756 13.805L25.238 8.20446ZM2.23624 8.51898C2.24819 8.5046 7.1582 3.45123 7.17112 3.43781C7.5622 3.03673 8.19125 3.03235 8.59745 3.3988C8.59745 3.3988 19.9092 14.0551 19.9179 14.0634C15.5736 18.6964 17.9859 16.1259 13.6786 20.7196C13.6603 20.7023 2.22332 9.92264 2.24112 9.94044C1.84467 9.54375 1.86661 8.88885 2.23624 8.51898ZM53.9574 29.0704L48.9055 33.9955C47.1427 35.7145 46.3381 38.1892 46.755 40.6176L47.9473 47.5689C48.7236 52.1024 43.9825 55.5347 39.9232 53.3986L33.679 50.1168C31.4993 48.9708 28.8953 48.9708 26.7156 50.1168L20.4714 53.3986C16.4157 55.5327 11.6703 52.1061 12.4473 47.5689L13.6396 40.6176C14.0565 38.1892 13.2519 35.7145 11.4891 33.9955L6.43723 29.0704C3.23955 25.9537 4.77829 20.2917 9.6605 19.6151C13.7874 23.5016 12.4971 22.2698 15.4682 25.1571C15.617 26.3494 15.9437 27.4975 16.4435 28.5801C16.4147 28.6059 15.5565 29.3747 15.5309 29.3996C14.2845 30.6106 14.255 32.5982 15.4668 33.8449C15.7633 34.1501 16.1061 34.3837 16.4735 34.5436C15.5724 35.7283 15.5733 37.3927 16.5401 38.5262C17.2574 39.3678 18.3109 39.7438 19.3264 39.6136C19.4279 40.2948 19.7487 40.917 20.25 41.4027C20.9676 42.0986 21.9628 42.3702 22.9125 42.2224C23.0261 42.8981 23.3614 43.5434 23.9141 44.0435C25.1493 45.1583 27.2083 44.9898 28.4016 43.8329L29.9869 42.2802C30.2307 42.2802 31.5485 42.7467 32.8283 41.6585C33.2258 41.3171 33.5183 40.9027 33.7061 40.4467L34.635 41.3488C35.8224 42.4997 37.7071 42.5777 38.9262 41.5244C39.3115 41.1928 39.6065 40.7734 39.7918 40.3126L39.9966 40.5101C40.9777 41.4893 43.2111 41.6573 44.4804 40.0834C45.4874 38.8326 45.3484 36.9552 44.1634 35.8069L42.8541 34.5341C43.215 34.3756 43.5515 34.144 43.844 33.8441C45.0509 32.6006 45.0217 30.6062 43.7782 29.3993C43.7677 29.3888 42.8797 28.5947 42.8688 28.585C43.3662 27.4975 43.6929 26.3516 43.844 25.1569C46.8172 22.2708 45.5383 23.5004 49.7591 19.471C56.3573 20.4361 56.8768 26.225 53.9574 29.0704ZM45.6285 20.7172C39.7528 14.4491 40.6776 15.4015 39.3429 14.1024C40.186 13.2998 38.384 15.0187 51.7752 2.24067C52.1775 1.84861 52.8258 1.85227 53.2235 2.26017L58.1535 7.33403C58.546 7.73877 58.5387 8.38488 58.1388 8.77743C58.1388 8.77743 47.05 19.3601 45.6285 20.7172Z" fill="#0D223B"/>
<path d="M48.6525 13.1154L48.3624 13.386C47.9698 13.7542 47.9503 14.371 48.3185 14.7636C48.6952 15.1642 49.3128 15.1732 49.6985 14.8075L49.9862 14.5368C50.3788 14.1687 50.3983 13.5518 50.0301 13.1593C49.6619 12.7667 49.0451 12.7472 48.6525 13.1154Z" fill="#DFC8BA"/>
<path d="M54.5201 7.60952L51.3212 10.6134C50.9263 10.9815 50.9068 11.5984 51.2774 11.9909C51.6433 12.3852 52.2697 12.4001 52.6549 12.0348L55.8563 9.03342C56.2488 8.66282 56.2683 8.04596 55.9002 7.65341C55.532 7.26086 54.9127 7.24136 54.5201 7.60952Z" fill="#DFC8BA"/>
</svg>
