<svg width="56" height="56" viewBox="0 0 56 56" fill="none" xmlns="http://www.w3.org/2000/svg">
<path d="M0.914062 0.910156H54.6609V39.4208H0.914062V0.910156Z" fill="#C3A695"/>
<path d="M50.3281 5.24219V35.0904H5.24351V5.24219H50.3281Z" fill="white"/>
<path d="M5.24609 5.24219H8.66539V35.0904H5.24609V5.24219Z" fill="#FBFCFD"/>
<path d="M46.9102 5.24219H50.3295V35.0904H46.9102V5.24219Z" fill="#B1B7BD"/>
<path d="M0.914062 0.910156H4.33336V39.4206H0.914062V0.910156Z" fill="#DFC8BA"/>
<path d="M51.2422 0.910156H54.6615V39.4206H51.2422V0.910156Z" fill="#946E5F"/>
<path d="M36.769 55.0867L27.7888 50.0448L18.8086 55.0867V39.2754H36.769V55.0867Z" fill="#C3A695"/>
<path d="M21.4633 39.2754V53.5963L18.8086 55.0867V39.2754H21.4633Z" fill="#DFC8BA"/>
<path d="M36.7719 39.2754V55.0867L34.1172 53.5963V39.2754H36.7719Z" fill="#946E5F"/>
<path d="M40.402 37.4432C40.402 36.0987 39.4868 34.9713 38.2463 34.6412C39.1556 33.7351 39.3842 32.301 38.7122 31.1366C38.04 29.9725 36.6836 29.4534 35.4443 29.7878C35.7787 28.5487 35.2596 27.1921 34.0955 26.5199C32.9313 25.8477 31.497 26.0765 30.5909 26.9858C30.2608 25.7453 29.1331 24.8301 27.7889 24.8301C26.4444 24.8301 25.317 25.7453 24.9869 26.9858C24.0808 26.0765 22.6467 25.8479 21.4823 26.5199C20.3182 27.1921 19.7991 28.5485 20.1335 29.7878C18.8942 29.4534 17.5378 29.9725 16.8656 31.1366C16.1934 32.3008 16.4222 33.7351 17.3315 34.6412C16.091 34.9713 15.1758 36.099 15.1758 37.4432C15.1758 38.7877 16.091 39.9151 17.3315 40.2452C16.4222 41.1513 16.1936 42.5854 16.8656 43.7498C17.5378 44.9139 18.8942 45.433 20.1335 45.0986C19.7991 46.3379 20.3182 47.6943 21.4823 48.3665C22.6465 49.0387 24.0808 48.8099 24.9869 47.9006C25.317 49.1411 26.4447 50.0563 27.7889 50.0563C29.1334 50.0563 30.2608 49.1411 30.5909 47.9006C31.497 48.8099 32.9311 49.0385 34.0955 48.3665C35.2596 47.6943 35.7787 46.3379 35.4443 45.0986C36.6836 45.433 38.04 44.9139 38.7122 43.7498C39.3844 42.5856 39.1556 41.1513 38.2463 40.2452C39.4868 39.9153 40.402 38.7877 40.402 37.4432Z" fill="white"/>
<path d="M22.2412 29.787C21.0023 29.4526 19.6455 29.9723 18.9726 31.1354C18.3012 32.2997 18.5301 33.734 19.439 34.6399C18.1987 34.97 17.2828 36.0979 17.2828 37.4421C17.2828 38.7864 18.1987 39.9143 19.439 40.2444C18.5301 41.1503 18.3012 42.5845 18.9726 43.7489C19.6455 44.9133 21.0023 45.4317 22.2412 45.0973C21.9068 46.3376 22.4252 47.693 23.5895 48.3659C23.7174 48.4404 23.8494 48.5022 23.9828 48.5542C23.192 48.8633 22.2747 48.8225 21.4826 48.3659C20.3182 47.693 19.7998 46.3376 20.1342 45.0973C18.8953 45.4317 17.5385 44.9133 16.8656 43.7489C16.1943 42.5845 16.4231 41.1503 17.332 40.2444C16.0917 39.9143 15.1758 38.7864 15.1758 37.4421C15.1758 36.0979 16.0917 34.97 17.332 34.6399C16.4231 33.734 16.1943 32.2997 16.8656 31.1354C17.5385 29.9723 18.8953 29.4526 20.1342 29.787C19.7998 28.5481 20.3182 27.1913 21.4826 26.5198C22.2747 26.0618 23.192 26.0212 23.9828 26.3301C23.8494 26.3821 23.7172 26.4452 23.5895 26.5198C22.4254 27.1913 21.907 28.5481 22.2412 29.787Z" fill="#E1E4E7"/>
<path d="M27.7896 24.8301C28.1618 24.8301 28.5172 24.9003 28.843 25.0282C27.9888 25.361 27.333 26.0886 27.0941 26.9849C26.6222 26.5115 26.007 26.2222 25.3594 26.1492C25.8764 25.3555 26.7713 24.8301 27.7896 24.8301Z" fill="#FFEFEE"/>
<path d="M30.218 26.1492C29.5703 26.2222 28.9551 26.5117 28.4832 26.9849C28.2443 26.0888 27.5885 25.3612 26.7344 25.0282C27.0603 24.9003 27.4157 24.8301 27.7877 24.8301C28.8062 24.8303 29.7012 25.3557 30.218 26.1492Z" fill="#FBFCFD"/>
<path d="M38.2445 40.2445C39.1534 41.1504 39.3822 42.5846 38.7109 43.749C38.038 44.9134 36.6812 45.4318 35.4423 45.0974C35.7767 46.3377 35.2583 47.6931 34.0939 48.366C33.3018 48.8226 32.3845 48.8632 31.5938 48.5543C31.7271 48.5023 31.8593 48.4405 31.987 48.366C33.1514 47.6931 33.6697 46.3377 33.3353 45.0974C34.5742 45.4318 35.931 44.9134 36.6039 43.749C37.2753 42.5846 37.0464 41.1504 36.1375 40.2445C37.3778 39.9144 38.2938 38.7865 38.2938 37.4422C38.2938 36.098 37.3778 34.9701 36.1375 34.64C37.0464 33.7341 37.2753 32.2998 36.6039 31.1355C35.931 29.9724 34.5742 29.4527 33.3353 29.7871C33.6697 28.5482 33.1514 27.1914 31.987 26.5199C31.8591 26.4453 31.7271 26.3822 31.5938 26.3302C32.3845 26.0211 33.3018 26.0619 34.0939 26.5199C35.2583 27.1912 35.7767 28.5482 35.4423 29.7871C36.6812 29.4527 38.038 29.9724 38.7109 31.1355C39.3822 32.2998 39.1534 33.7341 38.2445 34.64C39.4848 34.9701 40.4007 36.098 40.4007 37.4422C40.4007 38.7865 39.485 39.9144 38.2445 40.2445Z" fill="#B1B7BD"/>
<path d="M32.1485 29.2468C30.8674 28.5627 29.4078 28.1722 27.8566 28.1615C27.834 28.1602 27.8103 28.1602 27.7878 28.1602C27.7652 28.1602 27.7415 28.1602 27.7189 28.1615C26.1679 28.172 24.7081 28.5625 23.427 29.2468C20.4983 30.8072 18.5039 33.8932 18.5039 37.444C18.5039 42.5709 22.6606 46.7276 27.7875 46.7276C32.9144 46.7276 37.0712 42.5709 37.0712 37.444C37.0716 33.8932 35.0773 30.8069 32.1485 29.2468Z" fill="#5B6B82"/>
<path d="M28.78 46.6748C28.4545 46.7105 28.1224 46.7276 27.7875 46.7276C22.6606 46.7276 18.5039 42.5709 18.5039 37.444C18.5039 33.8934 20.4983 30.8072 23.427 29.2468C24.7081 28.5627 26.1677 28.1722 27.7189 28.1615C27.7415 28.1602 27.7652 28.1602 27.7878 28.1602C27.8103 28.1602 27.834 28.1602 27.8566 28.1615C28.1689 28.1643 28.476 28.1814 28.7803 28.2133C27.5733 28.3416 26.4351 28.7002 25.4123 29.2468C22.4835 30.8072 20.4892 33.8934 20.4892 37.444C20.4889 42.236 24.1191 46.1796 28.78 46.6748Z" fill="#9FADC1"/>
<path d="M37.073 37.444C37.073 42.5709 32.9163 46.7276 27.7894 46.7276C27.4545 46.7276 27.1224 46.7105 26.7969 46.6748C31.4578 46.1799 35.088 42.236 35.088 37.444C35.088 33.8934 33.0936 30.8072 30.1649 29.2468C29.1418 28.7002 28.0037 28.3416 26.7969 28.2133C27.1012 28.1816 27.4082 28.1643 27.7205 28.1615C27.7431 28.1602 27.7668 28.1602 27.7894 28.1602C27.812 28.1602 27.8357 28.1602 27.8582 28.1615C29.4092 28.172 30.869 28.5625 32.1501 29.2468C35.0786 30.8072 37.073 33.8934 37.073 37.444Z" fill="#323F51"/>
<path d="M54.6587 0H0.911813C0.408036 0 0 0.408036 0 0.911813V39.4223C0 39.926 0.408036 40.3341 0.911813 40.3341H15.5897C15.706 40.4344 15.8291 40.5278 15.9567 40.6144C14.9847 42.5867 15.8763 44.9649 17.8921 45.8095V55.0872C17.8921 55.7793 18.6388 56.2233 19.2507 55.8828L27.7852 51.0912L36.3198 55.8828C36.9107 56.2174 37.6761 55.7996 37.6761 55.0872V45.8095C39.6865 44.97 40.5903 42.5956 39.6137 40.6144C39.7414 40.5278 39.8645 40.4344 39.9807 40.3341H54.6587C55.1624 40.3341 55.5705 39.926 55.5705 39.4223V0.911813C55.5705 0.408036 55.1624 0 54.6587 0ZM17.5615 35.5243C17.6436 35.5037 17.7188 35.4695 17.7895 35.4308C17.5221 36.7356 17.5219 38.1585 17.7895 39.4587C17.7188 39.42 17.6436 39.3858 17.5615 39.3653C15.6235 38.8562 15.5788 36.0574 17.5615 35.5243ZM38.0089 39.3653C37.9269 39.3858 37.8517 39.42 37.781 39.4587C38.0557 38.1241 38.0409 36.6994 37.781 35.4308C37.8517 35.4695 37.9269 35.5037 38.0089 35.5243C39.9967 36.0588 39.939 38.8583 38.0089 39.3653ZM34.56 45.3376C35.0902 47.2985 32.6698 48.6972 31.2319 47.2593C31.1726 47.1977 31.1065 47.1476 31.0358 47.1088C32.3375 46.6689 33.5205 45.9759 34.5281 45.0846C34.5281 45.169 34.5372 45.2533 34.56 45.3376ZM29.7069 47.6673C29.1849 49.6266 26.3767 49.5931 25.8636 47.6673C25.8431 47.5853 25.8112 47.51 25.7678 47.4394C27.0861 47.7068 28.4821 47.7072 29.8026 47.4394C29.7593 47.51 29.7274 47.5853 29.7069 47.6673ZM21.0105 45.3376C21.0333 45.2533 21.0424 45.169 21.0424 45.0846C22.0499 45.9759 23.233 46.6689 24.5346 47.1088C24.4617 47.1476 24.3956 47.2 24.3363 47.2593C22.9091 48.6968 20.4793 47.3021 21.0105 45.3376ZM27.7852 45.8163C23.2688 45.8163 19.4125 42.1641 19.4125 37.4436C19.4125 32.8861 23.0757 29.1119 27.7237 29.0732C32.5784 29.0732 36.158 32.9655 36.158 37.4436C36.158 42.0702 32.3956 45.8163 27.7852 45.8163ZM17.9718 33.997C16.536 32.5661 17.9237 30.143 19.8935 30.6688C19.9733 30.6916 20.0553 30.7008 20.1351 30.7008C19.2415 31.7152 18.5554 32.8959 18.1246 34.1793C18.1243 34.1793 18.0165 34.0416 17.9718 33.997ZM21.0105 29.5519C20.4796 27.5878 22.9089 26.1923 24.3363 27.6302C24.3978 27.6918 24.464 27.7419 24.5369 27.7807C23.2884 28.1933 22.0789 28.8796 21.0424 29.7958C21.0424 29.7137 21.031 29.6317 21.0105 29.5519ZM37.5986 33.997C37.5539 34.0416 37.4461 34.1793 37.4459 34.1793C37.0128 32.8959 36.3289 31.7129 35.4331 30.7008C35.5151 30.7008 35.5972 30.6916 35.677 30.6688C37.6344 30.1395 39.042 32.5588 37.5986 33.997ZM34.56 29.5519C34.5395 29.6317 34.5281 29.7137 34.5281 29.7958C33.5217 28.9104 32.329 28.2136 31.0358 27.7807C31.1065 27.7396 31.1726 27.6895 31.2319 27.6302C32.6687 26.1934 35.0907 27.589 34.56 29.5519ZM25.7656 27.4524C25.8089 27.3818 25.8431 27.3043 25.8636 27.2222C26.3881 25.2577 29.1819 25.2565 29.7069 27.2222C29.7274 27.3043 29.7616 27.3818 29.8049 27.4524C28.4869 27.1812 27.0863 27.1807 25.7656 27.4524ZM39.657 34.1793C40.7761 31.7496 39.1088 28.9617 36.4452 28.7859C36.2662 26.0703 33.3933 24.4177 30.9538 25.6151C29.4418 23.357 26.1296 23.3556 24.6167 25.6151C22.1737 24.4161 19.304 26.0742 19.1253 28.7859C16.4553 28.9619 14.7967 31.7548 15.9134 34.1793H6.15474V6.15474H49.4157V34.1793H39.657ZM17.9718 40.8926C18.0311 40.8333 18.0813 40.7672 18.1223 40.6942C18.5616 42.0066 19.2833 43.2209 20.1465 44.1888C20.0622 44.1865 19.9778 44.1979 19.8935 44.2207C17.9335 44.7488 16.5323 42.3305 17.9718 40.8926ZM19.7157 53.5303V47.9021C20.7508 49.5434 22.8669 50.1333 24.6167 49.2744C24.872 49.6551 25.1911 49.9856 25.5604 50.25L19.7157 53.5303ZM35.8525 53.5303L30.0101 50.25C30.3793 49.9856 30.6985 49.6551 30.9538 49.2744C32.6915 50.1274 34.8085 49.5548 35.8525 47.9067V53.5303ZM35.677 44.2207C35.5926 44.1979 35.5083 44.1865 35.424 44.1888C36.25 43.2751 36.9936 42.0467 37.4482 40.6942C37.4892 40.7672 37.5394 40.8333 37.5986 40.8926C39.045 42.3375 37.6287 44.7466 35.677 44.2207ZM53.7468 38.5104H41.1547C41.3909 37.7286 41.3646 36.83 41.027 36.003H50.3275C50.8313 36.003 51.2394 35.5949 51.2394 35.0911V5.24293C51.2394 4.73915 50.8313 4.33111 50.3275 4.33111H5.24293C4.73915 4.33111 4.33111 4.73915 4.33111 5.24293V35.0911C4.33111 35.5949 4.73915 36.003 5.24293 36.003H14.5434C14.2061 36.8293 14.1794 37.7279 14.4158 38.5104H1.82363V1.82363H53.7468V38.5104Z" fill="#0D223B"/>
<path d="M33.0606 36.0027C33.3432 35.7838 33.4823 35.41 33.382 35.043C32.9895 33.6107 32.2605 32.388 31.5538 31.6442C31.1982 31.2909 30.626 31.2909 30.2704 31.6419C29.9125 31.9952 29.9103 32.572 30.2613 32.9298C30.4893 33.1573 31.2406 34.1182 31.6222 35.5217C31.8014 36.1709 32.5762 36.3902 33.0606 36.0027Z" fill="#909DAE"/>
<path d="M32.8233 37.7725C32.4143 37.7107 31.9459 37.9086 31.7884 38.5384L31.7656 38.6774C31.6858 39.1744 32.0232 39.6417 32.5201 39.7215C32.9808 39.8054 33.4814 39.491 33.5664 38.9669L33.5915 38.8074C33.6697 38.3045 33.317 37.8443 32.8233 37.7725Z" fill="#909DAE"/>
<path d="M43.4363 15.6738H12.1306C11.627 15.6738 11.2188 16.0821 11.2188 16.5856C11.2188 17.0892 11.627 17.4975 12.1306 17.4975H43.4361C43.9396 17.4975 44.3479 17.0892 44.3479 16.5856C44.3479 16.0821 43.9399 15.6738 43.4363 15.6738Z" fill="#0D223B"/>
<path d="M16.7282 12.2924H38.8392C39.3428 12.2924 39.7511 11.8841 39.7511 11.3806C39.7511 10.877 39.3428 10.4688 38.8392 10.4688H16.7282C16.2247 10.4688 15.8164 10.877 15.8164 11.3806C15.8164 11.8841 16.2247 12.2924 16.7282 12.2924Z" fill="#0D223B"/>
<path d="M43.4363 20.8789H12.1306C11.627 20.8789 11.2188 21.2872 11.2188 21.7907C11.2188 22.2943 11.627 22.7025 12.1306 22.7025H43.4361C43.9396 22.7025 44.3479 22.2943 44.3479 21.7907C44.3479 21.2872 43.9399 20.8789 43.4363 20.8789Z" fill="#0D223B"/>
</svg>
