<svg width="57" height="56" viewBox="0 0 57 56" fill="none" xmlns="http://www.w3.org/2000/svg">
<path d="M12.6339 40.9124C15.8253 40.9124 18.4124 38.3253 18.4124 35.1339C18.4124 31.9426 15.8253 29.3555 12.6339 29.3555C9.44257 29.3555 6.85547 31.9426 6.85547 35.1339C6.85547 38.3253 9.44257 40.9124 12.6339 40.9124Z" fill="#FFBB98"/>
<path d="M19.3425 50.5534H5.91797V47.6243C5.91797 43.9171 8.92322 40.9121 12.6301 40.9121C16.3373 40.9121 19.3423 43.9174 19.3423 47.6243V50.5534H19.3425Z" fill="#5B6B82"/>
<path d="M13.6374 40.8247C13.3121 40.8823 12.9762 40.9117 12.6337 40.9117C9.44358 40.9117 6.85547 38.3252 6.85547 35.1337C6.85547 31.9422 9.44335 29.3555 12.6337 29.3555C12.9762 29.3555 13.3121 29.3849 13.6374 29.4425C10.9248 29.9176 8.86281 32.2848 8.86281 35.1337C8.86303 37.9824 10.9251 40.3498 13.6374 40.8247Z" fill="#FFCAA6"/>
<path d="M13.6338 40.9869C10.4036 41.4714 7.92531 44.2588 7.92531 47.6243V50.5536H5.91797V47.6243C5.91797 43.9176 8.92344 40.9121 12.6301 40.9121C12.9716 40.9121 13.3074 40.9376 13.6338 40.9869Z" fill="#9CA5B3"/>
<path d="M18.4069 35.1339C18.4069 38.3254 15.8204 40.9119 12.6287 40.9119C12.2861 40.9119 11.9503 40.8825 11.625 40.8249C14.3389 40.35 16.3996 37.9826 16.3996 35.1337C16.3996 32.2848 14.3389 29.9176 11.625 29.4425C11.9503 29.3849 12.2861 29.3555 12.6287 29.3555C15.8204 29.3559 18.4069 31.9425 18.4069 35.1339Z" fill="#FFAA80"/>
<path d="M19.3408 47.6243V50.5536H17.3335V47.6243C17.3335 45.7708 16.5827 44.0929 15.3678 42.8778C14.3776 41.8874 13.0781 41.2037 11.625 40.9869C11.9529 40.9376 12.2875 40.9121 12.6287 40.9121C14.4835 40.9121 16.1613 41.6643 17.3751 42.8778C18.59 44.0929 19.3408 45.771 19.3408 47.6243Z" fill="#0F2846"/>
<path d="M43.6574 40.9124C46.8487 40.9124 49.4358 38.3253 49.4358 35.1339C49.4358 31.9426 46.8487 29.3555 43.6574 29.3555C40.466 29.3555 37.8789 31.9426 37.8789 35.1339C37.8789 38.3253 40.466 40.9124 43.6574 40.9124Z" fill="#FFBB98"/>
<path d="M50.3659 50.5534H36.9414V47.6243C36.9414 43.9171 39.9467 40.9121 43.6536 40.9121C47.3607 40.9121 50.3657 43.9174 50.3657 47.6243V50.5534H50.3659Z" fill="#DFC9BD"/>
<path d="M44.6608 40.8247C44.3356 40.8823 43.9997 40.9117 43.6571 40.9117C40.467 40.9117 37.8789 38.3252 37.8789 35.1337C37.8789 31.9422 40.4668 29.3555 43.6571 29.3555C43.9997 29.3555 44.3356 29.3849 44.6608 29.4425C41.9483 29.9176 39.8862 32.2848 39.8862 35.1337C39.8862 37.9824 41.9483 40.3498 44.6608 40.8247Z" fill="#FFCAA6"/>
<path d="M44.6572 40.9869C41.4268 41.4714 38.9487 44.2588 38.9487 47.6243V50.5536H36.9414V47.6243C36.9414 43.9176 39.9469 40.9121 43.6536 40.9121C43.9948 40.9121 44.3307 40.9376 44.6572 40.9869Z" fill="#F0E3DB"/>
<path d="M49.4303 35.1339C49.4303 38.3254 46.8438 40.9119 43.6521 40.9119C43.3096 40.9119 42.9737 40.8825 42.6484 40.8249C45.3623 40.35 47.423 37.9826 47.423 35.1337C47.423 32.2848 45.3623 29.9176 42.6484 29.4425C42.9737 29.3849 43.3096 29.3555 43.6521 29.3555C46.8436 29.3559 49.4303 31.9425 49.4303 35.1339Z" fill="#FFAA80"/>
<path d="M50.3643 47.6243V50.5536H48.3569V47.6243C48.3569 45.7708 47.6061 44.0929 46.3912 42.8778C45.4011 41.8874 44.1016 41.2037 42.6484 40.9869C42.9764 40.9376 43.3109 40.9121 43.6521 40.9121C45.5069 40.9121 47.1848 41.6643 48.3986 42.8778C49.6137 44.0929 50.3643 45.771 50.3643 47.6243Z" fill="#C3A695"/>
<path d="M3.16797 46.9355H53.1189V51.0251H3.16797V46.9355Z" fill="#C3A695"/>
<path d="M48.9492 46.9355H53.1233V51.0244H48.9492V46.9355Z" fill="#A57F6A"/>
<path d="M3.16797 46.9355H7.46052V51.0242H3.16797V46.9355Z" fill="#DDC6B8"/>
<path d="M5.38281 51.0254H50.9055V55.1149H5.38281V51.0254Z" fill="#C3A695"/>
<path d="M46.7344 51.0254H50.9085V55.1142H46.7344V51.0254Z" fill="#A57F6A"/>
<path d="M5.38281 51.0254H9.67536V55.114H5.38281V51.0254Z" fill="#DDC6B8"/>
<path d="M33.4821 0.884766C40.2399 0.884766 45.7179 6.36299 45.7179 13.1205C45.7179 15.044 45.2735 16.8633 44.4828 18.4825C45.0691 20.8547 46.236 23.9346 48.507 25.6169C48.9476 25.9433 48.7652 26.639 48.2194 26.6934C45.8844 26.9272 41.6155 26.9137 37.9874 24.4999C36.593 25.0525 35.0729 25.3563 33.4819 25.3563C26.7241 25.3563 21.2461 19.8781 21.2461 13.1205C21.2461 6.36299 26.7245 0.884766 33.4821 0.884766Z" fill="white"/>
<path d="M23.8537 13.1221C23.8537 19.4397 28.6413 24.6376 34.7851 25.2876C34.3573 25.3346 33.9212 25.3572 33.4812 25.3572C26.7239 25.3572 21.2461 19.8794 21.2461 13.1221C21.2461 6.36472 26.7237 0.886719 33.481 0.886719C33.9207 0.886719 34.3553 0.909303 34.7849 0.956243C28.6413 1.60654 23.8537 6.80445 23.8537 13.1221Z" fill="#FFEFEE"/>
<path d="M42.8764 13.1205C42.8764 15.0448 42.4309 16.8649 41.6402 18.4838C42.2278 20.8556 43.3938 23.9344 45.6651 25.618C46.1048 25.9442 45.9228 26.6398 45.377 26.6948C45.2233 26.71 45.0624 26.7251 44.8937 26.7364C46.1867 26.8349 47.3412 26.7818 48.2208 26.6948C48.7668 26.6398 48.9488 25.9439 48.5089 25.618C46.2376 23.9344 45.0717 20.8556 44.484 18.4838C45.2747 16.8649 45.7202 15.0448 45.7202 13.1205C45.7202 6.36365 40.2411 0.884766 33.4844 0.884766C33.0028 0.884766 32.529 0.913107 32.0625 0.968239C38.1498 1.67145 42.8764 6.84545 42.8764 13.1205Z" fill="#B1B7BD"/>
<path d="M22.7638 0.884766C16.006 0.884766 10.528 6.36299 10.528 13.1205C10.528 15.044 10.9724 16.8633 11.7631 18.4825C11.1768 20.8547 10.0099 23.9346 7.73886 25.6169C7.29825 25.9433 7.48069 26.639 8.02648 26.6934C10.3617 26.9272 14.6304 26.9137 18.2585 24.4999C19.6529 25.0525 21.1729 25.3563 22.764 25.3563C29.5218 25.3563 34.9998 19.8781 34.9998 13.1205C34.9998 6.36299 29.5213 0.884766 22.7638 0.884766Z" fill="#C3A695"/>
<path d="M32.3885 13.1221C32.3885 19.4397 27.6008 24.6376 21.457 25.2876C21.8848 25.3346 22.321 25.3572 22.7609 25.3572C29.5183 25.3572 34.996 19.8794 34.996 13.1221C34.996 6.36472 29.5185 0.886719 22.7612 0.886719C22.3214 0.886719 21.8868 0.909303 21.4573 0.956243C27.6008 1.60654 32.3885 6.80445 32.3885 13.1221Z" fill="#A57F6A"/>
<path d="M13.371 13.1205C13.371 15.0448 13.8165 16.8649 14.6072 18.4838C14.0196 20.8556 12.8536 23.9344 10.5823 25.618C10.1424 25.9442 10.3246 26.6398 10.8704 26.6948C11.024 26.71 11.185 26.7251 11.3537 26.7364C10.0607 26.8349 8.90622 26.7818 8.02654 26.6948C7.48054 26.6398 7.29853 25.9439 7.73848 25.618C10.0097 23.9344 11.1757 20.8556 11.7633 18.4838C10.9727 16.8649 10.5272 15.0448 10.5272 13.1205C10.5272 6.36365 16.0063 0.884766 22.763 0.884766C23.2445 0.884766 23.7184 0.913107 24.1849 0.968239C18.0976 1.67145 13.371 6.84545 13.371 13.1205Z" fill="#DDC6B8"/>
<path d="M55.3845 46.049C53.8966 46.049 52.8176 46.049 51.0802 46.049C50.5997 43.7729 49.0985 41.8709 47.077 40.8458C49.0144 39.6789 50.3119 37.5556 50.3119 35.1333C50.3119 31.4601 47.3228 28.4688 43.6473 28.4688C39.9741 28.4688 36.985 31.4601 36.985 35.1333C36.985 37.5534 38.2825 39.6767 40.2176 40.8458C38.1983 41.8709 36.6971 43.7729 36.2167 46.049H20.0535C19.573 43.7729 18.0718 41.8709 16.0525 40.8458C17.9899 39.6767 19.2874 37.5534 19.2874 35.1333C19.2874 31.4601 16.2961 28.4688 12.6228 28.4688C8.94733 28.4688 5.95825 31.4601 5.95825 35.1333C5.95825 37.5556 7.25573 39.6789 9.1931 40.8458C7.17381 41.8709 5.67041 43.7729 5.18994 46.049C3.68942 46.049 2.48692 46.049 0.885655 46.049C0.396331 46.049 0 46.4453 0 46.9347C0 47.424 0.396331 47.8203 0.885655 47.8203H2.27392V51.0242C2.27392 51.5135 2.67025 51.9098 3.15958 51.9098H4.48806V55.1137C4.48806 55.603 4.88439 55.9994 5.37371 55.9994H50.8964C51.3857 55.9994 51.7821 55.603 51.7821 55.1137V51.9098H53.1105C53.5999 51.9098 53.9962 51.5135 53.9962 51.0242V47.8203H55.3845C55.8738 47.8203 56.2701 47.424 56.2701 46.9347C56.2701 46.4453 55.8738 46.049 55.3845 46.049ZM38.7563 35.1333C38.7563 32.4365 40.9505 30.2401 43.6473 30.2401C46.3464 30.2401 48.5406 32.4365 48.5406 35.1333C48.5406 37.8323 46.3464 40.0266 43.6473 40.0266C40.9505 40.0266 38.7563 37.8323 38.7563 35.1333ZM43.6473 41.7979C46.3131 41.7979 48.5693 43.598 49.2579 46.049H38.0389C38.7275 43.598 40.9815 41.7979 43.6473 41.7979ZM7.72956 35.1333C7.72956 32.4365 9.92377 30.2401 12.6228 30.2401C15.3196 30.2401 17.5161 32.4365 17.5161 35.1333C17.5161 37.8323 15.3196 40.0266 12.6228 40.0266C9.92377 40.0266 7.72956 37.8323 7.72956 35.1333ZM12.6228 41.7979C15.2886 41.7979 17.5426 43.598 18.2312 46.049H7.01218C7.70077 43.598 9.95698 41.7979 12.6228 41.7979ZM50.0108 54.228H6.25937V51.9098H50.0108V54.228ZM52.2249 50.1385C49.5174 50.1385 6.51865 50.1385 4.04523 50.1385V47.8203H52.2249V50.1385Z" fill="#0D223B"/>
<path d="M7.94975 27.5749C11.4809 27.9407 15.3189 27.3661 18.3739 25.4869C19.7821 25.9896 21.2612 26.2442 22.7756 26.2442C24.6842 26.2442 26.4976 25.8346 28.1338 25.0973C31.239 26.4964 34.7639 26.604 37.8938 25.4869C40.9442 27.3632 44.7797 27.9413 48.3179 27.5749C49.6666 27.4436 50.1366 25.7141 49.0442 24.9068C47.0647 23.4389 45.9931 20.7133 45.4307 18.5744C46.2167 16.8585 46.6153 15.0274 46.6153 13.121C46.6153 5.88739 40.7279 0 33.4921 0C31.5835 0 29.7701 0.409616 28.1338 1.14692C26.4976 0.409616 24.6842 0 22.7756 0C15.5398 0 9.65243 5.88739 9.65243 13.121C9.65243 15.0274 10.051 16.8585 10.837 18.5744C10.2746 20.7133 9.20296 23.4389 7.22352 24.9068C6.12907 25.7154 6.60334 27.4436 7.94975 27.5749ZM33.4921 1.77131C39.7514 1.77131 44.844 6.86383 44.844 13.121C44.844 14.8657 44.4587 16.5396 43.697 18.0939C43.6062 18.2821 43.5841 18.4947 43.6328 18.6962C44.1952 20.9657 45.3001 23.9658 47.4279 25.87C45.1783 26.0073 41.567 25.8124 38.4894 23.7644C38.2383 23.5956 37.9239 23.5764 37.6724 23.678C35.2155 24.6509 32.5495 24.7102 30.1487 23.9703C33.6161 21.6056 35.8966 17.6245 35.8966 13.121C35.8966 8.61743 33.6161 4.63641 30.1487 2.27392C31.2049 1.94844 32.3296 1.77131 33.4921 1.77131ZM12.6349 18.6962C12.6836 18.4947 12.6614 18.2821 12.5707 18.0939C11.809 16.5396 11.4237 14.8657 11.4237 13.121C11.4237 6.86383 16.5163 1.77131 22.7756 1.77131C29.0321 1.77131 34.1253 6.86538 34.1253 13.121C34.1253 19.3792 29.0319 24.4729 22.7756 24.4729C21.332 24.4729 19.926 24.205 18.5953 23.678C18.3252 23.5717 18.0197 23.6027 17.7783 23.7644C14.7007 25.8124 11.0894 26.0073 8.83984 25.87C10.9676 23.9658 12.0725 20.9657 12.6349 18.6962Z" fill="#0D223B"/>
<path d="M18.9919 16.9256C19.2706 17.3312 19.8266 17.422 20.2207 17.1537C22.0485 15.904 21.2866 16.4239 28.971 11.1711C29.3762 10.8965 29.478 10.3452 29.2035 9.93999C28.9267 9.53702 28.3754 9.43296 27.9724 9.70972C27.2911 10.1754 20.3589 14.9125 19.9484 15.1941L17.794 12.0766C17.515 11.6759 16.9637 11.574 16.563 11.853C16.16 12.1298 16.0581 12.6811 16.3371 13.0841L18.9919 16.9256Z" fill="white"/>
<path d="M41.8281 16.2147C41.3742 16.0287 40.8583 16.2479 40.6745 16.7018C40.6081 16.8634 40.535 17.0273 40.4597 17.1867C40.2516 17.6273 40.4398 18.1565 40.8826 18.3646C41.337 18.5794 41.8555 18.3764 42.0628 17.9439C42.1513 17.7557 42.2355 17.5609 42.3152 17.3683C42.499 16.9144 42.2798 16.3985 41.8281 16.2147Z" fill="#0D223B"/>
<path d="M41.3472 13.757C41.3162 14.2441 41.6882 14.6648 42.1753 14.6958C42.751 14.6958 43.0878 14.297 43.1141 13.8655C43.2935 11.149 42.3547 8.21813 41.2321 6.54999C40.9576 6.14702 40.4085 6.04074 40.0033 6.31308C39.5981 6.58542 39.4918 7.13674 39.7641 7.54193C40.7601 9.10644 41.475 11.4561 41.3472 13.757Z" fill="#0D223B"/>
</svg>
