<svg width="56" height="56" viewBox="0 0 56 56" fill="none" xmlns="http://www.w3.org/2000/svg">
<path d="M0.898438 53.7229V8.69452H9.72828V0.892578H36.5301C37.1569 0.892578 37.6615 1.3919 37.6615 2.00714V53.7229C37.6615 54.3381 37.1569 54.8374 36.5301 54.8374H2.02989C1.40306 54.8374 0.898438 54.3381 0.898438 53.7229Z" fill="#FBFCFD"/>
<path d="M33.1367 0.892578H36.5311C37.1579 0.892578 37.6625 1.3919 37.6625 2.00714V53.7229C37.6625 54.3381 37.1579 54.8374 36.5311 54.8374H33.1367C33.7635 54.8374 34.2682 54.3381 34.2682 53.7229V2.00714C34.2682 1.3919 33.7638 0.892578 33.1367 0.892578Z" fill="#E3E4E5"/>
<path d="M0.898438 53.7237V8.69531H4.29279V53.7237C4.29279 54.3389 4.79742 54.8382 5.42424 54.8382H2.02989C1.40284 54.8382 0.898438 54.3389 0.898438 53.7237Z" fill="#E3E4E5"/>
<path d="M0.898438 8.69452L9.72827 0.892578V8.69452H0.898438Z" fill="#E3E4E5"/>
<path d="M27.621 32.9986H10.9474C9.15568 32.9986 7.70312 31.5678 7.70312 29.8027V17.7857C7.70312 16.0207 9.15568 14.5898 10.9474 14.5898H27.621C29.4127 14.5898 30.8653 16.0207 30.8653 17.7857V29.8027C30.8655 31.5678 29.413 32.9986 27.621 32.9986Z" fill="#5B6B82"/>
<path d="M30.8655 22.0683H7.70312V17.7857C7.70312 16.0207 9.15568 14.5898 10.9474 14.5898H27.621C29.4127 14.5898 30.8653 16.0207 30.8653 17.7857V22.0683H30.8655Z" fill="#5B6B82"/>
<path d="M13.165 24.8808C12.4483 24.8808 11.8672 24.3084 11.8672 23.6024V20.5343C11.8672 19.8283 12.4483 19.2559 13.165 19.2559C13.8816 19.2559 14.4627 19.8283 14.4627 20.5343V23.6024C14.4627 24.3086 13.8816 24.8808 13.165 24.8808Z" fill="#F9D335"/>
<path d="M25.4071 24.8808C24.6905 24.8808 24.1094 24.3084 24.1094 23.6024V20.5343C24.1094 19.8283 24.6905 19.2559 25.4071 19.2559C26.1238 19.2559 26.7049 19.8283 26.7049 20.5343V23.6024C26.7049 24.3086 26.124 24.8808 25.4071 24.8808Z" fill="#F9D335"/>
<path d="M30.8644 17.786V29.8027C30.8644 31.5673 29.411 32.9989 27.6199 32.9989H24.6211C26.4124 32.9989 27.8656 31.5671 27.8656 29.8027V17.786C27.8656 16.0214 26.4122 14.5898 24.6211 14.5898H27.6199C29.411 14.5898 30.8644 16.0216 30.8644 17.786Z" fill="#43536B"/>
<path d="M30.8644 17.786V22.0692H27.8656V17.786C27.8656 16.0214 26.4122 14.5898 24.6211 14.5898H27.6199C29.411 14.5898 30.8644 16.0216 30.8644 17.786Z" fill="#43536B"/>
<path d="M13.9462 32.9991H10.9477C9.15636 32.9991 7.70312 31.5673 7.70312 29.803V17.786C7.70312 16.0214 9.15659 14.5898 10.9477 14.5898H13.9465C12.1552 14.5898 10.7019 16.0216 10.7019 17.786V29.8027C10.7017 31.5673 12.1552 32.9991 13.9462 32.9991Z" fill="#73849D"/>
<path d="M13.9465 14.5898C12.1552 14.5898 10.7019 16.0216 10.7019 17.786V22.0692H7.70312V17.786C7.70312 16.0214 9.15659 14.5898 10.9477 14.5898H13.9465Z" fill="#73849D"/>
<path d="M43.7501 27.6191C37.4841 27.6191 32.4048 32.6229 32.4048 38.7951C32.4048 40.5519 32.8167 42.2137 33.5498 43.6925C33.0063 45.8594 31.9242 48.6723 29.8185 50.2091C29.4101 50.5074 29.5791 51.1424 30.0851 51.1924C32.2503 51.4059 36.2083 51.3937 39.5725 49.1888C40.8656 49.6935 42.2749 49.971 43.7501 49.971C50.0161 49.971 55.0954 44.9673 55.0954 38.7951C55.0954 32.6229 50.0161 27.6191 43.7501 27.6191Z" fill="#A57F6A"/>
<path d="M52.6787 38.7961C52.6787 44.5665 48.2396 49.3141 42.543 49.9081C42.9394 49.9509 43.344 49.9716 43.7518 49.9716C50.0173 49.9716 55.0964 44.9684 55.0964 38.7964C55.0964 32.6244 50.0173 27.6211 43.7518 27.6211C43.344 27.6211 42.941 27.6418 42.543 27.6846C48.2396 28.2782 52.6787 33.0258 52.6787 38.7961Z" fill="#8A6B5A"/>
<path d="M35.0406 38.7951C35.0406 40.5528 35.4538 42.215 36.1868 43.6938C35.6419 45.8601 34.5607 48.6724 32.4548 50.21C32.047 50.5078 32.2158 51.1433 32.7221 51.1935C32.8644 51.2073 33.014 51.2211 33.1703 51.2316C31.9715 51.3217 30.9009 51.2731 30.0853 51.1935C29.5791 51.1433 29.4103 50.5078 29.8181 50.21C31.9239 48.6724 33.0051 45.8601 33.5501 43.6938C32.8171 42.215 32.4039 40.5525 32.4039 38.7951C32.4039 32.6235 37.4841 27.6191 43.7492 27.6191C44.1956 27.6191 44.6351 27.645 45.0675 27.6954C39.423 28.3378 35.0406 33.0633 35.0406 38.7951Z" fill="#AE9485"/>
<path d="M25.5106 6.63096H31.8468C32.3446 6.63096 32.7519 6.23194 32.7519 5.73931C32.7519 5.24667 32.3446 4.84766 31.8468 4.84766H25.5106C25.0105 4.84766 24.6055 5.24667 24.6055 5.73931C24.6055 6.23194 25.0105 6.63096 25.5106 6.63096Z" fill="#0B182B"/>
<path d="M20.3075 6.63096H22.1178C22.6157 6.63096 23.023 6.23194 23.023 5.73931C23.023 5.24667 22.6157 4.84766 22.1178 4.84766H20.3075C19.8074 4.84766 19.4023 5.24667 19.4023 5.73931C19.4023 6.23194 19.8074 6.63096 20.3075 6.63096Z" fill="#0B182B"/>
<path d="M6.80146 29.8028C6.80146 32.0565 8.66156 33.891 10.9494 33.891H27.6247C29.9125 33.891 31.7726 32.0565 31.7726 29.8028C31.7726 24.4398 31.7735 21.3346 31.7735 17.7854C31.7735 15.5077 29.8708 13.6974 27.6247 13.6974H24.5204V12.0329C24.5204 10.8365 23.5324 9.86328 22.3179 9.86328H16.2565C15.042 9.86328 14.0541 10.8365 14.0541 12.0329V13.6974H10.9516C8.72538 13.6974 6.80078 15.4776 6.80078 17.7854C6.80078 18.727 6.80146 23.2149 6.80146 29.8028ZM10.9505 15.4809H27.6238C28.9041 15.4809 29.9622 16.5139 29.9622 17.7856V21.177H27.6088V20.5319C27.6088 19.3371 26.6222 18.3629 25.407 18.3629C24.1919 18.3629 23.203 19.3371 23.203 20.5319V21.177H15.3711V20.5319C15.3711 19.3371 14.3822 18.3629 13.167 18.3629C11.9518 18.3629 10.9652 19.3371 10.9652 20.5319V21.177H8.61178V17.7856C8.61178 16.5145 9.66245 15.4809 10.9505 15.4809ZM25.0133 20.5319C25.0133 20.3201 25.1898 20.1462 25.407 20.1462C25.6243 20.1462 25.7985 20.3201 25.7985 20.5319V23.6014C25.7985 23.8132 25.6243 23.987 25.407 23.987C25.1898 23.987 25.0133 23.8132 25.0133 23.6014C25.0133 22.8725 25.0133 22.173 25.0133 20.5319ZM13.5607 23.6014C13.5607 23.8132 13.3842 23.987 13.167 23.987C12.952 23.987 12.7755 23.8132 12.7755 23.6014V20.5319C12.7755 20.3201 12.952 20.1462 13.167 20.1462C13.3842 20.1462 13.5607 20.3201 13.5607 20.5319V23.6014ZM27.6247 32.1077H10.9494C9.6595 32.1077 8.61178 31.0734 8.61178 29.8028V22.9603H10.9652V23.6014C10.9652 24.7984 11.9518 25.7703 13.167 25.7703C14.3822 25.7703 15.3711 24.7984 15.3711 23.6014V22.9603H23.203V23.6014C23.203 24.7984 24.1919 25.7703 25.407 25.7703C26.6222 25.7703 27.6088 24.7984 27.6088 23.6014V22.9603H29.9622V29.8028C29.9622 31.0734 28.9145 32.1077 27.6247 32.1077ZM15.8641 12.0329C15.8641 11.8198 16.04 11.6466 16.2563 11.6466H22.3177C22.534 11.6466 22.7099 11.82 22.7099 12.0329V13.6974H15.8641V12.0329Z" fill="#0B182B"/>
<path d="M43.7487 26.7272C41.8999 26.7272 40.1461 27.1329 38.5734 27.8596V2.00621C38.5734 0.900567 37.6592 0 36.5368 0H9.735C9.51618 0 9.29781 0.0800256 9.12967 0.227817C9.06178 0.28778 0.295761 8.03444 0.295761 8.03444C0.10002 8.20987 0 8.46444 0 8.69582V53.7219C0 54.8276 0.911949 55.7282 2.03661 55.7282H36.5368C37.6592 55.7282 38.5734 54.8276 38.5734 53.7219V50.7706C38.9445 50.5945 39.3134 50.3983 39.6777 50.1799C40.9811 50.6324 42.3502 50.862 43.7487 50.862C50.5034 50.862 56 45.4497 56 38.7957C56 32.1418 50.5034 26.7272 43.7487 26.7272ZM8.82984 2.8885V7.80194H3.26899L8.82984 2.8885ZM36.7631 53.7219C36.7631 53.8445 36.6613 53.9449 36.5368 53.9449H2.03661C1.90989 53.9449 1.81032 53.8445 1.81032 53.7219V9.58524H9.735C10.2328 9.58524 10.6402 9.18623 10.6402 8.69359V1.7833H36.5368C36.6613 1.7833 36.7631 1.88361 36.7631 2.00621V28.8872C34.0363 30.7575 32.1128 33.6932 31.6218 37.0771H5.82697C5.32687 37.0771 4.92181 37.4761 4.92181 37.9687C4.92181 38.4613 5.32687 38.8604 5.82697 38.8604H31.4973C31.5041 39.9901 31.6648 41.091 31.9791 42.1517H5.82606C5.32619 42.1517 4.9209 42.5509 4.9209 43.0433C4.9209 43.5357 5.32619 43.935 5.82606 43.935H32.5477C32.4781 44.1579 32.0872 45.72 31.2237 47.2263H5.82697C5.32687 47.2263 4.92181 47.6253 4.92181 48.1179C4.92181 48.6106 5.32687 49.0096 5.82697 49.0096H29.8544C29.6734 49.1834 29.4811 49.3462 29.2774 49.4933C28.2003 50.2806 28.6743 51.9522 29.9925 52.0791C32.2083 52.2973 34.5893 52.1381 36.7631 51.4683V53.7219ZM43.7487 49.0787C42.4203 49.0787 41.1282 48.8379 39.904 48.3609C39.6279 48.2517 39.3156 48.2851 39.069 48.4456C36.7441 49.9728 33.8433 50.5075 31.0312 50.3671C32.7883 48.7338 33.843 46.2356 34.4278 43.9071C34.4776 43.7043 34.4549 43.4903 34.3621 43.3008C33.6629 41.892 33.3076 40.3762 33.3076 38.7957C33.3076 33.1221 37.9957 28.5105 43.7487 28.5105C49.5055 28.5105 54.1897 33.1248 54.1897 38.7957C54.1897 44.4666 49.5055 49.0787 43.7487 49.0787Z" fill="#0B182B"/>
<path d="M51.621 37.8283C51.6203 37.824 51.2316 34.9097 51.2316 34.9054C51.2316 34.3404 50.7514 33.9329 50.1983 34.0042L46.8854 34.4326C46.3899 34.4968 46.0407 34.9444 46.1059 35.4328C46.171 35.9208 46.6225 36.2659 47.121 36.2008L48.2031 36.0608L43.859 41.3788L41.3382 38.9647C40.9851 38.6281 40.4262 38.6281 40.0755 38.9669C38.2346 40.7337 39.0019 39.997 36.8508 42.0632C36.5012 42.3846 36.479 42.9744 36.835 43.3248C37.1835 43.677 37.7583 43.6837 38.1158 43.3405C38.7071 42.7725 38.2004 43.2595 40.7068 40.8483L43.3091 43.3405C43.6825 43.6984 44.3062 43.6791 44.6443 43.2602L49.6951 37.0811C49.6955 37.0804 49.8261 38.0599 49.8261 38.0605C49.8915 38.5501 50.3477 38.8929 50.8412 38.8285C51.337 38.7643 51.6862 38.3167 51.621 37.8283Z" fill="white"/>
</svg>
