<svg width="5" height="16" viewBox="0 0 5 16" fill="none" xmlns="http://www.w3.org/2000/svg">
<path d="M2.5 16C1.1215 16 0 14.8785 0 13.5V8.5C0 7.1215 1.1215 6 2.5 6C3.8785 6 5 7.1215 5 8.5V13.5C5 14.8785 3.8785 16 2.5 16ZM2.5 7C1.67291 7 1 7.67291 1 8.5V13.5C1 14.3271 1.67291 15 2.5 15C3.32713 15 4 14.3271 4 13.5V8.5C4 7.67291 3.32713 7 2.5 7Z" fill="#0F2846"/>
<path d="M2.5 5C1.1215 5 0 3.8785 0 2.5C0 1.1215 1.1215 0 2.5 0C3.8785 0 5 1.1215 5 2.5C5 3.8785 3.8785 5 2.5 5ZM2.5 1C1.67291 1 1 1.67291 1 2.5C1 3.32709 1.67291 4 2.5 4C3.32709 4 4 3.32709 4 2.5C4 1.67291 3.32709 1 2.5 1Z" fill="#0F2846"/>
</svg>
