<svg width="12" height="16" viewBox="0 0 12 16" fill="none" xmlns="http://www.w3.org/2000/svg">
<path d="M0.5 14.25C0.223844 14.25 0 14.0261 0 13.75V2.0625C0 0.925219 0.925219 0 2.0625 0H11C11.2762 0 11.5 0.223875 11.5 0.5V12C11.5 12.2761 11.2762 12.5 11 12.5C10.7238 12.5 10.5 12.2761 10.5 12V1H2.0625C1.47662 1 1 1.47662 1 2.0625V13.75C1 14.0261 0.776156 14.25 0.5 14.25Z" fill="#0F2846"/>
<path d="M11 16H2.25C1.00934 16 0 14.9907 0 13.75C0 12.5093 1.00934 11.5 2.25 11.5H11C11.2762 11.5 11.5 11.7239 11.5 12C11.5 12.2761 11.2762 12.5 11 12.5H2.25C1.56075 12.5 1 13.0608 1 13.75C1 14.4392 1.56075 15 2.25 15H11C11.2762 15 11.5 15.2239 11.5 15.5C11.5 15.7761 11.2762 16 11 16Z" fill="#0F2846"/>
<path d="M11 14.25H2.25C1.97384 14.25 1.75 14.0261 1.75 13.75C1.75 13.4739 1.97384 13.25 2.25 13.25H11C11.2762 13.25 11.5 13.4739 11.5 13.75C11.5 14.0261 11.2762 14.25 11 14.25Z" fill="#0F2846"/>
<path d="M2.75 12.5C2.47384 12.5 2.25 12.2761 2.25 12V0.5C2.25 0.223875 2.47384 0 2.75 0C3.02616 0 3.25 0.223875 3.25 0.5V12C3.25 12.2761 3.02616 12.5 2.75 12.5Z" fill="#0F2846"/>
</svg>
