<svg width="18" height="15" viewBox="0 0 18 15" fill="none" xmlns="http://www.w3.org/2000/svg">
<path fill-rule="evenodd" clip-rule="evenodd" d="M7.21797 6.6066C6.01522 6.6066 5.04019 7.58162 5.04019 8.78437C5.04019 9.98713 6.01522 10.9622 7.21797 10.9622C8.42072 10.9622 9.39575 9.98713 9.39575 8.78437C9.39575 7.58162 8.42072 6.6066 7.21797 6.6066ZM4.41797 8.78437C4.41797 7.23798 5.67157 5.98438 7.21797 5.98438C8.76437 5.98438 10.018 7.23798 10.018 8.78437C10.018 10.3308 8.76437 11.5844 7.21797 11.5844C5.67157 11.5844 4.41797 10.3308 4.41797 8.78437Z" fill="#0F2846"/>
<path fill-rule="evenodd" clip-rule="evenodd" d="M1.21321 0.677659C1.40224 0.490123 1.65863 0.384766 1.92597 0.384766H16.71C16.9773 0.384766 17.2337 0.490123 17.4227 0.677659C17.6118 0.865196 17.718 1.11955 17.718 1.38477V13.3848C17.718 13.65 17.6118 13.9043 17.4227 14.0919C17.2337 14.2794 16.9773 14.3848 16.71 14.3848H11.5524C11.4226 14.3848 11.3044 14.3106 11.2488 14.1942C10.8946 13.4532 10.3357 12.8271 9.63703 12.3886C8.93838 11.9502 8.12866 11.7175 7.30197 11.7175C6.47527 11.7175 5.66555 11.9502 4.9669 12.3886C4.26825 12.8271 3.70936 13.4532 3.35517 14.1942C3.29956 14.3106 3.18137 14.3848 3.05157 14.3848H1.92597C1.65863 14.3848 1.40224 14.2794 1.21321 14.0919C1.02417 13.9043 0.917969 13.65 0.917969 13.3848V1.38477C0.917969 1.11955 1.02417 0.865195 1.21321 0.677659ZM1.92597 1.05143C1.83686 1.05143 1.75139 1.08655 1.68838 1.14906C1.62537 1.21158 1.58997 1.29636 1.58997 1.38477V13.3848C1.58997 13.4732 1.62537 13.558 1.68838 13.6205C1.75139 13.683 1.83686 13.7181 1.92597 13.7181H2.84409C3.2545 12.9462 3.86211 12.2931 4.60766 11.8252C5.4138 11.3194 6.34809 11.0508 7.30197 11.0508C8.25585 11.0508 9.19014 11.3194 9.99628 11.8252C10.7418 12.2931 11.3494 12.9462 11.7598 13.7181H16.71C16.7991 13.7181 16.8845 13.683 16.9476 13.6205C17.0106 13.558 17.046 13.4732 17.046 13.3848V1.38477C17.046 1.29636 17.0106 1.21158 16.9476 1.14906C16.8845 1.08655 16.7991 1.05143 16.71 1.05143H1.92597Z" fill="#0F2846"/>
<path fill-rule="evenodd" clip-rule="evenodd" d="M3.71875 3.50862C3.71875 3.33019 3.86623 3.18555 4.04816 3.18555H14.5893C14.7713 3.18555 14.9187 3.33019 14.9187 3.50862V11.2625C14.9187 11.4409 14.7713 11.5855 14.5893 11.5855H13.2717C13.0898 11.5855 12.9423 11.4409 12.9423 11.2625C12.9423 11.084 13.0898 10.9394 13.2717 10.9394H14.2599V3.8317H4.37757V4.80093C4.37757 4.97936 4.23009 5.12401 4.04816 5.12401C3.86623 5.12401 3.71875 4.97936 3.71875 4.80093V3.50862Z" fill="#0F2846"/>
</svg>
