<svg width="24" height="24" viewBox="0 0 24 24" fill="none" xmlns="http://www.w3.org/2000/svg">
<path fill-rule="evenodd" clip-rule="evenodd" d="M17.2008 0C21.2676 0 24 2.8536 24 7.0992V16.9008C24 21.1464 21.2676 24 17.1996 24H6.798C2.7312 24 0 21.1464 0 16.9008V7.0992C0 2.8536 2.7312 0 6.798 0H17.2008ZM17.2008 1.8H6.798C3.762 1.8 1.8 3.8796 1.8 7.0992V16.9008C1.8 20.1204 3.762 22.2 6.798 22.2H17.1996C20.2368 22.2 22.2 20.1204 22.2 16.9008V7.0992C22.2 3.8796 20.2368 1.8 17.2008 1.8ZM9.7566 8.47512L11.9976 10.716L14.2374 8.47764C14.589 8.12604 15.1578 8.12604 15.5094 8.47764C15.861 8.82924 15.861 9.39804 15.5094 9.74964L13.2696 11.988L15.5118 14.2315C15.8634 14.5831 15.8634 15.1519 15.5118 15.5035C15.3366 15.6799 15.105 15.7675 14.8758 15.7675C14.6454 15.7675 14.415 15.6799 14.2398 15.5035L11.9976 13.26L9.759 15.5C9.5838 15.6764 9.3534 15.764 9.123 15.764C8.8926 15.764 8.6622 15.6764 8.487 15.5C8.1354 15.1484 8.1354 14.5796 8.487 14.228L10.7256 11.988L8.4846 9.74712C8.133 9.39552 8.133 8.82672 8.4846 8.47512C8.8374 8.12352 9.4062 8.12352 9.7566 8.47512Z" fill="#0F2846"/>
</svg>
