<svg width="64" height="64" viewBox="0 0 64 64" fill="none" xmlns="http://www.w3.org/2000/svg">
<path fill-rule="evenodd" clip-rule="evenodd" d="M45.8688 0C56.7136 0 64 7.6096 64 18.9312V45.0688C64 56.3904 56.7136 64 45.8656 64H18.128C7.2832 64 0 56.3904 0 45.0688V18.9312C0 7.6096 7.2832 0 18.128 0H45.8688ZM45.8688 4.8H18.128C10.032 4.8 4.8 10.3456 4.8 18.9312V45.0688C4.8 53.6544 10.032 59.2 18.128 59.2H45.8656C53.9648 59.2 59.2 53.6544 59.2 45.0688V18.9312C59.2 10.3456 53.9648 4.8 45.8688 4.8ZM26.0176 22.6003L31.9936 28.576L37.9664 22.607C38.904 21.6694 40.4208 21.6694 41.3584 22.607C42.296 23.5446 42.296 25.0614 41.3584 25.999L35.3856 31.968L41.3648 37.9507C42.3024 38.8883 42.3024 40.4051 41.3648 41.3427C40.8976 41.8131 40.28 42.0467 39.6688 42.0467C39.0544 42.0467 38.44 41.8131 37.9728 41.3427L31.9936 35.36L26.024 41.3334C25.5568 41.8038 24.9424 42.0374 24.328 42.0374C23.7136 42.0374 23.0992 41.8038 22.632 41.3334C21.6944 40.3958 21.6944 38.879 22.632 37.9414L28.6016 31.968L22.6256 25.9923C21.688 25.0547 21.688 23.5379 22.6256 22.6003C23.5664 21.6627 25.0832 21.6627 26.0176 22.6003Z" fill="white"/>
</svg>
