<svg width="18" height="16" viewBox="0 0 18 16" fill="none" xmlns="http://www.w3.org/2000/svg">
<path d="M3.48023 10.841L3.7481 10.4188C3.62116 10.3383 3.46473 10.3191 3.32212 10.3667L3.48023 10.841ZM1 11.6677L0.525658 11.5096C0.465769 11.6893 0.51253 11.8874 0.646447 12.0213C0.780363 12.1552 0.978446 12.202 1.15811 12.1421L1 11.6677ZM1.82674 9.18751L2.30108 9.34562C2.34862 9.20301 2.32947 9.04658 2.24894 8.91964L1.82674 9.18751ZM6.33387 12.1677C9.55583 12.1677 12.1677 9.55583 12.1677 6.33387H11.1677C11.1677 9.00354 9.00354 11.1677 6.33387 11.1677V12.1677ZM3.21236 11.2632C4.1153 11.8361 5.18661 12.1677 6.33387 12.1677V11.1677C5.38188 11.1677 4.49557 10.893 3.7481 10.4188L3.21236 11.2632ZM3.32212 10.3667L0.841886 11.1934L1.15811 12.1421L3.63834 11.3153L3.32212 10.3667ZM1.47434 11.8259L2.30108 9.34562L1.3524 9.0294L0.525658 11.5096L1.47434 11.8259ZM0.5 6.33387C0.5 7.48112 0.83167 8.55244 1.40455 9.45538L2.24894 8.91964C1.77469 8.17216 1.5 7.28586 1.5 6.33387H0.5ZM6.33387 0.5C3.11191 0.5 0.5 3.11191 0.5 6.33387H1.5C1.5 3.6642 3.6642 1.5 6.33387 1.5V0.5ZM12.1677 6.33387C12.1677 3.11191 9.55583 0.5 6.33387 0.5V1.5C9.00354 1.5 11.1677 3.6642 11.1677 6.33387H12.1677Z" fill="#0F2846"/>
<path d="M6.63281 11.6592C7.36242 13.7357 9.34058 15.2244 11.6664 15.2244C12.716 15.2244 13.6949 14.9212 14.5201 14.3976L17.0003 15.2244L16.1736 12.7441L16.2998 12.5347C16.7456 11.7553 17.0003 10.8527 17.0003 9.89051C17.0003 6.9447 14.6122 4.55664 11.6664 4.55664L11.4665 4.56032L11.3661 4.56565" stroke="#0F2846" stroke-linecap="round" stroke-linejoin="round"/>
</svg>
