<svg width="20" height="20" viewBox="0 0 20 20" fill="none" xmlns="http://www.w3.org/2000/svg">
<path d="M13.9154 15.8168H6.08203C5.73203 15.8168 5.34037 15.5418 5.2237 15.2085L1.7737 5.55846C1.28203 4.17513 1.85703 3.75013 3.04037 4.60013L6.29037 6.92513C6.83203 7.30013 7.4487 7.10846 7.68203 6.50013L9.1487 2.5918C9.61537 1.3418 10.3904 1.3418 10.857 2.5918L12.3237 6.50013C12.557 7.10846 13.1737 7.30013 13.707 6.92513L16.757 4.75013C18.057 3.8168 18.682 4.2918 18.1487 5.80013L14.782 15.2251C14.657 15.5418 14.2654 15.8168 13.9154 15.8168Z" stroke="#0F2846" stroke-width="1.5" stroke-linecap="round" stroke-linejoin="round"/>
<path d="M5.41797 18.333H14.5846" stroke="#A17B67" stroke-width="1.5" stroke-linecap="round" stroke-linejoin="round"/>
<path d="M7.91797 11.667H12.0846" stroke="#A17B67" stroke-width="1.5" stroke-linecap="round" stroke-linejoin="round"/>
</svg>
