<svg width="18" height="16" viewBox="0 0 18 16" fill="none" xmlns="http://www.w3.org/2000/svg">
<path d="M15.3667 0H2.7C1.4869 0 0.5 0.9869 0.5 2.2V13.8C0.5 15.0131 1.4869 16 2.7 16H13.8333C14.4917 16 15.1106 15.7436 15.5761 15.2781L16.8448 14.0095C17.3103 13.544 17.5667 12.925 17.5667 12.2667V2.2C17.5667 0.9869 16.5798 0 15.3667 0V0ZM2.7 1.06667H15.3667C15.9916 1.06667 16.5 1.57507 16.5 2.2V3.73333H1.56667V2.2C1.56667 1.57507 2.07507 1.06667 2.7 1.06667ZM1.56667 13.8V4.8H16.5V11.7333H14.8333C13.9879 11.7333 13.3 12.4212 13.3 13.2667V14.9333H2.7C2.07507 14.9333 1.56667 14.4249 1.56667 13.8ZM16.0905 13.2552L14.8219 14.5239C14.6893 14.6564 14.5349 14.7591 14.3667 14.8284V13.2667C14.3667 13.0093 14.576 12.8 14.8333 12.8H16.3951C16.3257 12.9682 16.2231 13.1227 16.0905 13.2552V13.2552Z" fill="#0F2846"/>
<path d="M13.8344 6.93372C13.8344 6.63919 13.5956 6.40039 13.301 6.40039H4.76771C4.47314 6.40039 4.23438 6.63919 4.23438 6.93372C4.23438 7.22826 4.47314 7.46706 4.76771 7.46706H13.301C13.5956 7.46706 13.8344 7.22826 13.8344 6.93372Z" fill="#0F2846"/>
<path d="M12.2341 9.06641H5.83411C5.53955 9.06641 5.30078 9.30521 5.30078 9.59974C5.30078 9.89427 5.53955 10.1331 5.83411 10.1331H12.2341C12.5287 10.1331 12.7674 9.89427 12.7674 9.59974C12.7674 9.30521 12.5287 9.06641 12.2341 9.06641Z" fill="#0F2846"/>
</svg>
