<svg width="56" height="51" viewBox="0 0 56 51" fill="none" xmlns="http://www.w3.org/2000/svg">
<path d="M3.14453 34.7461H52.8546V39.8404H3.14453V34.7461Z" fill="#E1E5EA"/>
<path d="M48.6992 34.7461H52.8532V39.84H48.6992V34.7461Z" fill="#B1B7BD"/>
<path d="M3.14453 34.7461H7.41638V39.8396H3.14453V34.7461Z" fill="#FBFCFD"/>
<path d="M5.34766 39.8418H50.6508V49.2773H5.34766V39.8418Z" fill="#E1E5EA"/>
<path d="M46.4961 39.8418H50.6501V49.2768H46.4961V39.8418Z" fill="#B1B7BD"/>
<path d="M5.34766 39.8418H9.6195V49.2764H5.34766V39.8418Z" fill="#FBFCFD"/>
<path d="M25.5092 34.7458H6.9314C4.93485 34.7458 3.31641 33.1516 3.31641 31.1848V17.7954C3.31641 15.8287 4.93485 14.2344 6.9314 14.2344H25.5092C27.5058 14.2344 29.1242 15.8287 29.1242 17.7954V31.1848C29.1242 33.1516 27.5058 34.7458 25.5092 34.7458Z" fill="#BEC6CB"/>
<path d="M29.124 22.5672H3.31641V17.7954C3.31641 15.8287 4.93485 14.2344 6.9314 14.2344H25.5092C27.5058 14.2344 29.1242 15.8287 29.1242 17.7954V22.5672H29.124Z" fill="#BEC6CB"/>
<path d="M9.40685 25.7009C8.60831 25.7009 7.96094 25.0632 7.96094 24.2766V20.8579C7.96094 20.0713 8.60831 19.4336 9.40685 19.4336C10.2054 19.4336 10.8528 20.0713 10.8528 20.8579V24.2766C10.8528 25.0632 10.2054 25.7009 9.40685 25.7009Z" fill="#B1B7BD"/>
<path d="M23.0397 25.7009C22.2411 25.7009 21.5938 25.0632 21.5938 24.2766V20.8579C21.5938 20.0713 22.2411 19.4336 23.0397 19.4336C23.8382 19.4336 24.4856 20.0713 24.4856 20.8579V24.2766C24.4856 25.0632 23.8382 25.7009 23.0397 25.7009Z" fill="#B1B7BD"/>
<path d="M29.1284 17.7956V31.1848C29.1284 33.1509 27.5091 34.746 25.5132 34.746H22.1719C24.1678 34.746 25.7871 33.1509 25.7871 31.1848V17.7956C25.7871 15.8295 24.1678 14.2344 22.1719 14.2344H25.5132C27.5091 14.2344 29.1284 15.8297 29.1284 17.7956Z" fill="#BEC6CB"/>
<path d="M29.1284 17.7956V22.5681H25.7871V17.7956C25.7871 15.8295 24.1678 14.2344 22.1719 14.2344H25.5132C27.5091 14.2344 29.1284 15.8297 29.1284 17.7956Z" fill="#BEC6CB"/>
<path d="M10.2727 34.7463H6.93162C4.93573 34.7463 3.31641 33.1511 3.31641 31.185V17.7956C3.31641 15.8295 4.93573 14.2344 6.93162 14.2344H10.2729C8.27705 14.2344 6.65773 15.8295 6.65773 17.7956V31.1848C6.65751 33.1509 8.27705 34.7463 10.2727 34.7463Z" fill="#CBDBE2"/>
<path d="M10.2727 14.2344C8.27683 14.2344 6.65751 15.8295 6.65751 17.7956V22.5681H3.31641V17.7956C3.31641 15.8295 4.93573 14.2344 6.93162 14.2344H10.2727Z" fill="#CBDBE2"/>
<path d="M34.5742 30.9824H49.8255V34.7466H34.5742V30.9824Z" fill="#E3E4E5"/>
<path d="M36.418 27.2188H51.6692V30.983H36.418V27.2188Z" fill="#BEC6CB"/>
<path d="M34.5742 23.4551H49.8255V27.2193H34.5742V23.4551Z" fill="#FBFCFD"/>
<path d="M37.4219 19.6895H52.6731V23.4537H37.4219V19.6895Z" fill="#BEC6CB"/>
<path d="M35.4961 15.9258H50.7473V19.69H35.4961V15.9258Z" fill="#E3E4E5"/>
<path d="M33.6445 12.1621H48.8958V15.9263H33.6445V12.1621Z" fill="#FBFCFD"/>
<path d="M37.4219 8.39844H52.6731V12.1626H37.4219V8.39844Z" fill="#BEC6CB"/>
<path d="M33.6445 4.63281H48.8958V8.39702H33.6445V4.63281Z" fill="#E3E4E5"/>
<path d="M37.4219 0.869141H52.6731V4.63335H37.4219V0.869141Z" fill="#BEC6CB"/>
<path d="M55.1186 33.8783C53.49 33.8783 52.4037 33.8783 50.7066 33.8783V31.8505H51.6729C52.1596 31.8505 52.5542 31.4618 52.5542 30.9823V27.2181C52.5542 26.7386 52.1596 26.3499 51.6729 26.3499H50.7066V24.3221H52.6728C53.1595 24.3221 53.5542 23.9334 53.5542 23.4539V19.6897C53.5542 19.2102 53.1595 18.8215 52.6728 18.8215H51.6305V15.925C51.6305 15.4456 51.2359 15.0568 50.7492 15.0568H49.7827V13.0291H52.6728C53.1595 13.0291 53.5542 12.6403 53.5542 12.1608V8.39664C53.5542 7.91716 53.1595 7.52841 52.6728 7.52841H49.7827V5.50066H52.6728C53.1595 5.50066 53.5542 5.11191 53.5542 4.63243V0.868229C53.5542 0.388749 53.1595 0 52.6728 0H37.4213C36.9346 0 36.5399 0.388749 36.5399 0.868229V3.76421H33.6501C33.1634 3.76421 32.7687 4.15295 32.7687 4.63243V8.39664C32.7687 8.87612 33.1634 9.26487 33.6501 9.26487H36.5399V11.2926H33.6501C33.1634 11.2926 32.7687 11.6814 32.7687 12.1608V15.925C32.7687 16.4045 33.1634 16.7933 33.6501 16.7933H34.6165V19.6893C34.6165 20.1687 35.0112 20.5575 35.4979 20.5575H36.5399V22.5852H34.5738C34.0871 22.5852 33.6924 22.974 33.6924 23.4535V27.2177C33.6924 27.6971 34.0871 28.0859 34.5738 28.0859H35.5402V30.1136H34.5738C34.0871 30.1136 33.6924 30.5024 33.6924 30.9819V33.8778H29.0819C29.6654 33.1307 30.0164 32.1985 30.0164 31.185C30.0164 29.6402 30.0164 19.0785 30.0164 17.7956V17.7954C30.0164 15.3531 27.9993 13.3659 25.5198 13.3659H21.935V11.386C21.935 10.122 20.8912 9.09361 19.6079 9.09361H12.8543C11.5712 9.09361 10.5272 10.1218 10.5272 11.386V13.3659H6.94266C4.46332 13.3659 2.44606 15.3529 2.44606 17.7954V17.7956V31.185C2.44606 32.1985 2.79707 33.1305 3.38054 33.8778C2.39185 33.8778 1.84584 33.8778 0.881383 33.8778C0.394639 33.8778 0 34.2666 0 34.7461C0 35.2256 0.394639 35.6143 0.881383 35.6143H2.26361V39.8404C2.26361 40.3199 2.65825 40.7086 3.145 40.7086H4.46707V49.2759C4.46707 49.7554 4.86171 50.1441 5.34845 50.1441H50.6516C51.1383 50.1441 51.5329 49.7554 51.5329 49.2759V40.7086H52.855C53.3418 40.7086 53.7364 40.3199 53.7364 39.8404V35.6143H55.1186C55.6054 35.6143 56 35.2256 56 34.7461C56 34.2666 55.6054 33.8783 55.1186 33.8783ZM50.7912 28.0861V30.1139C49.2984 30.1139 38.7438 30.1139 37.3028 30.1139V28.0861H50.7912ZM51.7912 20.5577V22.5854C50.3021 22.5854 39.9538 22.5854 38.3025 22.5854V20.5577H51.7912ZM51.7912 9.26487V11.2926C50.6139 11.2926 39.4758 11.2926 38.3025 11.2926V9.26487H51.7912ZM38.3027 1.73646H51.7914V3.76421C50.6141 3.76421 39.4761 3.76421 38.3027 3.76421V1.73646ZM34.5313 7.52841V5.50066H48.0197V7.52841C37.7009 7.52841 34.7104 7.52841 34.5313 7.52841ZM34.5313 15.0568V13.0291H48.0197V15.0568C46.5789 15.0568 36.0248 15.0568 34.5313 15.0568ZM36.3791 18.8212V16.7935H49.8676V18.8212C48.8238 18.8212 38.5546 18.8212 36.3791 18.8212ZM35.4552 26.3497V24.3219H48.9439V26.3497C47.5028 26.3497 36.9485 26.3497 35.4552 26.3497ZM35.4552 31.8505H48.9439V33.8783H35.4552V31.8505ZM12.29 11.3866C12.29 11.0801 12.543 10.8307 12.8543 10.8307H19.6081C19.9193 10.8307 20.1724 11.0799 20.1724 11.3866V13.3666H12.29V11.3866ZM4.20883 17.7963C4.20883 16.3114 5.43505 15.1035 6.94243 15.1035H25.5202C27.0274 15.1035 28.2538 16.3114 28.2538 17.7963V21.7003H25.3774V20.8572C25.3774 19.5931 24.3334 18.5645 23.0502 18.5645C21.7669 18.5645 20.7226 19.5929 20.7226 20.8572V21.7003H11.7398V20.8572C11.7398 19.5931 10.6958 18.5645 9.41229 18.5645C8.129 18.5645 7.085 19.5929 7.085 20.8572V21.7003H4.20883V17.7963ZM23.6145 24.2757C23.6145 24.5824 23.3613 24.832 23.0499 24.832C22.7386 24.832 22.4852 24.5826 22.4852 24.2757V20.857C22.4852 20.5503 22.7384 20.3007 23.0499 20.3007C23.3613 20.3007 23.6145 20.5501 23.6145 20.857V24.2757ZM8.84799 20.8572C8.84799 20.5505 9.10116 20.3009 9.41273 20.3009C9.72408 20.3009 9.97726 20.5503 9.97726 20.8572V24.2759C9.97726 24.5826 9.72408 24.8322 9.41273 24.8322C9.10138 24.8322 8.84821 24.5828 8.84821 24.2759C8.84799 23.3983 8.84799 22.8763 8.84799 20.8572ZM4.20883 23.4365H7.08522V24.2757C7.08522 25.5398 8.12922 26.5684 9.41273 26.5684C10.696 26.5684 11.74 25.54 11.74 24.2757V23.4365H20.7226V24.2757C20.7226 25.5398 21.7666 26.5684 23.0502 26.5684C24.3334 26.5684 25.3774 25.54 25.3774 24.2757V23.4365H28.2538V31.1855C28.2538 32.6701 27.0276 33.8783 25.5202 33.8783H6.94221C5.43505 33.8783 4.2086 32.6704 4.2086 31.1855V23.4365H4.20883ZM49.7702 48.4081H6.22984V40.7091H49.7702V48.4081ZM51.9736 38.9726C49.684 38.9726 6.34332 38.9726 4.02638 38.9726V35.6147H51.9736V38.9726Z" fill="#0B182B"/>
</svg>
