<svg width="49" height="48" viewBox="0 0 49 48" fill="none" xmlns="http://www.w3.org/2000/svg">
<path d="M2.80078 32.9473H45.9568V39.9246H2.80078V32.9473Z" fill="#E1E5EA"/>
<path d="M6.86719 39.9238H41.8831V47.2242H6.86719V39.9238Z" fill="#E1E5EA"/>
<path d="M2.80078 32.9473H5.708V39.9246H2.80078V32.9473Z" fill="#A9B1B6"/>
<path d="M6.87109 39.9238H9.77831V47.2248H6.87109V39.9238Z" fill="#A9B1B6"/>
<path d="M43.0391 32.9473H45.9463V39.9246H43.0391V32.9473Z" fill="#B1B7BD"/>
<path d="M38.9727 39.9238H41.8799V47.2248H38.9727V39.9238Z" fill="#B1B7BD"/>
<path d="M34.7327 31.5807C34.7327 32.335 34.1205 32.9472 33.3661 32.9472H15.3939C14.7113 32.9472 14.0273 32.4515 14.0273 31.4481C14.0273 22.2888 25.1626 17.5884 31.7003 24.1264C33.5755 26.0011 34.7327 28.5455 34.7327 31.5807Z" fill="#E3E4E5"/>
<path d="M25.9132 21.2074C21.1963 21.8819 17.0917 25.9584 17.0917 31.5815C17.0917 32.3355 17.7046 32.9483 18.4585 32.9483H15.3941C14.7383 32.9483 14.0273 32.4769 14.0273 31.4488C14.0273 25.1325 19.6332 20.2814 25.9132 21.2074Z" fill="white"/>
<path d="M17.0664 11.7307V13.7762C17.0664 17.7983 20.3572 21.0891 24.3792 21.0891C28.396 21.0891 31.692 17.8035 31.692 13.7762V11.7307C31.692 7.70986 28.446 4.44331 24.4253 4.41812C20.3686 4.39273 17.0664 7.674 17.0664 11.7307Z" fill="#FBFCFD"/>
<path d="M34.7374 31.5804C34.7374 32.3344 34.1246 32.9472 33.3706 32.9472H30.3062C30.9621 32.9472 31.673 32.4759 31.673 31.4477C31.673 26.2451 27.825 21.9316 22.8516 21.2063C29.0182 20.3006 34.7374 24.9592 34.7374 31.5804Z" fill="#FBFCFD"/>
<path d="M26.78 21.3726L25.7251 23.7914H23.1303L22 21.3686C23.5711 21.0003 25.2144 21.0026 26.78 21.3726Z" fill="#87828E"/>
<path d="M23.1314 23.791L21.2852 32.9474H27.5132L25.7264 23.791H23.1314Z" fill="#A3ACB5"/>
<path d="M25.9123 20.9249C21.4047 21.9122 17.0664 18.4244 17.0664 13.7767V11.7296C17.0664 7.68859 20.3454 4.41797 24.3821 4.41797H24.4271C24.9378 4.42204 25.4343 4.47728 25.9144 4.57942C22.6111 5.28219 20.1308 8.21576 20.1308 11.7296V13.7767C20.1306 17.2743 22.619 20.216 25.9123 20.9249Z" fill="white"/>
<path d="M31.6974 11.7296V13.7767C31.6974 15.7889 30.8741 17.6154 29.5482 18.9413C27.7359 20.7563 25.1835 21.4356 22.8516 20.9249C24.2509 20.6247 25.5053 19.9218 26.4838 18.9413C27.8097 17.6154 28.633 15.7891 28.633 13.7767V11.7296C28.633 8.21983 26.1571 5.28219 22.8535 4.57942C23.3479 4.47321 23.8608 4.41797 24.3858 4.41797H24.4308C28.4511 4.44239 31.6974 7.70913 31.6974 11.7296Z" fill="#E3E4E5"/>
<path d="M29.1372 9.03618L32.5271 11.1825V7.28429C32.5271 6.97923 32.5271 7.09145 32.5271 6.5821C32.5271 5.05872 31.833 3.64252 30.6467 2.64263C29.6274 1.78345 28.273 1.25977 26.7865 1.25977H21.9828C18.8139 1.25977 16.2422 3.64252 16.2422 6.5823V7.25832V10.9637C16.242 10.9635 23.2125 12.1403 29.1372 9.03618Z" fill="#E9ECEE"/>
<path d="M19.1494 6.58191V11.1811C17.3896 11.1579 16.2422 10.9641 16.2422 10.9641V6.58191C16.2422 3.64174 18.8141 1.25977 21.983 1.25977H24.8902C21.7213 1.25977 19.1494 3.64174 19.1494 6.58191Z" fill="#A9B1B6"/>
<path d="M32.5269 6.58191V11.1831L29.6197 9.34183V6.58191C29.6197 5.82022 29.4453 5.08566 29.1235 4.41506C28.8018 3.7464 28.3308 3.14364 27.7378 2.6436C26.7183 1.78306 25.3655 1.25977 23.8789 1.25977H26.7861C28.2727 1.25977 29.6255 1.78306 30.645 2.6436C31.238 3.14364 31.709 3.7464 32.0307 4.41506C32.3525 5.08566 32.5269 5.82022 32.5269 6.58191Z" fill="#848A8E"/>
<path d="M47.0153 0.775391H37.0824C36.5472 0.775391 36.1133 1.20934 36.1133 1.74446V27.9949C36.1133 28.7535 37.0793 29.0754 37.5341 28.4682L39.8409 25.3898H47.0153C47.5505 25.3898 47.9844 24.9559 47.9844 24.4207V1.74446C47.9844 1.20934 47.5505 0.775391 47.0153 0.775391Z" fill="#E3E4E5"/>
<path d="M47.9818 1.74446V24.4207C47.9818 24.9557 47.5476 25.3898 47.0127 25.3898H44.1055C44.6404 25.3898 45.0745 24.9557 45.0745 24.4207V1.74446C45.0745 1.20953 44.6404 0.775391 44.1055 0.775391H47.0127C47.5476 0.775391 47.9818 1.20953 47.9818 1.74446Z" fill="#FBFCFD"/>
<path d="M1.74642 0.775391H11.6794C12.2145 0.775391 12.6485 1.20934 12.6485 1.74446V27.9949C12.6485 28.7535 11.6825 29.0754 11.2276 28.4682L8.92084 25.3898H1.74642C1.21129 25.3898 0.777344 24.9559 0.777344 24.4207V1.74446C0.777344 1.20934 1.21129 0.775391 1.74642 0.775391Z" fill="#E3E4E5"/>
<path d="M3.68456 1.74446V24.4207C3.68456 24.9557 4.1187 25.3898 4.65363 25.3898H1.74642C1.21149 25.3898 0.777344 24.9557 0.777344 24.4207V1.74446C0.777344 1.20953 1.21149 0.775391 1.74642 0.775391H4.65363C4.1187 0.775391 3.68456 1.20953 3.68456 1.74446Z" fill="white"/>
<path d="M45.9573 32.173H35.4235C35.4797 31.985 35.5088 31.7854 35.5088 31.58V31.4482C35.5088 26.5123 32.3256 22.4509 28.1089 20.9589C30.5952 19.6518 32.4698 16.9863 32.4698 13.7762V11.9524C32.9245 11.9888 33.2974 11.6229 33.2974 11.181V6.58178C33.2974 3.23887 30.4105 0.484375 26.7813 0.484375H21.9786C18.3853 0.484375 15.4626 3.2191 15.4626 6.58178V10.962C15.4626 11.3463 15.6971 11.6733 16.2901 11.7566V13.7762C16.2901 16.8733 17.9569 19.5654 20.682 20.9492C16.4198 22.4484 13.2511 26.5212 13.2511 31.4482V31.58C13.2511 31.7854 13.2802 31.985 13.3364 32.173H2.8026C2.37427 32.173 2.02734 32.52 2.02734 32.9483V39.9256C2.02734 40.352 2.37427 40.7009 2.8026 40.7009H6.09745V47.2247C6.09745 47.653 6.44437 47.9999 6.8727 47.9999H41.8872C42.3155 47.9999 42.6625 47.653 42.6625 47.2247V40.7009H45.9573C46.3856 40.7009 46.7326 40.352 46.7326 39.9256V32.9483C46.7326 32.52 46.3856 32.173 45.9573 32.173ZM33.9583 31.4482V31.58C33.9583 31.9056 33.6927 32.1711 33.3671 32.1711H28.1496L26.5313 23.8797L27.2213 22.2982C31.0241 23.4671 33.9583 27.0495 33.9583 31.4482ZM23.7636 24.5658H25.0854L26.5701 32.1711H22.2306L23.7636 24.5658ZM23.126 21.9513C23.6293 21.8857 24.154 21.8638 24.566 21.8718C25.0069 21.8826 25.2903 21.9049 25.6785 21.9571L25.2172 23.0153H23.6241L23.126 21.9513ZM17.0131 6.58178C17.0131 4.07382 19.24 2.03489 21.9786 2.03489H26.7813C29.561 2.03489 31.7468 4.10677 31.7468 6.58178V9.77196C31.14 9.38821 31.58 9.66653 29.5471 8.38037C29.3145 8.23114 29.0179 8.21951 28.7737 8.34936C25.2948 10.1708 20.799 10.6786 17.0131 10.2798C17.0131 8.19063 17.0131 7.53224 17.0131 6.58178ZM17.8407 13.7762V11.9097C21.6109 12.1545 25.6927 11.5907 29.0896 9.92507L30.8844 11.0608C30.9076 11.2818 30.9193 11.5066 30.9193 11.7295V13.7762C30.9193 15.5147 30.2351 17.1524 28.9966 18.3928C27.1011 20.2903 24.3761 20.8271 21.8836 19.798C19.3912 18.7649 17.8407 16.4586 17.8407 13.7762ZM14.8017 31.4482C14.8017 27.011 17.7744 23.4448 21.5716 22.2866L22.3197 23.8894L20.649 32.1711H15.3947C15.0672 32.1711 14.8017 31.9056 14.8017 31.58V31.4482ZM41.112 46.4494H7.64796V40.7009H41.112V46.4494ZM45.1821 39.1503C42.5962 39.1503 4.85432 39.1503 3.57786 39.1503V33.7235H45.1821V39.1503Z" fill="#0B182B"/>
<path d="M36.0565 37.2126H36.638C37.0663 37.2126 37.4132 36.8638 37.4132 36.4374C37.4132 36.009 37.0663 35.6621 36.638 35.6621H36.0565C35.6282 35.6621 35.2812 36.009 35.2812 36.4374C35.2812 36.8638 35.6282 37.2126 36.0565 37.2126Z" fill="#0B182B"/>
<path d="M39.5448 37.2126H43.0334C43.4618 37.2126 43.8087 36.8638 43.8087 36.4374C43.8087 36.009 43.4618 35.6621 43.0334 35.6621H39.5448C39.1165 35.6621 38.7695 36.009 38.7695 36.4374C38.7695 36.8638 39.1165 37.2126 39.5448 37.2126Z" fill="#0B182B"/>
<path d="M20.8506 12.3887C20.3203 12.3887 19.8906 12.8186 19.8906 13.3486C19.8906 13.8789 20.3205 14.3088 20.8506 14.3088C21.3807 14.3088 21.8106 13.8789 21.8106 13.3486C21.8106 12.8186 21.3809 12.3887 20.8506 12.3887Z" fill="#0B182B"/>
<path d="M27.9053 14.3088C28.4355 14.3088 28.8652 13.8789 28.8652 13.3486C28.8652 12.8186 28.4354 12.3887 27.9053 12.3887C27.3752 12.3887 26.9453 12.8186 26.9453 13.3486C26.9453 13.8789 27.375 14.3088 27.9053 14.3088Z" fill="#0B182B"/>
<path d="M24.3767 18.1207C25.5256 18.1207 26.4604 17.1859 26.4604 16.037C26.4604 15.6088 26.1132 15.2617 25.6851 15.2617C25.257 15.2617 24.9099 15.6088 24.9099 16.037C24.9099 16.331 24.6707 16.5702 24.3767 16.5702C24.0827 16.5702 23.8435 16.331 23.8435 16.037C23.8435 15.6088 23.4964 15.2617 23.0682 15.2617C22.6401 15.2617 22.293 15.6088 22.293 16.037C22.293 17.1859 23.2277 18.1207 24.3767 18.1207Z" fill="#0B182B"/>
<path d="M47.0093 0H37.0764C36.115 0 35.332 0.781072 35.332 1.74433V27.9946C35.332 29.4958 37.2456 30.1341 38.1482 28.9326L40.2239 26.1649H47.0093C47.9726 26.1649 48.7537 25.3819 48.7537 24.4206V1.74433C48.7537 0.781072 47.9726 0 47.0093 0ZM47.2032 24.4206C47.2032 24.5272 47.1159 24.6144 47.0093 24.6144H39.8363C39.5921 24.6144 39.3614 24.7288 39.2141 24.9245L36.9058 28.0101C36.9019 28.012 36.8845 28.0062 36.8825 27.9946V1.74433C36.8825 1.63579 36.9698 1.55052 37.0764 1.55052H47.0093C47.1159 1.55052 47.2032 1.63579 47.2032 1.74433V24.4206Z" fill="#0B182B"/>
<path d="M44.9112 4.31055H39.1776C38.7495 4.31055 38.4023 4.65767 38.4023 5.0858C38.4023 5.51394 38.7495 5.86106 39.1776 5.86106H44.9112C45.3394 5.86106 45.6865 5.51394 45.6865 5.0858C45.6865 4.65767 45.3394 4.31055 44.9112 4.31055Z" fill="#0B182B"/>
<path d="M44.9112 8.22461H39.1776C38.7495 8.22461 38.4023 8.57173 38.4023 8.99987C38.4023 9.428 38.7495 9.77512 39.1776 9.77512H44.9112C45.3394 9.77512 45.6865 9.428 45.6865 8.99987C45.6865 8.57173 45.3394 8.22461 44.9112 8.22461Z" fill="#0B182B"/>
<path d="M44.9112 12.1367H39.1776C38.7495 12.1367 38.4023 12.4838 38.4023 12.912C38.4023 13.3401 38.7495 13.6872 39.1776 13.6872H44.9112C45.3394 13.6872 45.6865 13.3401 45.6865 12.912C45.6865 12.4838 45.3394 12.1367 44.9112 12.1367Z" fill="#0B182B"/>
<path d="M44.9112 16.0488H39.1776C38.7495 16.0488 38.4023 16.3959 38.4023 16.8241C38.4023 17.2522 38.7495 17.5993 39.1776 17.5993H44.9112C45.3394 17.5993 45.6865 17.2522 45.6865 16.8241C45.6865 16.3959 45.3394 16.0488 44.9112 16.0488Z" fill="#0B182B"/>
<path d="M44.9112 19.9609H39.1776C38.7495 19.9609 38.4023 20.3081 38.4023 20.7362C38.4023 21.1643 38.7495 21.5115 39.1776 21.5115H44.9112C45.3394 21.5115 45.6865 21.1643 45.6865 20.7362C45.6865 20.3081 45.3394 19.9609 44.9112 19.9609Z" fill="#0B182B"/>
<path d="M10.6055 28.9326C11.5071 30.1329 13.4216 29.4972 13.4216 27.9946V1.74433C13.4216 0.781072 12.6386 0 11.6773 0H1.74433C0.781072 0 0 0.781072 0 1.74433V24.4206C0 25.3819 0.781072 26.1649 1.74433 26.1649H8.52977L10.6055 28.9326ZM1.55052 24.4206V1.74433C1.55052 1.63579 1.63773 1.55052 1.74433 1.55052H11.6773C11.7839 1.55052 11.8711 1.63579 11.8711 1.74433L11.8731 28.0004C11.8692 28.0062 11.8537 28.0101 11.8459 28.0023L9.53954 24.9245C9.39225 24.7288 9.16161 24.6144 8.9174 24.6144H1.74433C1.63773 24.6144 1.55052 24.5272 1.55052 24.4206Z" fill="#0B182B"/>
<path d="M3.84166 5.86106H9.57527C10.0034 5.86106 10.3505 5.51394 10.3505 5.0858C10.3505 4.65767 10.0034 4.31055 9.57527 4.31055H3.84166C3.41353 4.31055 3.06641 4.65767 3.06641 5.0858C3.06641 5.51394 3.41353 5.86106 3.84166 5.86106Z" fill="#0B182B"/>
<path d="M3.84166 9.77512H9.57527C10.0034 9.77512 10.3505 9.428 10.3505 8.99987C10.3505 8.57173 10.0034 8.22461 9.57527 8.22461H3.84166C3.41353 8.22461 3.06641 8.57173 3.06641 8.99987C3.06641 9.428 3.41353 9.77512 3.84166 9.77512Z" fill="#0B182B"/>
<path d="M3.84166 13.6872H9.57527C10.0034 13.6872 10.3505 13.3401 10.3505 12.912C10.3505 12.4838 10.0034 12.1367 9.57527 12.1367H3.84166C3.41353 12.1367 3.06641 12.4838 3.06641 12.912C3.06641 13.3401 3.41353 13.6872 3.84166 13.6872Z" fill="#0B182B"/>
<path d="M3.84166 17.5993H9.57527C10.0034 17.5993 10.3505 17.2522 10.3505 16.8241C10.3505 16.3959 10.0034 16.0488 9.57527 16.0488H3.84166C3.41353 16.0488 3.06641 16.3959 3.06641 16.8241C3.06641 17.2522 3.41353 17.5993 3.84166 17.5993Z" fill="#0B182B"/>
<path d="M10.3505 20.7362C10.3505 20.3081 10.0034 19.9609 9.57527 19.9609H3.84166C3.41353 19.9609 3.06641 20.3081 3.06641 20.7362C3.06641 21.1643 3.41353 21.5115 3.84166 21.5115H9.57527C10.0034 21.5115 10.3505 21.1643 10.3505 20.7362Z" fill="#0B182B"/>
</svg>
