<svg width="12" height="16" viewBox="0 0 12 16" fill="none" xmlns="http://www.w3.org/2000/svg">
<path d="M11.9356 3.64963C11.9347 3.64116 11.9332 3.63294 11.9318 3.62466C11.9313 3.62173 11.9311 3.61873 11.9305 3.61582C11.9285 3.60585 11.9259 3.59607 11.9231 3.58641C11.9227 3.58523 11.9225 3.58401 11.9221 3.58285C11.9191 3.57301 11.9156 3.56348 11.9118 3.55404C11.9114 3.55294 11.9111 3.55185 11.9106 3.55079C11.907 3.54188 11.9028 3.53332 11.8984 3.52482C11.8975 3.52319 11.8968 3.52151 11.896 3.51991C11.8919 3.51229 11.8873 3.50498 11.8827 3.49769C11.8812 3.49532 11.8799 3.49285 11.8784 3.49054C11.8741 3.48404 11.8692 3.47788 11.8645 3.47169C11.8623 3.46885 11.8603 3.46585 11.858 3.46307C11.8527 3.45669 11.8471 3.45069 11.8414 3.44473C11.8393 3.44251 11.8374 3.4401 11.8352 3.43788L8.49945 0.102125C8.49727 0.0999377 8.49486 0.0980939 8.49261 0.0959689C8.48661 0.0902814 8.48064 0.0845939 8.47427 0.0793439C8.47149 0.0770314 8.46849 0.0750939 8.46564 0.0729064C8.45946 0.0681251 8.4533 0.0633126 8.4468 0.0589689C8.44445 0.0574064 8.44199 0.0561251 8.43964 0.0546251C8.43236 0.0500001 8.42508 0.0454063 8.41742 0.0413438C8.41583 0.0404688 8.41411 0.0398126 8.41252 0.0389688C8.40405 0.0345626 8.39542 0.0304063 8.38655 0.0266876C8.38546 0.0262501 8.38436 0.0259063 8.3833 0.0255001C8.37389 0.0216875 8.3643 0.0181875 8.35449 0.0151875C8.3533 0.0148438 8.35211 0.014625 8.35092 0.0142813C8.34127 0.0114688 8.33152 0.00887502 8.32152 0.00687501C8.31858 0.00628126 8.31558 0.00603126 8.31267 0.00550001C8.30442 0.00406251 8.29614 0.00259376 8.28771 0.00178125C8.27627 0.000593751 8.26464 0 8.25295 0H0.920564C0.41297 0 0 0.41297 0 0.920564V15.0794C0 15.587 0.41297 16 0.920564 16H11.0167C11.5243 16 11.9373 15.587 11.9373 15.0794V3.68444C11.9373 3.67276 11.9367 3.66116 11.9356 3.64963ZM8.60155 1.1905L10.7468 3.33579H8.82477C8.70167 3.33579 8.60155 3.23563 8.60155 3.1126V1.1905ZM11.24 15.0795C11.24 15.2026 11.1398 15.3027 11.0168 15.3027H0.920564C0.79747 15.3027 0.697345 15.2026 0.697345 15.0795V0.920564C0.697345 0.79747 0.79747 0.697345 0.920564 0.697345H7.90417V3.11257C7.90417 3.62016 8.31714 4.0331 8.82474 4.0331H11.2399V15.0795H11.24Z" fill="#0F2846"/>
<path d="M9.99438 5.96289H6.59088C6.39834 5.96289 6.24219 6.11902 6.24219 6.31158C6.24219 6.50414 6.39831 6.66027 6.59088 6.66027H9.99438C10.1869 6.66027 10.3431 6.50417 10.3431 6.31158C10.3431 6.11905 10.1869 5.96289 9.99438 5.96289Z" fill="#0F2846"/>
<path d="M8.01369 7.66211H6.59088C6.39834 7.66211 6.24219 7.81823 6.24219 8.0108C6.24219 8.20333 6.39828 8.35949 6.59088 8.35949H8.01369C8.20622 8.35949 8.36238 8.20339 8.36238 8.0108C8.36235 7.81823 8.20622 7.66211 8.01369 7.66211Z" fill="#0F2846"/>
<path d="M4.63245 6.46538C4.49632 6.32922 4.27551 6.32925 4.13935 6.46547L3.48935 7.11581L3.13829 6.76456C3.00216 6.62838 2.78141 6.62825 2.64519 6.76438C2.50897 6.90047 2.50888 7.12125 2.645 7.25747L3.24263 7.85553C3.30801 7.92097 3.39676 7.95775 3.48922 7.95775C3.48926 7.95775 3.48926 7.95775 3.48926 7.95775C3.58172 7.95775 3.67047 7.92097 3.73585 7.85557L4.63254 6.95844C4.7687 6.82228 4.76866 6.60153 4.63245 6.46538Z" fill="#0F2846"/>
<path d="M5.34007 5.11328H1.94244C1.74991 5.11328 1.59375 5.26941 1.59375 5.46197V8.8596C1.59375 9.05216 1.74988 9.20829 1.94244 9.20829H5.34007C5.5326 9.20829 5.68876 9.05216 5.68876 8.8596V5.46197C5.68873 5.26938 5.53263 5.11328 5.34007 5.11328ZM4.99138 8.51091H2.29113V5.81066H4.99138V8.51091Z" fill="#0F2846"/>
<path d="M9.99438 11.1602H6.59088C6.39834 11.1602 6.24219 11.3163 6.24219 11.5088C6.24219 11.7014 6.39831 11.8575 6.59088 11.8575H9.99438C10.1869 11.8575 10.3431 11.7014 10.3431 11.5088C10.3431 11.3163 10.1869 11.1602 9.99438 11.1602Z" fill="#0F2846"/>
<path d="M8.01366 12.8574H6.59088C6.39834 12.8574 6.24219 13.0135 6.24219 13.2061C6.24219 13.3986 6.39831 13.5548 6.59088 13.5548H8.01369C8.20622 13.5548 8.36238 13.3987 8.36238 13.2061C8.36232 13.0135 8.20622 12.8574 8.01366 12.8574Z" fill="#0F2846"/>
<path d="M5.34007 10.3105H1.94244C1.74991 10.3105 1.59375 10.4666 1.59375 10.6592V14.0569C1.59375 14.2494 1.74988 14.4056 1.94244 14.4056H5.34007C5.5326 14.4056 5.68876 14.2494 5.68876 14.0569V10.6592C5.68873 10.4666 5.53263 10.3105 5.34007 10.3105ZM4.99138 13.7082H2.29113V11.0079H4.99138V13.7082Z" fill="#0F2846"/>
</svg>
