<svg width="18" height="16" viewBox="0 0 18 16" fill="none" xmlns="http://www.w3.org/2000/svg">
<path d="M17 8L17.3904 8.31235L17.6403 8L17.3904 7.68765L17 8ZM9.8 7.5C9.52386 7.5 9.3 7.72386 9.3 8C9.3 8.27614 9.52386 8.5 9.8 8.5L9.8 7.5ZM14.1904 12.3123L17.3904 8.31235L16.6096 7.68765L13.4096 11.6877L14.1904 12.3123ZM17.3904 7.68765L14.1904 3.68765L13.4096 4.31235L16.6096 8.31235L17.3904 7.68765ZM17 7.5L9.8 7.5L9.8 8.5L17 8.5L17 7.5Z" fill="#0F2846"/>
<path d="M9.99079 1.85549L10.3381 1.4958L9.99079 1.85549ZM10.2491 2.16046L10.661 1.87701L10.2491 2.16046ZM1.79729 1.5064L1.42991 1.16723L1.79729 1.5064ZM2.35665 1.03254L2.6308 1.45068L2.35665 1.03254ZM2.35665 14.9675L2.6308 14.5493L2.35665 14.9675ZM1.79728 14.4936L1.42991 14.8328L1.79728 14.4936ZM9.9921 14.1433L10.3397 14.5026L9.9921 14.1433ZM10.2481 13.841L10.6597 14.1249L10.2481 13.841ZM1.50156 9.417L1.50156 6.583L0.501563 6.583L0.501563 9.417L1.50156 9.417ZM10.1016 11.0945L10.1016 11.2506L11.1016 11.2506L11.1016 11.0945L10.1016 11.0945ZM7.41426 1.57568C8.10738 1.6912 8.58804 1.77199 8.95327 1.87394C9.30821 1.97301 9.50262 2.07916 9.64348 2.21518L10.3381 1.4958C10.0317 1.19999 9.66136 1.03337 9.22213 0.910759C8.79318 0.791024 8.25028 0.701222 7.57866 0.589286L7.41426 1.57568ZM11.1016 4.74723C11.1016 4.06658 11.1022 3.51647 11.0546 3.07379C11.0059 2.62046 10.9024 2.2278 10.661 1.87701L9.83725 2.44391C9.94827 2.60524 10.021 2.81442 10.0604 3.18067C10.1009 3.55757 10.1016 4.04478 10.1016 4.74723L11.1016 4.74723ZM9.64348 2.21518C9.71555 2.28476 9.78046 2.36139 9.83725 2.44391L10.661 1.87701C10.5664 1.73948 10.4582 1.61177 10.3381 1.4958L9.64348 2.21518ZM1.50156 6.583C1.50156 5.16514 1.50245 4.14777 1.5973 3.37517C1.69097 2.61223 1.86869 2.16616 2.16467 1.84556L1.42991 1.16723C0.930163 1.70855 0.71002 2.39589 0.604755 3.25332C0.500674 4.1011 0.501563 5.19108 0.501563 6.583L1.50156 6.583ZM7.57866 0.589286C6.20518 0.360372 5.12983 0.180246 4.27624 0.143494C3.41296 0.106325 2.69864 0.210435 2.0825 0.614406L2.6308 1.45068C2.99567 1.21146 3.46498 1.10949 4.23322 1.14257C5.01116 1.17606 6.0152 1.3425 7.41426 1.57568L7.57866 0.589286ZM2.16467 1.84556C2.30332 1.69537 2.45986 1.56276 2.6308 1.45068L2.0825 0.614406C1.84318 0.77131 1.62402 0.956971 1.42991 1.16723L2.16467 1.84556ZM7.4128 14.4246C6.01422 14.6577 5.01055 14.824 4.23288 14.8575C3.46492 14.8905 2.9957 14.7886 2.6308 14.5493L2.0825 15.3856C2.69861 15.7895 3.41278 15.8937 4.27585 15.8566C5.12921 15.8199 6.20421 15.6398 7.5772 15.411L7.4128 14.4246ZM0.501563 9.417C0.501563 10.8089 0.500674 11.8989 0.604754 12.7467C0.710019 13.6041 0.930162 14.2914 1.42991 14.8328L2.16466 14.1544C1.86868 13.8338 1.69097 13.3878 1.5973 12.6248C1.50245 11.8522 1.50156 10.8349 1.50156 9.417L0.501563 9.417ZM2.6308 14.5493C2.45986 14.4372 2.30332 14.3046 2.16466 14.1544L1.42991 14.8328C1.62402 15.043 1.84318 15.2287 2.0825 15.3856L2.6308 14.5493ZM7.5772 15.411C8.24961 15.2989 8.79318 15.209 9.22263 15.089C9.66241 14.9662 10.0332 14.7992 10.3397 14.5026L9.64446 13.7839C9.50346 13.9203 9.30888 14.0266 8.95359 14.1259C8.58796 14.228 8.10675 14.3089 7.4128 14.4246L7.5772 15.411ZM10.1016 11.2506C10.1016 11.9541 10.1009 12.4421 10.0603 12.8195C10.0208 13.1863 9.94783 13.3957 9.83647 13.5572L10.6597 14.1249C10.9018 13.7737 11.0056 13.3805 11.0545 12.9266C11.1022 12.4832 11.1016 11.9323 11.1016 11.2506L10.1016 11.2506ZM10.3397 14.5026C10.4586 14.3876 10.5658 14.2611 10.6597 14.1249L9.83647 13.5572C9.78013 13.6389 9.71581 13.7149 9.64446 13.7839L10.3397 14.5026Z" fill="#0F2846"/>
</svg>
