<svg width="48" height="48" viewBox="0 0 48 48" fill="none" xmlns="http://www.w3.org/2000/svg">
<path d="M0.78125 0.78125H46.85V33.7904H0.78125V0.78125Z" fill="#83909E"/>
<path d="M43.1367 4.49414V30.0783H4.49276V4.49414H43.1367Z" fill="white"/>
<path d="M4.49219 4.49414H7.42302V30.0783H4.49219V4.49414Z" fill="white"/>
<path d="M40.207 4.49414H43.1379V30.0783H40.207V4.49414Z" fill="#E9ECEE"/>
<path d="M0.78125 0.78125H3.71208V33.7902H0.78125V0.78125Z" fill="#8F9CAA"/>
<path d="M43.9219 0.78125H46.8527V33.7902H43.9219V0.78125Z" fill="#5B6B82"/>
<path d="M31.5119 47.2166L23.8145 42.895L16.1172 47.2166V33.6641H31.5119V47.2166Z" fill="#8F9CAA"/>
<path d="M18.3927 33.666V45.9411L16.1172 47.2186V33.666H18.3927Z" fill="#5B6B82"/>
<path d="M31.5138 33.666V47.2186L29.2383 45.9411V33.666H31.5138Z" fill="#5B6B82"/>
<path d="M34.6264 32.0944C34.6264 30.942 33.8419 29.9757 32.7786 29.6927C33.558 28.9161 33.754 27.6869 33.178 26.6888C32.6018 25.691 31.4392 25.2461 30.3769 25.5327C30.6635 24.4706 30.2186 23.3078 29.2208 22.7316C28.2229 22.1554 26.9935 22.3516 26.2169 23.131C25.9339 22.0677 24.9674 21.2832 23.8151 21.2832C22.6627 21.2832 21.6964 22.0677 21.4134 23.131C20.6368 22.3516 19.4076 22.1556 18.4095 22.7316C17.4117 23.3078 16.9668 24.4704 17.2534 25.5327C16.1911 25.2461 15.0285 25.691 14.4523 26.6888C13.8761 27.6867 14.0723 28.9161 14.8517 29.6927C13.7884 29.9757 13.0039 30.9422 13.0039 32.0944C13.0039 33.2469 13.7884 34.2132 14.8517 34.4962C14.0723 35.2728 13.8763 36.502 14.4523 37.5001C15.0285 38.4979 16.1911 38.9428 17.2534 38.6562C16.9668 39.7185 17.4117 40.8811 18.4095 41.4573C19.4074 42.0335 20.6368 41.8373 21.4134 41.0579C21.6964 42.1212 22.6629 42.9057 23.8151 42.9057C24.9675 42.9057 25.9339 42.1212 26.2169 41.0579C26.9935 41.8373 28.2227 42.0333 29.2208 41.4573C30.2186 40.8811 30.6635 39.7185 30.3769 38.6562C31.4392 38.9428 32.6018 38.4979 33.178 37.5001C33.7542 36.5022 33.558 35.2728 32.7786 34.4962C33.8419 34.2134 34.6264 33.2469 34.6264 32.0944Z" fill="white"/>
<path d="M19.06 25.5323C17.998 25.2457 16.8351 25.6911 16.2583 26.688C15.6829 27.6861 15.879 28.9154 16.6581 29.6919C15.595 29.9748 14.8099 30.9416 14.8099 32.0938C14.8099 33.246 15.595 34.2128 16.6581 34.4957C15.879 35.2722 15.6829 36.5016 16.2583 37.4996C16.8351 38.4977 17.998 38.942 19.06 38.6554C18.7733 39.7185 19.2177 40.8803 20.2157 41.457C20.3253 41.5209 20.4384 41.5739 20.5527 41.6184C19.8749 41.8834 19.0887 41.8484 18.4097 41.457C17.4117 40.8803 16.9674 39.7185 17.254 38.6554C16.1921 38.942 15.0291 38.4977 14.4523 37.4996C13.8769 36.5016 14.0731 35.2722 14.8521 34.4957C13.789 34.2128 13.0039 33.246 13.0039 32.0938C13.0039 30.9416 13.789 29.9748 14.8521 29.6919C14.0731 28.9154 13.8769 27.6861 14.4523 26.688C15.0291 25.6911 16.1921 25.2457 17.254 25.5323C16.9674 24.4703 17.4117 23.3074 18.4097 22.7318C19.0887 22.3392 19.8749 22.3045 20.5527 22.5692C20.4384 22.6138 20.3251 22.6679 20.2157 22.7318C19.2178 23.3074 18.7735 24.4703 19.06 25.5323Z" fill="white"/>
<path d="M23.8174 21.2832C24.1365 21.2832 24.4411 21.3434 24.7203 21.453C23.9882 21.7383 23.426 22.3619 23.2213 23.1302C22.8168 22.7244 22.2895 22.4764 21.7344 22.4139C22.1775 21.7336 22.9446 21.2832 23.8174 21.2832Z" fill="white"/>
<path d="M25.8961 22.4139C25.341 22.4764 24.8136 22.7246 24.4092 23.1302C24.2044 22.3621 23.6423 21.7385 22.9102 21.453C23.1896 21.3434 23.4942 21.2832 23.813 21.2832C24.686 21.2834 25.4531 21.7338 25.8961 22.4139Z" fill="#E9ECEE"/>
<path d="M32.7788 34.4958C33.5578 35.2723 33.754 36.5017 33.1785 37.4997C32.6018 38.4978 31.4388 38.9421 30.3769 38.6555C30.6635 39.7186 30.2192 40.8803 29.2211 41.4571C28.5422 41.8485 27.7559 41.8833 27.0781 41.6185C27.1924 41.574 27.3058 41.521 27.4152 41.4571C28.4132 40.8803 28.8575 39.7186 28.5709 38.6555C29.6328 38.9421 30.7958 38.4978 31.3726 37.4997C31.948 36.5017 31.7518 35.2723 30.9728 34.4958C32.0359 34.2129 32.821 33.2461 32.821 32.0939C32.821 30.9417 32.0359 29.9749 30.9728 29.692C31.7518 28.9155 31.948 27.6861 31.3726 26.6881C30.7958 25.6912 29.6328 25.2457 28.5709 25.5324C28.8575 24.4704 28.4132 23.3075 27.4152 22.7319C27.3056 22.668 27.1924 22.6138 27.0781 22.5693C27.7559 22.3044 28.5422 22.3393 29.2211 22.7319C30.2192 23.3073 30.6635 24.4704 30.3769 25.5324C31.4388 25.2457 32.6018 25.6912 33.1785 26.6881C33.754 27.6861 33.5578 28.9155 32.7788 29.692C33.8419 29.9749 34.627 30.9417 34.627 32.0939C34.627 33.2461 33.8421 34.2129 32.7788 34.4958Z" fill="#E9ECEE"/>
<path d="M27.5508 25.0681C26.4528 24.4818 25.2017 24.1471 23.8721 24.1379C23.8527 24.1367 23.8324 24.1367 23.8131 24.1367C23.7937 24.1367 23.7734 24.1367 23.7541 24.1379C22.4246 24.1469 21.1734 24.4816 20.0753 25.0681C17.5649 26.4056 15.8555 29.0507 15.8555 32.0943C15.8555 36.4888 19.4184 40.0517 23.8129 40.0517C28.2074 40.0517 31.7703 36.4888 31.7703 32.0943C31.7707 29.0507 30.0612 26.4054 27.5508 25.0681Z" fill="#A57F6A"/>
<path d="M24.6675 40.0064C24.3885 40.0371 24.1038 40.0517 23.8168 40.0517C19.4223 40.0517 15.8594 36.4888 15.8594 32.0943C15.8594 29.0509 17.5688 26.4056 20.0792 25.0681C21.1773 24.4818 22.4283 24.1471 23.758 24.1379C23.7773 24.1367 23.7976 24.1367 23.817 24.1367C23.8363 24.1367 23.8566 24.1367 23.876 24.1379C24.1437 24.1402 24.4068 24.1549 24.6677 24.1822C23.6331 24.2922 22.6575 24.5996 21.7808 25.0681C19.2705 26.4056 17.561 29.0509 17.561 32.0943C17.5608 36.2018 20.6724 39.582 24.6675 40.0064Z" fill="#C3A695"/>
<path d="M31.773 32.0943C31.773 36.4888 28.21 40.0517 23.8156 40.0517C23.5285 40.0517 23.2439 40.037 22.9648 40.0064C26.96 39.5822 30.0715 36.2018 30.0715 32.0943C30.0715 29.0509 28.3621 26.4056 25.8517 25.0681C24.9748 24.5996 23.9992 24.2922 22.9648 24.1822C23.2257 24.1551 23.4889 24.1402 23.7566 24.1379C23.7759 24.1367 23.7962 24.1367 23.8156 24.1367C23.8349 24.1367 23.8552 24.1367 23.8746 24.1379C25.204 24.1469 26.4553 24.4816 27.5533 25.0681C30.0635 26.4056 31.773 29.0509 31.773 32.0943Z" fill="#C2A696"/>
<path d="M46.8503 0H0.781554C0.349745 0 0 0.349746 0 0.781554V33.7905C0 34.2223 0.349745 34.5721 0.781554 34.5721H13.3626C13.4623 34.658 13.5678 34.7381 13.6772 34.8124C12.8441 36.5029 13.6082 38.5414 15.3361 39.2653V47.2176C15.3361 47.8108 15.9761 48.1914 16.5006 47.8995L23.8159 43.7924L31.1313 47.8995C31.6377 48.1863 32.2938 47.8282 32.2938 47.2176V39.2653C34.017 38.5457 34.7917 36.5105 33.9546 34.8124C34.064 34.7381 34.1696 34.658 34.2692 34.5721H46.8503C47.2821 34.5721 47.6318 34.2223 47.6318 33.7905V0.781554C47.6318 0.349746 47.2821 0 46.8503 0ZM15.0527 30.4494C15.1231 30.4318 15.1876 30.4025 15.2481 30.3692C15.0189 31.4877 15.0187 32.7073 15.2481 33.8218C15.1876 33.7885 15.1231 33.7592 15.0527 33.7417C13.3915 33.3054 13.3532 30.9064 15.0527 30.4494ZM32.5791 33.7417C32.5088 33.7592 32.4443 33.7885 32.3837 33.8218C32.6192 32.6778 32.6064 31.4566 32.3837 30.3692C32.4443 30.4025 32.5088 30.4318 32.5791 30.4494C34.2829 30.9075 34.2335 33.3071 32.5791 33.7417ZM29.6229 38.8608C30.0773 40.5416 28.0027 41.7405 26.7702 40.508C26.7194 40.4552 26.6627 40.4122 26.6022 40.379C27.7178 40.0019 28.7319 39.4079 29.5955 38.644C29.5955 38.7162 29.6033 38.7885 29.6229 38.8608ZM25.463 40.8577C25.0156 42.5371 22.6086 42.5084 22.1688 40.8577C22.1512 40.7874 22.1239 40.7229 22.0867 40.6623C23.2167 40.8915 24.4132 40.8919 25.5451 40.6623C25.508 40.7229 25.4806 40.7874 25.463 40.8577ZM18.009 38.8608C18.0285 38.7885 18.0363 38.7162 18.0363 38.644C18.8999 39.4079 19.914 40.0019 21.0297 40.379C20.9671 40.4122 20.9105 40.4572 20.8597 40.508C19.6364 41.7401 17.5537 40.5447 18.009 38.8608ZM23.8159 39.2712C19.9447 39.2712 16.6393 36.1406 16.6393 32.0945C16.6393 28.1881 19.7792 24.9531 23.7632 24.9199C27.9244 24.9199 30.9925 28.2561 30.9925 32.0945C30.9925 36.0601 27.7677 39.2712 23.8159 39.2712ZM15.4044 29.1403C14.1737 27.9138 15.3632 25.8368 17.0516 26.2876C17.1199 26.3071 17.1903 26.3149 17.2587 26.3149C16.4928 27.1844 15.9046 28.1965 15.5353 29.2966C15.5352 29.2966 15.4427 29.1785 15.4044 29.1403ZM18.009 25.3302C17.5539 23.6467 19.6362 22.4505 20.8597 23.6831C20.9124 23.7358 20.9691 23.7788 21.0316 23.812C19.9615 24.1657 18.9248 24.754 18.0363 25.5392C18.0363 25.4689 18.0266 25.3986 18.009 25.3302ZM32.2274 29.1403C32.1891 29.1785 32.0967 29.2966 32.0965 29.2966C31.7252 28.1965 31.1391 27.1825 30.3712 26.3149C30.4415 26.3149 30.5119 26.3071 30.5803 26.2876C32.2581 25.8339 33.4646 27.9075 32.2274 29.1403ZM29.6229 25.3302C29.6053 25.3986 29.5955 25.4689 29.5955 25.5392C28.7329 24.7804 27.7106 24.1831 26.6022 23.812C26.6627 23.7768 26.7194 23.7339 26.7702 23.6831C28.0017 22.4515 30.0777 23.6477 29.6229 25.3302ZM22.0848 23.5306C22.1219 23.4701 22.1512 23.4036 22.1688 23.3333C22.6184 21.6494 25.0131 21.6485 25.463 23.3333C25.4806 23.4036 25.5099 23.4701 25.5471 23.5306C24.4173 23.2981 23.2169 23.2977 22.0848 23.5306ZM33.9918 29.2966C34.9509 27.2139 33.5218 24.8243 31.2387 24.6737C31.0854 22.346 28.6229 20.9294 26.5318 21.9558C25.2358 20.0203 22.3968 20.0191 21.1 21.9558C19.006 20.9281 16.5463 22.3493 16.3931 24.6737C14.1045 24.8245 12.6829 27.2184 13.6401 29.2966H5.27549V5.27549H42.3563V29.2966H33.9918ZM15.4044 35.0508C15.4552 35 15.4982 34.9433 15.5334 34.8808C15.9099 36.0056 16.5285 37.0465 17.2684 37.8761C17.1961 37.8741 17.1239 37.8839 17.0516 37.9034C15.3716 38.3561 14.1706 36.2833 15.4044 35.0508ZM16.8992 45.8831V41.059C17.7864 42.4658 19.6002 42.9714 21.1 42.2352C21.3188 42.5615 21.5924 42.8448 21.9089 43.0715L16.8992 45.8831ZM30.7307 45.8831L25.7229 43.0715C26.0394 42.8448 26.313 42.5615 26.5318 42.2352C28.0213 42.9663 29.8358 42.4755 30.7307 41.0629V45.8831ZM30.5803 37.9034C30.508 37.8839 30.4357 37.8741 30.3634 37.8761C31.0715 37.093 31.7088 36.04 32.0984 34.8808C32.1336 34.9433 32.1766 35 32.2274 35.0508C33.4671 36.2893 32.2532 38.3542 30.5803 37.9034ZM46.0687 33.0089H35.2755C35.4779 32.3388 35.4554 31.5685 35.166 30.8597H43.1379C43.5697 30.8597 43.9194 30.5099 43.9194 30.0781V4.49394C43.9194 4.06213 43.5697 3.71238 43.1379 3.71238H4.49394C4.06213 3.71238 3.71238 4.06213 3.71238 4.49394V30.0781C3.71238 30.5099 4.06213 30.8597 4.49394 30.8597H12.4658C12.1766 31.568 12.1538 32.3382 12.3564 33.0089H1.56311V1.56311H46.0687V33.0089Z" fill="#0B182B"/>
<path d="M29.4515 30.8597C29.6938 30.6721 29.8129 30.3517 29.727 30.0371C29.3905 28.8095 28.7657 27.7614 28.16 27.1239C27.8552 26.821 27.3647 26.821 27.0599 27.1219C26.7532 27.4248 26.7512 27.9191 27.0521 28.2259C27.2475 28.4209 27.8915 29.2444 28.2186 30.4474C28.3721 31.0039 29.0363 31.1919 29.4515 30.8597Z" fill="#0B182B"/>
<path d="M29.2486 32.3764C28.8981 32.3235 28.4966 32.493 28.3616 33.0329L28.342 33.1521C28.2737 33.578 28.5628 33.9786 28.9888 34.047C29.3837 34.1189 29.8127 33.8494 29.8856 33.4002L29.9071 33.2635C29.9741 32.8324 29.6719 32.4379 29.2486 32.3764Z" fill="#0B182B"/>
<path d="M37.2322 13.4336H10.3987C9.96713 13.4336 9.61719 13.7835 9.61719 14.2151C9.61719 14.6468 9.96713 14.9967 10.3987 14.9967H37.232C37.6637 14.9967 38.0136 14.6468 38.0136 14.2151C38.0136 13.7835 37.6639 13.4336 37.2322 13.4336Z" fill="#0B182B"/>
<path d="M14.3401 10.5358H33.2924C33.7241 10.5358 34.074 10.1858 34.074 9.75421C34.074 9.3226 33.7241 8.97266 33.2924 8.97266H14.3401C13.9085 8.97266 13.5586 9.3226 13.5586 9.75421C13.5586 10.1858 13.9085 10.5358 14.3401 10.5358Z" fill="#0B182B"/>
<path d="M37.2322 17.8945H10.3987C9.96713 17.8945 9.61719 18.2445 9.61719 18.6761C9.61719 19.1077 9.96713 19.4576 10.3987 19.4576H37.232C37.6637 19.4576 38.0136 19.1077 38.0136 18.6761C38.0136 18.2445 37.6639 17.8945 37.2322 17.8945Z" fill="#0B182B"/>
</svg>
