<svg width="52" height="48" viewBox="0 0 52 48" fill="none" xmlns="http://www.w3.org/2000/svg">
<path d="M14.9419 45.5326C17.2876 47.1626 20.5223 47.4659 23.4223 46.9906C25.2536 46.6906 26.2285 44.7224 25.3302 43.1457L21.5545 36.5176C21.0311 35.599 20.0218 35.0491 18.9401 35.0751C18.0719 35.0961 17.2416 34.9768 16.4581 34.7178C14.0756 33.9306 10.4391 30.7873 9.46669 27.2236C8.91918 25.2174 7.44897 22.1576 9.86707 16.9092C10.4953 15.5457 11.5599 14.4589 12.9827 13.715C13.8134 13.2807 14.3337 12.4399 14.3909 11.5259L14.892 3.53912C15.004 1.75344 13.2445 0.395758 11.4827 0.923892C9.77571 1.43567 7.902 2.35284 6.42638 3.41537C5.1832 4.31033 4.23885 5.53759 3.69509 6.96472C3.69509 6.96452 -7.68848 29.8075 14.9419 45.5326Z" fill="#A57F6A"/>
<path d="M23.4245 46.9905C22.1218 47.2045 20.7525 47.261 19.4269 47.1096C19.7224 47.0773 20.0137 47.0389 20.303 46.9905C22.1343 46.6897 23.1082 44.7233 22.2113 43.1466L18.4343 36.5166C17.912 35.5981 16.9027 35.0489 15.8206 35.0752C14.9528 35.0954 14.1225 34.9762 13.338 34.7178C10.9552 33.9305 7.31978 30.7871 6.34796 27.2238C5.80067 25.2171 4.32941 22.1585 6.74751 16.9095C7.37597 15.5447 8.44143 14.4586 9.86273 13.7156C10.6951 13.2816 11.2154 12.4397 11.2716 11.5252L11.7731 3.53857C11.8355 2.56144 11.334 1.7115 10.5786 1.22899C10.8845 1.11594 11.1883 1.01297 11.4859 0.924144C13.2464 0.395203 15.0069 1.7539 14.8945 3.53857L14.393 11.5252C14.3368 12.4397 13.8166 13.2816 12.9842 13.7156C11.5629 14.4586 10.4974 15.5447 9.86898 16.9095C7.45088 22.1585 8.92213 25.2171 9.46943 27.2238C10.4412 30.7871 14.0767 33.9305 16.4594 34.7178C17.244 34.9762 18.0743 35.0954 18.942 35.0752C20.0242 35.0489 21.0334 35.5981 21.5558 36.5166L25.3327 43.1466C26.2296 44.7233 25.2557 46.6897 23.4245 46.9905Z" fill="#946E5F"/>
<path d="M22.5463 47.1093C19.8868 47.3919 17.0546 47.0003 14.9424 45.5325C-7.6882 29.8077 3.69475 6.96426 3.69475 6.96426C4.23997 5.53693 5.18265 4.30946 6.42708 3.41511C7.90249 2.35319 9.77537 1.43461 11.4839 0.923837C12.2788 0.685612 13.0758 0.83097 13.698 1.22868C12.2538 1.75964 10.7659 2.53892 9.54854 3.41511C8.30412 4.30946 7.36144 5.53693 6.81622 6.96426C6.81622 6.96426 -4.56673 29.8077 18.0639 45.5325C19.3562 46.4309 20.919 46.9256 22.5463 47.1093Z" fill="#C3A695"/>
<path d="M36.9674 2.19922C29.5389 2.19922 23.517 8.0414 23.517 15.2481C23.517 17.2993 24.0054 19.2396 24.8746 20.9663C24.2301 23.4964 22.9474 26.7807 20.4508 28.5748C19.9664 28.9229 20.1672 29.6646 20.767 29.7229C23.3338 29.9723 28.0262 29.9579 32.0146 27.3835C33.5475 27.9728 35.2183 28.2968 36.9674 28.2968C44.3958 28.2968 50.4178 22.4546 50.4178 15.2479C50.4178 8.04119 44.3958 2.19922 36.9674 2.19922Z" fill="#E9ECEE"/>
<path d="M47.5516 15.2493C47.5516 21.9866 42.2888 27.5298 35.5352 28.2233C36.0052 28.2733 36.4849 28.2974 36.9683 28.2974C44.3964 28.2974 50.4179 22.4556 50.4179 15.2493C50.4179 8.04294 44.3964 2.20117 36.9683 2.20117C36.4849 2.20117 36.0071 2.2252 35.5352 2.27526C42.2886 2.96874 47.5516 8.51213 47.5516 15.2493Z" fill="#AFBAC5"/>
<path d="M26.6419 15.2481C26.6419 17.3003 27.1318 19.2412 28.0008 20.9678C27.3547 23.497 26.073 26.7805 23.5764 28.576C23.093 28.9239 23.293 29.6658 23.8932 29.7244C24.0619 29.7405 24.239 29.7567 24.4246 29.7688C23.0033 29.8739 21.7342 29.8172 20.7671 29.7244C20.167 29.6658 19.9668 28.9237 20.4504 28.576C22.9472 26.7807 24.2288 23.4972 24.8748 20.9678C24.0057 19.2412 23.5159 17.3001 23.5159 15.2481C23.5159 8.0422 29.5389 2.19922 36.9663 2.19922C37.4957 2.19922 38.0166 2.2295 38.5293 2.28825C31.8375 3.03826 26.6419 8.5558 26.6419 15.2481Z" fill="white"/>
<path d="M22.2832 36.1265C21.6108 34.9458 20.3188 34.2302 18.9197 34.2673C18.1504 34.2859 17.4135 34.1801 16.7266 33.953C14.677 33.2758 11.1991 30.4159 10.2714 27.0166C9.71846 24.9894 8.34126 22.1994 10.627 17.2382C11.1808 16.0364 12.1062 15.09 13.3776 14.4253C14.4398 13.8702 15.1465 12.7778 15.222 11.5745L15.7231 3.58751C15.8705 1.23695 13.5485 -0.541868 11.2372 0.15161C9.41255 0.698519 7.47828 1.65162 5.93066 2.76603C4.56783 3.7472 3.53025 5.08934 2.92822 6.6483C2.66123 7.19581 0.0167271 12.8101 7.93044e-05 20.3491C-0.0219791 30.3041 4.55701 39.3086 14.4577 46.1881C16.9794 47.9402 20.4399 48.2976 23.5615 47.786C25.9938 47.3873 27.2172 44.787 26.0591 42.754L22.2832 36.1265ZM23.2841 46.1939C20.2195 46.6962 17.3554 46.2155 15.427 44.8756C6.29358 38.5291 1.6632 30.2998 1.66486 20.4161C1.66611 13.2304 4.16994 8.05403 4.47626 7.24427C4.96384 5.96471 5.80996 4.86484 6.92287 4.06335C8.30485 3.06826 10.1016 2.18299 11.7289 1.69503C12.9381 1.33325 14.1385 2.26637 14.0615 3.48979L13.5604 11.4768C13.5196 12.1267 13.1471 12.7117 12.5881 13.0039C11.0082 13.8298 9.80482 15.0661 9.10727 16.5795C6.55766 22.114 8.10715 25.3972 8.66215 27.43C9.75092 31.4209 13.7335 34.6705 16.1897 35.4821C17.0631 35.771 17.997 35.9034 18.9609 35.8822C19.7432 35.8683 20.4548 36.2565 20.8259 36.9078L24.6016 43.5359C25.2249 44.6295 24.5483 45.987 23.2841 46.1939Z" fill="#0B182B"/>
<path d="M36.964 1.39648C29.0883 1.39648 22.6812 7.61235 22.6812 15.2529C22.6812 17.2807 23.1215 19.2309 23.9905 21.0547C23.3708 23.3645 22.1776 26.3314 19.9522 27.9308C18.8559 28.7183 19.3266 30.3998 20.6807 30.5315C24.6136 30.9136 28.7772 30.2981 32.1089 28.2877C33.6629 28.8332 35.2942 29.1094 36.9642 29.1094C44.8397 29.1094 51.247 22.8935 51.247 15.2529C51.247 7.61235 44.8394 1.39648 36.964 1.39648ZM36.964 27.4943C35.3595 27.4943 33.7963 27.206 32.3178 26.6377C32.0641 26.5404 31.7774 26.5694 31.5501 26.7162C27.9721 29.0258 23.75 29.1471 21.293 28.9628C23.7747 26.9718 25.0454 23.6528 25.6793 21.1652C25.7261 20.9812 25.7048 20.7872 25.6191 20.617C24.7742 18.9386 24.346 17.1337 24.346 15.2531C24.346 8.50307 30.0064 3.01177 36.964 3.01177C43.9215 3.01177 49.582 8.50307 49.582 15.2531C49.582 22.0032 43.9215 27.4943 36.964 27.4943Z" fill="#0B182B"/>
<path d="M47.6014 16.8391C47.1669 16.6939 46.6939 16.9184 46.5437 17.3396C46.5322 17.3715 45.3748 20.5552 42.6014 22.6302C42.2375 22.9025 42.1699 23.4095 42.4506 23.7626C42.7313 24.1161 43.2545 24.1811 43.618 23.9089C46.7988 21.5293 48.0659 18.012 48.1183 17.8637C48.2671 17.4419 48.0355 16.9836 47.6014 16.8391Z" fill="#0B182B"/>
<path d="M40.1092 23.9536C39.7184 24.0861 39.3128 24.1914 38.9039 24.2667C38.4523 24.3499 38.1556 24.7725 38.2413 25.2108C38.3268 25.648 38.7618 25.9369 39.2142 25.8536C39.7038 25.7635 40.1895 25.6374 40.6579 25.4787C41.0918 25.3315 41.3209 24.871 41.1695 24.4501C41.0177 24.0287 40.5435 23.8064 40.1092 23.9536Z" fill="#0B182B"/>
<path d="M41.0035 17.7898V16.7782C41.0035 14.9384 39.4605 13.4414 37.5641 13.4414H37.3537V9.99803H37.5641C38.5425 9.99803 39.3387 10.7702 39.3387 11.7195C39.3387 12.1655 39.7114 12.5271 40.1711 12.5271C40.6308 12.5271 41.0035 12.1655 41.0035 11.7195C41.0035 9.87973 39.4605 8.38295 37.5641 8.38295H37.3537V8.17864C37.3537 7.73267 36.981 7.37109 36.5213 7.37109C36.0616 7.37109 35.6889 7.73267 35.6889 8.17864V8.38295H35.4785C33.5821 8.38295 32.0391 9.87973 32.0391 11.7195C32.0391 13.5593 33.5821 15.0565 35.4785 15.0565H35.6889V19.5115H35.4785C34.5 19.5115 33.7038 18.7391 33.7038 17.7898C33.7038 17.3439 33.3311 16.9823 32.8715 16.9823C32.4118 16.9823 32.0391 17.3439 32.0391 17.7898C32.0391 19.6296 33.5821 21.1266 35.4785 21.1266H35.6889V21.3307C35.6889 21.7767 36.0616 22.1382 36.5213 22.1382C36.981 22.1382 37.3537 21.7767 37.3537 21.3307V21.1266H37.5641C39.4607 21.1266 41.0035 19.6296 41.0035 17.7898ZM35.6889 13.4414H35.4785C34.5 13.4414 33.7038 12.669 33.7038 11.7197C33.7038 10.7704 34.5 9.99824 35.4785 9.99824H35.6889V13.4414ZM39.3387 17.7898C39.3387 18.7391 38.5425 19.5115 37.5641 19.5115H37.3537V15.0565H37.5641C38.5425 15.0565 39.3387 15.8289 39.3387 16.7782V17.7898Z" fill="#0B182B"/>
</svg>
