<svg width="16" height="15" viewBox="0 0 16 15" fill="none" xmlns="http://www.w3.org/2000/svg">
<path d="M16 8C16 5.86312 15.1678 3.85416 13.6569 2.34312C12.1459 0.832094 10.1369 0 8 0C5.86312 0 3.85413 0.832156 2.34313 2.34316C0.832125 3.85416 0 5.86312 0 8V8.50172C0 8.50188 3.125e-05 8.50203 3.125e-05 8.50219C3.125e-05 8.50234 0 8.50247 0 8.50263L0.00809375 12.9538C0.0083125 13.0658 0.046125 13.1745 0.1155 13.2624C0.653062 13.9441 1.42391 14.3756 2.28603 14.4774C2.41578 14.4928 2.54516 14.5003 2.67384 14.5003C3.40013 14.5003 4.10091 14.2584 4.67994 13.8018C4.70494 13.7821 4.72956 13.7621 4.75413 13.7415C5.58469 13.0466 5.94634 11.9554 5.69794 10.8938C5.44544 9.81459 4.62175 8.98309 3.54837 8.72378L1 8.10813V8C1 4.14019 4.14019 1 8 1C11.8598 1 15 4.14019 15 8V8.10813L12.4516 8.72375C11.3782 8.98306 10.5546 9.81456 10.3021 10.8938C10.0537 11.9553 10.4153 13.0465 11.2462 13.7418C11.2704 13.762 11.2951 13.7821 11.3201 13.8018C11.8992 14.2585 12.5998 14.5003 13.3262 14.5003C13.4548 14.5003 13.5843 14.4928 13.714 14.4774C14.5761 14.3756 15.3469 13.9441 15.8845 13.2624C15.9539 13.1745 15.9917 13.0658 15.9919 12.9538L16 8.50263C16 8.50247 16 8.50234 16 8.50219C16 8.50203 16 8.50188 16 8.50172V8ZM3.31356 9.69581C4.02837 9.8685 4.55575 10.4015 4.72425 11.1216C4.88856 11.8238 4.65981 12.5165 4.11269 12.9744C4.09559 12.9887 4.07825 13.0028 4.06069 13.0166C3.58878 13.3888 3.00012 13.5549 2.40337 13.4844C1.86159 13.4203 1.37188 13.1683 1.00778 12.7694L1.00119 9.13722L3.31356 9.69581ZM14.9923 12.7694C14.6282 13.1683 14.1384 13.4203 13.5967 13.4843C12.9997 13.5548 12.4112 13.3887 11.9393 13.0166C11.9218 13.0027 11.9044 12.9886 11.8876 12.9746C11.3402 12.5165 11.1115 11.8238 11.2758 11.1216C11.4443 10.4015 11.9717 9.8685 12.6865 9.69581L14.9989 9.13719L14.9923 12.7694Z" fill="#0F2846"/>
</svg>
