<svg width="19" height="16" viewBox="0 0 19 16" fill="none" xmlns="http://www.w3.org/2000/svg">
<path d="M18.2212 8.82738C18.2212 6.4695 17.3029 4.25276 15.6357 2.58546C13.9685 0.91815 11.7517 0 9.39378 0C7.03591 0 4.81913 0.91822 3.15186 2.58549C1.48459 4.25276 0.566406 6.4695 0.566406 8.82738V9.38098C0.566406 9.38116 0.566441 9.38133 0.566441 9.3815C0.566441 9.38167 0.566406 9.38181 0.566406 9.38198L0.575337 14.2935C0.575578 14.4171 0.617302 14.537 0.693851 14.6341C1.28701 15.3862 2.13758 15.8623 3.08886 15.9747C3.23203 15.9917 3.37479 16 3.51678 16C4.31818 16 5.09144 15.7331 5.73035 15.2292C5.75794 15.2074 5.78511 15.1854 5.81221 15.1627C6.72867 14.3959 7.12773 13.1918 6.85364 12.0205C6.57502 10.8296 5.66615 9.91214 4.48176 9.62601L1.66983 8.94668V8.82738C1.66983 4.56837 5.13478 1.10342 9.39378 1.10342C13.6528 1.10342 17.1177 4.56837 17.1177 8.82738V8.94668L14.3058 9.62598C13.1214 9.91211 12.2125 10.8296 11.9339 12.0204C11.6598 13.1918 12.0589 14.3958 12.9757 15.163C13.0025 15.1853 13.0296 15.2074 13.0572 15.2292C13.6962 15.7331 14.4693 16 15.2708 16C15.4127 16 15.5556 15.9916 15.6987 15.9747C16.65 15.8623 17.5006 15.3862 18.0937 14.6341C18.1703 14.537 18.212 14.4171 18.2122 14.2935L18.2212 9.38198C18.2212 9.38181 18.2211 9.38167 18.2211 9.3815C18.2211 9.38133 18.2212 9.38116 18.2212 9.38098V8.82738ZM4.22266 10.6986C5.0114 10.8891 5.59332 11.4773 5.77925 12.2718C5.96055 13.0467 5.70815 13.811 5.10444 14.3162C5.08557 14.332 5.06644 14.3475 5.04706 14.3628C4.52635 14.7735 3.87681 14.9567 3.21834 14.879C2.62053 14.8083 2.08016 14.5302 1.67841 14.09L1.67114 10.0822L4.22266 10.6986ZM17.1092 14.09C16.7074 14.5302 16.1671 14.8083 15.5693 14.8789C14.9105 14.9566 14.2612 14.7734 13.7405 14.3628C13.7211 14.3475 13.702 14.3319 13.6835 14.3165C13.0794 13.811 12.827 13.0467 13.0084 12.2718C13.1943 11.4773 13.7762 10.8891 14.5649 10.6986L17.1165 10.0822L17.1092 14.09Z" fill="#0F2846"/>
</svg>
