<svg width="26" height="24" viewBox="0 0 26 24" fill="none" xmlns="http://www.w3.org/2000/svg">
<path d="M21.3052 23.9989H4.30407C3.03578 23.9989 2.00391 22.9671 2.00391 21.6988V9.59693C2.00391 9.1551 2.36208 8.79688 2.80396 8.79688C3.24584 8.79688 3.60402 9.1551 3.60402 9.59693V21.6988C3.60402 22.0848 3.91804 22.3988 4.30407 22.3988H21.3052C21.6913 22.3988 22.0053 22.0848 22.0053 21.6988V9.59693C22.0053 9.1551 22.3635 8.79688 22.8053 8.79688C23.2472 8.79688 23.6054 9.1551 23.6054 9.59693V21.6988C23.6054 22.9671 22.5736 23.9989 21.3052 23.9989Z" fill="#162F4C"/>
<path d="M24.8017 12.3979C24.5969 12.3979 24.3922 12.3198 24.236 12.1635L14.2859 2.2135C13.4671 1.39465 12.1347 1.39465 11.3159 2.2135L1.36578 12.1636C1.05336 12.4761 0.546775 12.4761 0.234354 12.1636C-0.0781179 11.8512 -0.0781179 11.3446 0.234354 11.0322L10.1844 1.08202C11.6271 -0.360675 13.9747 -0.360675 15.4173 1.08202L25.3674 11.0321C25.6799 11.3446 25.6799 11.8511 25.3674 12.1635C25.2112 12.3198 25.0065 12.3979 24.8017 12.3979Z" fill="#162F4C"/>
<path d="M16.0013 24.0003H9.60084C9.15896 24.0003 8.80078 23.6421 8.80078 23.2003V16.0998C8.80078 14.7212 9.92236 13.5996 11.301 13.5996H14.3012C15.6798 13.5996 16.8013 14.7212 16.8013 16.0998V23.2003C16.8013 23.6421 16.4432 24.0003 16.0013 24.0003ZM10.4009 22.4002H15.2012V16.0998C15.2012 15.6035 14.7974 15.1997 14.3012 15.1997H11.301C10.8047 15.1997 10.4009 15.6035 10.4009 16.0998V22.4002Z" fill="#162F4C"/>
</svg>
