<svg width="18" height="16" viewBox="0 0 18 16" fill="none" xmlns="http://www.w3.org/2000/svg">
<path d="M14.4262 15.9999H3.09203C2.24651 15.9999 1.55859 15.3121 1.55859 14.4665V6.3986C1.55859 6.10405 1.79738 5.86523 2.09196 5.86523C2.38655 5.86523 2.62533 6.10405 2.62533 6.3986V14.4665C2.62533 14.7238 2.83468 14.9332 3.09203 14.9332H14.4262C14.6835 14.9332 14.8929 14.7238 14.8929 14.4665V6.3986C14.8929 6.10405 15.1316 5.86523 15.4262 5.86523C15.7208 5.86523 15.9596 6.10405 15.9596 6.3986V14.4665C15.9596 15.312 15.2717 15.9999 14.4262 15.9999Z" fill="#946E5F"/>
<path d="M16.7571 8.26527C16.6206 8.26527 16.4841 8.2132 16.38 8.10903L9.74658 1.47567C9.2007 0.929765 8.31248 0.929765 7.76657 1.47567L1.13318 8.10906C0.924897 8.31738 0.587173 8.31738 0.378892 8.10906C0.170578 7.90078 0.170578 7.56306 0.378892 7.35478L7.01229 0.72135C7.97409 -0.24045 9.53909 -0.24045 10.5009 0.72135L17.1343 7.35474C17.3426 7.56306 17.3426 7.90075 17.1343 8.10903C17.0301 8.2132 16.8936 8.26527 16.7571 8.26527Z" fill="#946E5F"/>
<path d="M10.8902 16.0002H6.62321C6.32863 16.0002 6.08984 15.7614 6.08984 15.4669V10.7332C6.08984 9.81412 6.83756 9.06641 7.75663 9.06641H9.75676C10.6758 9.06641 11.4235 9.81412 11.4235 10.7332V15.4669C11.4235 15.7614 11.1848 16.0002 10.8902 16.0002ZM7.15658 14.9335H10.3568V10.7332C10.3568 10.4023 10.0876 10.1331 9.75676 10.1331H7.75663C7.42577 10.1331 7.15658 10.4023 7.15658 10.7332V14.9335Z" fill="#946E5F"/>
</svg>
