<svg width="12" height="8" viewBox="0 0 12 8" fill="none" xmlns="http://www.w3.org/2000/svg">
<path d="M6.77563 3.75953L6.77665 3.99559C6.77665 4.97668 6.71919 5.87112 6.63265 6.4542L6.55683 6.81678C6.51465 7.00881 6.45919 7.22747 6.40138 7.33909C6.18974 7.74738 5.77593 8 5.33303 8H5.29448C5.00576 7.99045 4.39922 7.7371 4.39922 7.72829C3.42323 7.31878 1.54031 6.08285 0.670665 5.20174L0.417952 4.93721C0.351776 4.86551 0.277427 4.78066 0.23127 4.71452C0.07709 4.51037 0 4.25776 0 4.00514C0 3.72315 0.0865444 3.46099 0.250179 3.24656L0.509818 2.96635L0.567993 2.90655C1.35707 2.05104 3.41741 0.652102 4.49522 0.223976L4.65794 0.161614C4.85376 0.0914265 5.12812 0.00771067 5.29448 0C5.50612 0 5.70829 0.0492014 5.90102 0.146135C6.14174 0.28199 6.33374 0.49642 6.43992 0.749036C6.50756 0.923811 6.61374 1.44887 6.61374 1.45842C6.71108 1.98783 6.76752 2.82321 6.77563 3.75953ZM12 4.00029C12 4.55913 11.5513 5.01223 10.9978 5.01223L8.53168 4.79413C8.0975 4.79413 7.74551 4.4387 7.74551 4.00029C7.74551 3.56115 8.0975 3.20646 8.53168 3.20646L10.9978 2.98836C11.5513 2.98836 12 3.44145 12 4.00029Z" fill="#946E5F"/>
</svg>
