<svg width="16" height="18" viewBox="0 0 16 18" fill="none" xmlns="http://www.w3.org/2000/svg">
<path d="M1 10.334C1 8.44837 1 7.50556 1.58579 6.91977C2.17157 6.33398 3.11438 6.33398 5 6.33398H11.2222C13.1078 6.33398 14.0506 6.33398 14.6364 6.91977C15.2222 7.50556 15.2222 8.44837 15.2222 10.334V11.0006C15.2222 13.8291 15.2222 15.2433 14.3435 16.122C13.4649 17.0007 12.0506 17.0007 9.22222 17.0007H7C4.17157 17.0007 2.75736 17.0007 1.87868 16.122C1 15.2433 1 13.8291 1 11.0007V10.334Z" stroke="#0F2846"/>
<path d="M11.6658 5.44444V4.55556C11.6658 2.59188 10.0739 1 8.11024 1V1C6.14656 1 4.55469 2.59188 4.55469 4.55556V5.44444" stroke="#0F2846" stroke-linecap="round"/>
<circle cx="8.10981" cy="11.6664" r="1.77778" fill="#0F2846"/>
</svg>
