<svg width="40" height="48" viewBox="0 0 40 48" fill="none" xmlns="http://www.w3.org/2000/svg">
<path d="M28.8347 47.2287H1.72584C1.20424 47.2287 0.78125 46.8059 0.78125 46.2841V10.2044C0.78125 9.68275 1.20404 9.25977 1.72584 9.25977H28.8347C29.3563 9.25977 29.7793 9.68256 29.7793 10.2044V46.2841C29.7791 46.8057 29.3563 47.2287 28.8347 47.2287Z" fill="#A57F6A"/>
<path d="M25.1392 43.317H5.42144C5.04198 43.317 4.73438 43.0094 4.73438 42.63V9.94683C4.73438 9.56737 5.04198 9.25977 5.42144 9.25977H25.1394C25.5188 9.25977 25.8264 9.56737 25.8264 9.94683V42.63C25.8263 43.0094 25.5186 43.317 25.1392 43.317Z" fill="#FBFCFD"/>
<path d="M20.7995 3.74606H18.2575C18.2575 2.10323 16.9258 0.771484 15.2829 0.771484C13.6401 0.771484 12.3084 2.10323 12.3084 3.74606H9.7666C8.24089 3.74606 7.00391 4.98285 7.00391 6.50876V9.26105H23.5622V6.50876C23.5622 4.98304 22.3252 3.74606 20.7995 3.74606Z" fill="#0F2846"/>
<path d="M8.25559 43.3184H5.42202C5.04237 43.3184 4.73438 43.0106 4.73438 42.6308V9.94743C4.73438 9.56971 5.04237 9.26172 5.42202 9.26172H8.25559C7.87595 9.26172 7.56795 9.56971 7.56795 9.94743V42.6308C7.56795 43.0104 7.87595 43.3184 8.25559 43.3184Z" fill="white"/>
<path d="M25.8259 9.94743V42.6308C25.8259 43.0104 25.5179 43.3184 25.1383 43.3184H22.3047C22.6843 43.3184 22.9923 43.0106 22.9923 42.6308V9.94743C22.9923 9.56971 22.6843 9.26172 22.3047 9.26172H25.1383C25.5179 9.26172 25.8259 9.56971 25.8259 9.94743Z" fill="#E3E4E6"/>
<path d="M23.5596 6.50856V9.26086H20.726V6.50856C20.726 4.98227 19.4886 3.7449 17.9623 3.7449H15.4217C15.4217 2.61521 14.7907 1.63306 13.8633 1.1286C14.2845 0.901886 14.7682 0.771484 15.28 0.771484C16.9234 0.771484 18.2551 2.10323 18.2551 3.74471H20.7957C22.3224 3.7451 23.5596 4.98227 23.5596 6.50856Z" fill="#0B182B"/>
<path d="M16.7 1.12859C15.7726 1.63286 15.1416 2.61521 15.1416 3.7449H12.601C11.0747 3.7449 9.83729 4.98227 9.83729 6.50856V9.26086H7.00391V6.50837C7.00391 4.98208 8.24127 3.74471 9.76757 3.74471H12.3082C12.3082 2.10323 13.6399 0.771484 15.2833 0.771484C15.7953 0.771484 16.2788 0.901886 16.7 1.12859Z" fill="#5B6B82"/>
<path d="M37.6312 44.6177L32.3111 46.7211L31.3133 47.116C30.4832 47.4434 29.5451 47.037 29.2158 46.2068C27.8129 42.6611 27.8952 42.6611 27.4861 42.4604C25.5156 41.4877 21.1394 40.5921 18.9975 40.1278C18.5602 40.0315 18.2848 39.602 18.3772 39.1667C18.7856 37.3176 20.1339 36.6338 21.4264 36.8784L22.5416 37.0884C23.1214 37.1982 23.5952 36.6242 23.3776 36.0752C23.3776 36.0752 23.6374 36.4947 19.3692 25.697C18.9732 24.6902 19.468 23.5638 20.4652 23.168C21.4668 22.7731 22.5994 23.2624 22.9942 24.264L25.5637 30.7609C25.5811 30.7532 25.5965 30.7455 25.6138 30.7378L31.0186 28.6017C33.095 27.7811 35.443 28.7982 36.2636 30.8726L37.4578 33.8929C38.1416 35.6226 38.0819 37.4601 37.4347 39.055C37.348 39.2688 37.3499 39.5076 37.4347 39.7214L38.5403 42.5201C38.8697 43.3503 38.4613 44.2884 37.6312 44.6177Z" fill="#EDB997"/>
<path d="M32.3111 46.7211L31.3133 47.116C30.4832 47.4434 29.5451 47.037 29.2158 46.2068C27.8129 42.6611 27.8952 42.6611 27.4861 42.4604C25.5156 41.4877 21.1394 40.592 18.9975 40.1278C18.5602 40.0315 18.2848 39.602 18.3772 39.1667C18.7856 37.3176 20.1339 36.6338 21.4263 36.8784L22.5416 37.0884C23.1214 37.1981 23.5952 36.6241 23.3776 36.0752C23.3776 36.0752 23.6374 36.4947 19.3692 25.697C18.9732 24.6902 19.468 23.5638 20.4652 23.168L26.5925 38.6291C27.5044 40.9299 29.6518 40.1409 30.5764 42.4286L32.3111 46.7211Z" fill="#F0C8A5"/>
<path d="M15.2685 4.92564C15.8029 4.92564 16.2362 4.49239 16.2362 3.95794C16.2362 3.42349 15.8029 2.99023 15.2685 2.99023C14.734 2.99023 14.3008 3.42349 14.3008 3.95794C14.3008 4.49239 14.734 4.92564 15.2685 4.92564Z" fill="#A57F6A"/>
<path d="M22.0752 19.1835H22.4411C22.8668 19.1835 23.2116 18.8387 23.2116 18.413C23.2116 17.9874 22.8668 17.6426 22.4411 17.6426H22.0752C21.6495 17.6426 21.3047 17.9874 21.3047 18.413C21.3047 18.8387 21.6495 19.1835 22.0752 19.1835Z" fill="#0B182B"/>
<path d="M15.7197 19.1835H19.1868C19.6125 19.1835 19.9572 18.8387 19.9572 18.413C19.9572 17.9874 19.6125 17.6426 19.1868 17.6426H15.7197C15.294 17.6426 14.9492 17.9874 14.9492 18.413C14.9492 18.8387 15.294 19.1835 15.7197 19.1835Z" fill="#0B182B"/>
<path d="M12.6892 13.9149L9.40083 17.298L8.6583 16.5127C8.36571 16.204 7.87839 16.1901 7.56905 16.4825C7.26009 16.7751 7.24642 17.2626 7.53881 17.5717L8.83377 18.9407C9.13464 19.2589 9.64083 19.2625 9.94594 18.9482L13.7942 14.989C14.0908 14.6839 14.0839 14.1961 13.7788 13.8995C13.4737 13.6031 12.986 13.61 12.6892 13.9149Z" fill="#0B182B"/>
<path d="M12.689 21.4835L9.40083 24.8664L8.6583 24.0811C8.36571 23.7723 7.87839 23.7583 7.56905 24.0508C7.26009 24.3434 7.24642 24.8309 7.53881 25.1401L8.83377 26.509C9.13464 26.8272 9.64083 26.8309 9.94594 26.5165L13.7942 22.5573C14.0908 22.2522 14.0839 21.7645 13.7788 21.4679C13.4735 21.1714 12.9858 21.1784 12.689 21.4835Z" fill="#0B182B"/>
<path d="M39.2552 42.2369L38.1496 39.4382C38.138 39.4055 38.1361 39.3708 38.1477 39.3438C38.8969 37.4986 38.9066 35.4626 38.1727 33.6096L36.9785 30.5894C36.0039 28.122 33.2013 26.9104 30.7339 27.8851L30.5393 27.9621V10.2048C30.5393 9.25907 29.7708 8.49053 28.825 8.49053C24.9434 8.49053 25.4937 8.49053 24.3197 8.49053V6.50851C24.3197 4.55923 22.7345 2.97592 20.7872 2.97592H18.9361C18.5798 1.27897 17.0716 0 15.2706 0C13.4697 0 11.9615 1.27897 11.6051 2.97592H9.75409C7.80482 2.97592 6.21958 4.55923 6.21958 6.50851V8.49053C5.04559 8.49053 5.59628 8.49053 1.71621 8.49053C0.770466 8.49053 0 9.25907 0 10.2048V46.2838C0 47.2295 0.770466 48 1.71621 48H28.825C29.139 48 29.4356 47.9133 29.6899 47.765C30.2668 48.0395 30.9519 48.0834 31.5968 47.8324L37.9146 45.3342C39.1396 44.8469 39.7406 43.4581 39.2552 42.2369ZM26.5868 10.0315H28.825C28.9194 10.0315 28.9984 10.1085 28.9984 10.2048V28.5708L26.5868 29.5242V10.0315ZM7.76051 6.50851C7.76051 5.41059 8.65425 4.51685 9.75409 4.51685H12.2947C12.7204 4.51685 13.0652 4.17014 13.0652 3.74639C13.0652 2.53098 14.0552 1.54093 15.2706 1.54093C16.486 1.54093 17.4742 2.53098 17.4742 3.74639C17.4742 4.17014 17.8189 4.51685 18.2446 4.51685H20.7872C21.8851 4.51685 22.7788 5.41059 22.7788 6.50851V8.49053H7.76051V6.50851ZM5.49535 10.0315H25.0459V27.3554L23.7111 23.9807C23.0238 22.241 20.818 21.7092 19.4234 22.9079H15.7194C15.2937 22.9079 14.949 23.2526 14.949 23.6783C14.949 24.104 15.2937 24.4488 15.7194 24.4488H18.5181C18.4161 24.9457 18.4526 25.4754 18.651 25.9801C18.9631 26.7698 19.252 27.4998 19.5159 28.1721H15.7194C15.2937 28.1721 14.949 28.5169 14.949 28.9425C14.949 29.3682 15.2937 29.713 15.7194 29.713H20.1226C20.7506 31.3136 21.2225 32.5233 21.575 33.4382H15.7196C15.2941 33.4382 14.9491 33.7832 14.9491 34.2087C14.9491 34.6342 15.2941 34.9791 15.7196 34.9791H22.1663C22.6706 36.3107 22.6478 36.3236 22.6478 36.3236L21.5692 36.1213C20.0398 35.8324 18.1522 36.6087 17.6225 39.0067C17.4433 39.8523 17.9846 40.6941 18.834 40.8809C20.5142 41.244 23.0292 41.7706 25.0459 42.3795V42.547H5.49535V10.0315ZM1.71621 46.4591C1.6199 46.4591 1.54093 46.3801 1.54093 46.2838V10.2048C1.54093 10.1085 1.6199 10.0315 1.71621 10.0315H3.95441V42.6299C3.95441 43.4331 4.60738 44.088 5.41059 44.088H25.1287C25.8414 44.088 26.4366 43.5737 26.5618 42.8957C26.9362 43.0442 27.1628 43.1595 27.1628 43.1595C27.3053 43.4036 27.6738 44.404 28.488 46.4591H1.71621ZM37.3464 43.9011L31.0305 46.3994C30.5844 46.5756 30.1005 46.3452 29.9307 45.9236C29.6995 45.3402 28.9984 43.5448 28.9984 43.5448C28.461 42.1811 28.3493 42.025 27.8254 41.7689C25.7611 40.7538 21.4557 39.8745 19.1615 39.3746C19.1403 39.3708 19.1249 39.3496 19.1287 39.3323C19.429 37.9718 20.3309 37.4581 21.2822 37.6353L22.3974 37.8453C23.5595 38.0637 24.5156 36.9298 24.104 35.8209C23.9669 35.223 20.3673 26.1267 20.086 25.4138C19.841 24.7955 20.1637 24.1152 20.7467 23.8844C21.3535 23.6446 22.0421 23.947 22.2761 24.547L24.8456 31.044C25.0128 31.4589 25.4876 31.6407 25.8761 31.4639C25.8769 31.4637 31.3002 29.3181 31.3002 29.3181C32.9798 28.6555 34.8828 29.4799 35.5454 31.1557L36.7396 34.1759C37.3271 35.6591 37.3194 37.2886 36.7204 38.766C36.5586 39.1628 36.5586 39.6019 36.7165 40.0045L37.8241 42.8032C37.9955 43.2366 37.7817 43.7278 37.3464 43.9011Z" fill="#0B182B"/>
</svg>
