<svg width="16" height="16" viewBox="0 0 16 16" fill="none" xmlns="http://www.w3.org/2000/svg">
<path d="M11.4991 16C10.9827 16 10.4706 15.9087 9.9698 15.7268C7.7637 14.9254 5.71597 13.6201 4.04791 11.9521C2.37986 10.284 1.0746 8.23629 0.273225 6.03019C0.0157045 5.32122 -0.0602924 4.58937 0.0474219 3.8549C0.148324 3.16693 0.414813 2.49905 0.818109 1.92345C1.22319 1.34532 1.76323 0.864465 2.37983 0.532884C3.03736 0.179305 3.75505 0 4.51302 0C4.74876 0 4.9525 0.164712 5.00191 0.395203L5.78669 4.05752C5.82222 4.22336 5.77125 4.39591 5.65135 4.51585L4.31037 5.85679C5.57538 8.37188 7.62805 10.4245 10.1431 11.6896L11.4841 10.3486C11.604 10.2287 11.7766 10.1778 11.9424 10.2132L15.6047 10.998C15.8352 11.0474 15.9999 11.2512 15.9999 11.4869C15.9999 12.2449 15.8206 12.9626 15.467 13.6201C15.1354 14.2367 14.6546 14.7768 14.0764 15.1818C13.5009 15.5851 12.833 15.8516 12.145 15.9525C11.9294 15.9842 11.7138 16 11.4991 16ZM4.11354 1.02183C3.11373 1.1322 2.22633 1.65624 1.63704 2.4973C0.974384 3.44305 0.819859 4.60628 1.21309 5.6888C2.75378 9.93006 6.06992 13.2462 10.3112 14.7869C11.3937 15.1801 12.5569 15.0256 13.5027 14.3629C14.3437 13.7737 14.8678 12.8863 14.9782 11.8864L11.9989 11.248L10.5984 12.6485C10.4494 12.7975 10.223 12.8371 10.0323 12.7475C7.05773 11.35 4.64995 8.94226 3.25251 5.96769C3.16292 5.77698 3.20248 5.55055 3.35151 5.40156L4.75195 4.00112L4.11354 1.02183Z" fill="white"/>
<path d="M15.4997 8.49965C15.2236 8.49965 14.9997 8.27579 14.9997 7.99967C14.9997 4.14002 11.8596 0.999959 7.99998 0.999959C7.72387 0.999959 7.5 0.776093 7.5 0.499979C7.5 0.223866 7.72387 0 7.99998 0C10.1368 0 12.1457 0.832091 13.6566 2.34303C15.1676 3.85397 15.9997 5.86285 15.9997 7.99967C15.9997 8.27579 15.7758 8.49965 15.4997 8.49965Z" fill="white"/>
<path d="M13.4998 8.49973C13.2236 8.49973 12.9998 8.27587 12.9998 7.99975C12.9998 5.24287 10.7569 2.99996 7.99998 2.99996C7.72387 2.99996 7.5 2.77609 7.5 2.49998C7.5 2.22387 7.72387 2 7.99998 2C11.3082 2 13.9997 4.69148 13.9997 7.99975C13.9997 8.27587 13.7759 8.49973 13.4998 8.49973Z" fill="white"/>
<path d="M11.4998 8.49982C11.2237 8.49982 10.9999 8.27595 10.9999 7.99984C10.9999 6.34569 9.65413 4.99996 7.99998 4.99996C7.72387 4.99996 7.5 4.77609 7.5 4.49998C7.5 4.22387 7.72387 4 7.99998 4C10.2055 4 11.9998 5.7943 11.9998 7.99984C11.9998 8.27595 11.776 8.49982 11.4998 8.49982Z" fill="white"/>
</svg>
