<svg width="40" height="40" viewBox="0 0 40 40" fill="none" xmlns="http://www.w3.org/2000/svg">
<path d="M20 0C16.0444 0 12.1776 1.17298 8.8886 3.37061C5.59962 5.56823 3.03617 8.69181 1.52242 12.3463C0.00866572 16.0008 -0.387401 20.0222 0.384303 23.9018C1.15601 27.7814 3.06082 31.3451 5.85787 34.1421C8.65492 36.9392 12.2186 38.844 16.0982 39.6157C19.9778 40.3874 23.9991 39.9913 27.6537 38.4776C31.3082 36.9638 34.4318 34.4004 36.6294 31.1114C38.827 27.8224 40 23.9556 40 20C39.9941 14.6975 37.8851 9.61383 34.1356 5.86438C30.3862 2.11493 25.3025 0.00590068 20 0V0ZM25.8608 21.0931L20.9229 24.5403L18.3323 26.3486C18.1324 26.4881 17.8981 26.5702 17.6548 26.5859C17.4116 26.6016 17.1687 26.5502 16.9525 26.4375C16.7364 26.3248 16.5553 26.155 16.4289 25.9465C16.3025 25.7381 16.2357 25.499 16.2357 25.2552V14.7448C16.2357 14.501 16.3025 14.2619 16.4289 14.0535C16.5553 13.845 16.7364 13.6752 16.9525 13.5625C17.1687 13.4497 17.4116 13.3984 17.6548 13.4141C17.8981 13.4298 18.1324 13.5118 18.3323 13.6514L20.9229 15.4596L25.8608 18.9066C26.0369 19.0294 26.1806 19.193 26.2799 19.3833C26.3792 19.5737 26.431 19.7852 26.431 19.9998C26.431 20.2145 26.3792 20.426 26.2799 20.6163C26.1806 20.8067 26.0369 20.9702 25.8608 21.0931Z" fill="url(#paint0_linear_151_86737)"/>
<defs>
<linearGradient id="paint0_linear_151_86737" x1="20" y1="40" x2="20" y2="-13.125" gradientUnits="userSpaceOnUse">
<stop stop-color="#7D5851"/>
<stop offset="1" stop-color="#A37D68"/>
</linearGradient>
</defs>
</svg>
