<svg width="17" height="17" viewBox="0 0 17 17" fill="none" xmlns="http://www.w3.org/2000/svg">
<path fill-rule="evenodd" clip-rule="evenodd" d="M14.9324 1.0323C14.5086 1.10768 13.9296 1.29932 13.0855 1.58066L5.13929 4.22941C3.8683 4.65307 2.94324 4.9618 2.28612 5.23808C1.60339 5.52514 1.33203 5.73143 1.23377 5.88616C0.922078 6.37696 0.922078 7.00366 1.23377 7.49445C1.33203 7.64919 1.60339 7.85548 2.28612 8.14253C2.94324 8.41882 3.8683 8.72755 5.13928 9.15121C5.15941 9.15792 5.17927 9.16453 5.19886 9.17106C5.64871 9.32085 5.95972 9.42441 6.22801 9.59842C6.52279 9.7896 6.77395 10.0408 6.96513 10.3355C7.13914 10.6038 7.2427 10.9148 7.39249 11.3647C7.39902 11.3843 7.40563 11.4041 7.41234 11.4243C7.836 12.6952 8.14473 13.6203 8.42101 14.2774C8.70807 14.9602 8.91436 15.2315 9.06909 15.3298C9.55989 15.6415 10.1866 15.6415 10.6774 15.3298C10.8321 15.2315 11.0384 14.9602 11.3255 14.2774C11.6017 13.6203 11.9105 12.6953 12.3341 11.4243L14.9829 3.47803C15.2642 2.634 15.4559 2.05492 15.5312 1.63118C15.6073 1.20382 15.5323 1.10673 15.4945 1.069C15.4568 1.03126 15.3597 0.956276 14.9324 1.0323ZM14.7572 0.0477568C15.267 -0.0429294 15.8024 -0.0373914 16.2017 0.361891C16.6009 0.761173 16.6065 1.29654 16.5158 1.80633C16.426 2.31111 16.2096 2.96028 15.9452 3.75347L15.9316 3.79426L13.2828 11.7405L13.2751 11.7635C12.8607 13.0069 12.5402 13.9684 12.2473 14.665C11.9634 15.3403 11.659 15.891 11.2135 16.1739C10.3955 16.6934 9.35098 16.6934 8.533 16.1739C8.08743 15.891 7.78312 15.3403 7.49918 14.665C7.20628 13.9684 6.88577 13.0068 6.47131 11.7635L6.46366 11.7405C6.28625 11.2083 6.22205 11.0276 6.12614 10.8797C6.01143 10.7028 5.86073 10.5521 5.68387 10.4374C5.53599 10.3415 5.35526 10.2773 4.82306 10.0999L4.80009 10.0922C3.5567 9.67778 2.59518 9.35727 1.89854 9.06437C1.22321 8.78043 0.672572 8.47611 0.389609 8.03055C-0.12987 7.21256 -0.12987 6.16806 0.389609 5.35007C0.672572 4.9045 1.22321 4.60019 1.89854 4.31625C2.59519 4.02334 3.55672 3.70284 4.80011 3.28837L4.82306 3.28072L12.7693 0.63198L12.8101 0.618369C13.6033 0.353955 14.2524 0.137552 14.7572 0.0477568Z" fill="#2D435D"/>
</svg>
