<svg width="23" height="20" viewBox="0 0 23 20" fill="none" xmlns="http://www.w3.org/2000/svg">
<path fill-rule="evenodd" clip-rule="evenodd" d="M11.3489 18.7575C7.95656 18.7575 5.05859 18.2443 5.05859 16.1894C5.05859 14.1345 7.93771 12.3457 11.3489 12.3457C14.7412 12.3457 17.6392 14.1178 17.6392 16.1716C17.6392 18.2254 14.76 18.7575 11.3489 18.7575Z" stroke="#0F2846" stroke-width="0.725212" stroke-linecap="round" stroke-linejoin="round"/>
<path fill-rule="evenodd" clip-rule="evenodd" d="M11.3487 9.41497C13.5753 9.41497 15.3809 7.61042 15.3809 5.38379C15.3809 3.15716 13.5753 1.35156 11.3487 1.35156C9.12204 1.35156 7.31642 3.15716 7.31642 5.38379C7.31016 7.60204 9.10109 9.40764 11.3204 9.41497H11.3487Z" stroke="#0F2846" stroke-width="0.725212" stroke-linecap="round" stroke-linejoin="round"/>
<path d="M18.041 8.30658C19.3366 7.95991 20.2918 6.77852 20.2918 5.37195C20.2918 3.90464 19.2518 2.67926 17.8672 2.39648" stroke="#0F2846" stroke-width="0.725212" stroke-linecap="round" stroke-linejoin="round"/>
<path d="M18.6484 11.6113C20.4855 11.6113 22.0544 12.8566 22.0544 13.9689C22.0544 14.6235 21.5129 15.3367 20.6918 15.5294" stroke="#0F2846" stroke-width="0.725212" stroke-linecap="round" stroke-linejoin="round"/>
<path d="M4.65411 8.30658C3.35751 7.95991 2.40234 6.77852 2.40234 5.37195C2.40234 3.90464 3.44339 2.67926 4.82692 2.39648" stroke="#0F2846" stroke-width="0.725212" stroke-linecap="round" stroke-linejoin="round"/>
<path d="M4.04655 11.6113C2.20953 11.6113 0.640625 12.8566 0.640625 13.9689C0.640625 14.6235 1.1821 15.3367 2.00425 15.5294" stroke="#0F2846" stroke-width="0.725212" stroke-linecap="round" stroke-linejoin="round"/>
</svg>
