<svg width="18" height="18" viewBox="0 0 18 18" fill="none" xmlns="http://www.w3.org/2000/svg">
<path fill-rule="evenodd" clip-rule="evenodd" d="M17.058 4.27747C17.058 6.08722 15.5903 7.55493 13.7806 7.55493C11.9708 7.55493 10.5039 6.08722 10.5039 4.27747C10.5039 2.46771 11.9708 1 13.7806 1C15.5903 1 17.058 2.46771 17.058 4.27747Z" stroke="#0F2846" stroke-linecap="round" stroke-linejoin="round"/>
<path fill-rule="evenodd" clip-rule="evenodd" d="M7.55413 4.27747C7.55413 6.08722 6.08722 7.55493 4.27666 7.55493C2.46771 7.55493 1 6.08722 1 4.27747C1 2.46771 2.46771 1 4.27666 1C6.08722 1 7.55413 2.46771 7.55413 4.27747Z" stroke="#0F2846" stroke-linecap="round" stroke-linejoin="round"/>
<path fill-rule="evenodd" clip-rule="evenodd" d="M17.058 13.7228C17.058 15.5325 15.5903 16.9994 13.7806 16.9994C11.9708 16.9994 10.5039 15.5325 10.5039 13.7228C10.5039 11.913 11.9708 10.4453 13.7806 10.4453C15.5903 10.4453 17.058 11.913 17.058 13.7228Z" stroke="#0F2846" stroke-linecap="round" stroke-linejoin="round"/>
<path fill-rule="evenodd" clip-rule="evenodd" d="M7.55413 13.7228C7.55413 15.5325 6.08722 16.9994 4.27666 16.9994C2.46771 16.9994 1 15.5325 1 13.7228C1 11.913 2.46771 10.4453 4.27666 10.4453C6.08722 10.4453 7.55413 11.913 7.55413 13.7228Z" stroke="#0F2846" stroke-linecap="round" stroke-linejoin="round"/>
</svg>
