<svg width="20" height="20" viewBox="0 0 20 20" fill="none" xmlns="http://www.w3.org/2000/svg">
<path d="M7.5013 18.3337H12.5013C16.668 18.3337 18.3346 16.667 18.3346 12.5003V7.50033C18.3346 3.33366 16.668 1.66699 12.5013 1.66699H7.5013C3.33464 1.66699 1.66797 3.33366 1.66797 7.50033V12.5003C1.66797 16.667 3.33464 18.3337 7.5013 18.3337Z" stroke="#0F2846" stroke-width="1.5" stroke-linecap="round" stroke-linejoin="round"/>
<path d="M12.9167 15.4163C13.8333 15.4163 14.5833 14.6663 14.5833 13.7497V6.24967C14.5833 5.33301 13.8333 4.58301 12.9167 4.58301C12 4.58301 11.25 5.33301 11.25 6.24967V13.7497C11.25 14.6663 11.9917 15.4163 12.9167 15.4163Z" stroke="#A17B67" stroke-width="1.5" stroke-linecap="round" stroke-linejoin="round"/>
<path d="M7.08464 15.417C8.0013 15.417 8.7513 14.667 8.7513 13.7503V10.8337C8.7513 9.91699 8.0013 9.16699 7.08464 9.16699C6.16797 9.16699 5.41797 9.91699 5.41797 10.8337V13.7503C5.41797 14.667 6.15964 15.417 7.08464 15.417Z" stroke="#A17B67" stroke-width="1.5" stroke-linecap="round" stroke-linejoin="round"/>
</svg>
