<svg width="20" height="20" viewBox="0 0 20 20" fill="none" xmlns="http://www.w3.org/2000/svg">
<path d="M18.3346 10.8337V7.50033C18.3346 3.33366 16.668 1.66699 12.5013 1.66699H7.5013C3.33464 1.66699 1.66797 3.33366 1.66797 7.50033V12.5003C1.66797 16.667 3.33464 18.3337 7.5013 18.3337H10.8346" stroke="#0F2846" stroke-width="1.5" stroke-linecap="round" stroke-linejoin="round"/>
<path d="M18.3346 10.8337V7.50033C18.3346 3.33366 16.668 1.66699 12.5013 1.66699H7.5013C3.33464 1.66699 1.66797 3.33366 1.66797 7.50033V12.5003C1.66797 16.667 3.33464 18.3337 7.5013 18.3337H10.8346" stroke="#0F2846" stroke-width="1.5" stroke-linecap="round" stroke-linejoin="round"/>
<path d="M18.3346 10.8337V7.50033C18.3346 3.33366 16.668 1.66699 12.5013 1.66699H7.5013C3.33464 1.66699 1.66797 3.33366 1.66797 7.50033V12.5003C1.66797 16.667 3.33464 18.3337 7.5013 18.3337H10.8346" stroke="#0F2846" stroke-width="1.5" stroke-linecap="round" stroke-linejoin="round"/>
<path d="M13.332 16.192L14.6487 17.5003L17.4987 14.167" stroke="#A17B67" stroke-width="1.5" stroke-linecap="round" stroke-linejoin="round"/>
<path d="M5.83203 8.75V11.25" stroke="#A17B67" stroke-width="1.5" stroke-linecap="round" stroke-linejoin="round"/>
<path d="M10 8.75V11.25" stroke="#A17B67" stroke-width="1.5" stroke-linecap="round" stroke-linejoin="round"/>
<path d="M14.168 8.75V11.25" stroke="#A17B67" stroke-width="1.5" stroke-linecap="round" stroke-linejoin="round"/>
</svg>
