<svg width="20" height="18" viewBox="0 0 20 18" fill="none" xmlns="http://www.w3.org/2000/svg">
<path d="M3.78998 12.07L4.05785 11.6478C3.93091 11.5673 3.77448 11.5481 3.63186 11.5957L3.78998 12.07ZM1 13L0.525658 12.8419C0.465769 13.0216 0.51253 13.2196 0.646447 13.3536C0.780363 13.4875 0.978446 13.5342 1.15811 13.4743L1 13ZM1.92999 10.21L2.40433 10.3681C2.45187 10.2255 2.43272 10.0691 2.35219 9.94215L1.92999 10.21ZM7 13.5C10.5899 13.5 13.5 10.5899 13.5 7H12.5C12.5 10.0376 10.0376 12.5 7 12.5V13.5ZM3.52211 12.4922C4.5281 13.1305 5.72166 13.5 7 13.5V12.5C5.91693 12.5 4.90838 12.1874 4.05785 11.6478L3.52211 12.4922ZM3.63186 11.5957L0.841886 12.5257L1.15811 13.4743L3.94809 12.5443L3.63186 11.5957ZM1.47434 13.1581L2.40433 10.3681L1.45565 10.0519L0.525658 12.8419L1.47434 13.1581ZM0.5 7C0.5 8.27834 0.869533 9.4719 1.5078 10.4779L2.35219 9.94215C1.81255 9.09162 1.5 8.08307 1.5 7H0.5ZM7 0.5C3.41015 0.5 0.5 3.41015 0.5 7H1.5C1.5 3.96243 3.96243 1.5 7 1.5V0.5ZM13.5 7C13.5 3.41015 10.5899 0.5 7 0.5V1.5C10.0376 1.5 12.5 3.96243 12.5 7H13.5Z" fill="#0F2846"/>
<path d="M7.33594 12.9896C8.15667 15.3254 10.3819 17 12.9982 17C14.1789 17 15.28 16.659 16.2082 16.07L18.9982 17L18.0682 14.21L18.2102 13.9744C18.7117 13.0977 18.9982 12.0823 18.9982 11C18.9982 7.6863 16.3119 5 12.9982 5L12.7733 5.00414L12.6604 5.01014" stroke="#0F2846" stroke-linecap="round" stroke-linejoin="round"/>
</svg>
