<svg width="50" height="48" viewBox="0 0 50 48" fill="none" xmlns="http://www.w3.org/2000/svg">
<path d="M2.78516 34.1562H46.8156V38.7369H2.78516V34.1562Z" fill="#E1E5EA"/>
<path d="M43.1367 34.1562H46.8161V38.7365H43.1367V34.1562Z" fill="#B1B7BD"/>
<path d="M2.78516 34.1562H6.56892V38.7361H2.78516V34.1562Z" fill="#FBFCFD"/>
<path d="M4.73438 38.7363H44.8614V47.2204H4.73438V38.7363Z" fill="#E1E5EA"/>
<path d="M41.1836 38.7363H44.8629V47.22H41.1836V38.7363Z" fill="#B1B7BD"/>
<path d="M4.73438 38.7363H8.51814V47.2196H4.73438V38.7363Z" fill="#FBFCFD"/>
<path d="M43.9926 33.021C43.9926 33.6475 43.4841 34.1559 42.8576 34.1559H27.9318C27.3053 34.1559 26.7969 33.6475 26.7969 33.021C26.7969 25.1315 36.1241 21.4802 41.4741 26.8302C43.0313 28.3875 43.9926 30.5006 43.9926 33.021Z" fill="#FBFCFD"/>
<path d="M36.668 24.4065C32.7507 24.9666 29.3419 28.352 29.3419 33.0221C29.3419 33.6482 29.8509 34.1572 30.477 34.1572H27.932C27.3059 34.1572 26.7969 33.6482 26.7969 33.0221C26.7969 27.5155 31.5579 23.6527 36.668 24.4065Z" fill="white"/>
<path d="M29.3242 16.5361V18.2349C29.3242 21.5752 32.0572 24.308 35.3973 24.308C38.7332 24.308 41.4705 21.5795 41.4705 18.2349V16.5361C41.4705 13.197 38.7746 10.4841 35.4354 10.463C32.0666 10.4417 29.3242 13.1671 29.3242 16.5361Z" fill="white"/>
<path d="M43.9961 33.0216C43.9961 33.6477 43.4871 34.1567 42.861 34.1567H40.316C40.8843 34.1567 41.4511 33.7423 41.4511 32.9113C41.4511 28.5083 38.1724 24.9962 34.125 24.406C39.2484 23.6536 43.9961 27.5266 43.9961 33.0216Z" fill="#E3E4E5"/>
<path d="M37.3916 24.5441L36.5155 26.5528H34.3606L33.4219 24.5406C34.7266 24.2349 36.0914 24.2369 37.3916 24.5441Z" fill="#41464A"/>
<path d="M34.3575 26.5527L32.8242 34.157H37.9964L36.5125 26.5527H34.3575Z" fill="#A3ACB5"/>
<path d="M36.6706 24.1719C32.9271 24.9918 29.3242 22.0952 29.3242 18.2354V16.5352C29.3242 13.1793 32.0472 10.4629 35.3999 10.4629H35.4371C35.8613 10.4662 36.2737 10.5121 36.6724 10.597C33.9289 11.1805 31.8692 13.617 31.8692 16.5352V18.2354C31.869 21.1401 33.9357 23.5832 36.6706 24.1719Z" fill="white"/>
<path d="M41.4714 16.5352V18.2354C41.4714 22.0888 37.8752 24.9933 34.125 24.1719C36.8753 23.5817 38.9266 21.1239 38.9266 18.2354V16.5352C38.9266 13.6204 36.8703 11.1807 34.1268 10.597C34.5374 10.5088 34.9633 10.4629 35.3993 10.4629H35.4365C38.7755 10.4832 41.4714 13.1963 41.4714 16.5352Z" fill="#E3E4E5"/>
<path d="M40.3693 8.16211H35.0037C33.2811 8.16211 31.8517 9.41354 31.5728 11.0567C31.5214 10.1774 30.7942 9.4797 29.9021 9.4797C28.9766 9.4797 28.2266 10.2299 28.2266 11.1552V14.7405C28.2266 15.0341 28.4645 15.272 28.758 15.272H42.0368C42.3304 15.272 42.5683 15.0341 42.5683 14.7405V10.3609C42.5683 9.14655 41.5838 8.16211 40.3693 8.16211Z" fill="#BEC6CB"/>
<path d="M11.6452 0.78125C17.0908 0.78125 21.5054 5.19581 21.5054 10.6415C21.5054 12.1913 21.1474 13.6574 20.5102 14.9623C20.9827 16.874 21.923 19.3558 23.7531 20.7117C24.1082 20.9747 23.9612 21.5353 23.5215 21.5792C21.6396 21.7675 18.1998 21.7566 15.2761 19.8115C14.1525 20.2567 12.9276 20.5017 11.6454 20.5017C6.19971 20.5017 1.78516 16.0871 1.78516 10.6415C1.78516 5.19581 6.19952 0.78125 11.6452 0.78125Z" fill="#FBFCFD"/>
<path d="M3.88636 10.6428C3.88636 15.7336 7.74449 19.9224 12.6954 20.4464C12.3507 20.4843 11.9992 20.5024 11.6448 20.5024C6.19952 20.5024 1.78516 16.0881 1.78516 10.6428C1.78516 5.19757 6.19932 0.783203 11.6446 0.783203C11.999 0.783203 12.3491 0.801354 12.6952 0.839217C7.74449 1.36325 3.88636 5.552 3.88636 10.6428Z" fill="white"/>
<path d="M19.2144 10.6415C19.2144 12.1921 18.8552 13.6588 18.2182 14.9635C18.6919 16.8748 19.6314 19.3558 21.4615 20.7124C21.816 20.9751 21.6694 21.5359 21.2293 21.5802C21.1056 21.5925 20.9758 21.6046 20.8397 21.6137C21.8817 21.6932 22.8121 21.6504 23.521 21.5802C23.9609 21.5359 24.1077 20.9751 23.7532 20.7124C21.9229 19.3558 20.9834 16.8746 20.5099 14.9635C21.1469 13.6588 21.506 12.1921 21.506 10.6415C21.506 5.19639 17.0909 0.78125 11.6458 0.78125C11.2578 0.78125 10.8759 0.804085 10.5 0.848389C15.4056 1.41536 19.2144 5.58459 19.2144 10.6415Z" fill="#E3E4E5"/>
<path d="M16.1136 15.7655H7.07841C6.10743 15.7655 5.32031 14.9784 5.32031 14.0074V7.39677C5.32031 6.42579 6.10743 5.63867 7.07841 5.63867H16.1136C17.0846 5.63867 17.8717 6.42579 17.8717 7.39677V14.0074C17.8719 14.9784 17.0848 15.7655 16.1136 15.7655Z" fill="#BEC6CB"/>
<path d="M17.8719 9.75267H5.32031V7.39677C5.32031 6.42579 6.10743 5.63867 7.07841 5.63867H16.1136C17.0846 5.63867 17.8717 6.42579 17.8717 7.39677V9.75267H17.8719Z" fill="#BEC6CB"/>
<path d="M17.8716 7.39696V14.0076C17.8716 14.9782 17.084 15.7659 16.1133 15.7659H14.4883C15.4589 15.7659 16.2466 14.9784 16.2466 14.0076V7.39696C16.2466 6.42638 15.4591 5.63867 14.4883 5.63867H16.1133C17.0839 5.63867 17.8716 6.42618 17.8716 7.39696Z" fill="#919A9F"/>
<path d="M17.8716 7.39696V9.75325H16.2466V7.39696C16.2466 6.42638 15.4591 5.63867 14.4883 5.63867H16.1133C17.0839 5.63867 17.8716 6.42618 17.8716 7.39696Z" fill="#919A9F"/>
<path d="M8.70359 15.7657H7.0786C6.10802 15.7657 5.32031 14.9782 5.32031 14.0074V7.39696C5.32031 6.42638 6.10783 5.63867 7.0786 5.63867H8.70359C7.73301 5.63867 6.9453 6.42618 6.9453 7.39696V14.0076C6.9453 14.9782 7.73281 15.7657 8.70359 15.7657Z" fill="#E9ECEE"/>
<path d="M8.70359 5.63867C7.73301 5.63867 6.9453 6.42618 6.9453 7.39696V9.75325H5.32031V7.39696C5.32031 6.42638 6.10783 5.63867 7.0786 5.63867H8.70359Z" fill="#E9ECEE"/>
<path d="M16.8336 37.011C20.2129 37.011 22.9524 34.2715 22.9524 30.8922C22.9524 27.5129 20.2129 24.7734 16.8336 24.7734C13.4543 24.7734 10.7148 27.5129 10.7148 30.8922C10.7148 34.2715 13.4543 37.011 16.8336 37.011Z" fill="white"/>
<path d="M23.942 47.2211H9.72656V44.1194C9.72656 40.194 12.9088 37.0117 16.8343 37.0117C20.7597 37.0117 23.942 40.194 23.942 44.1194V47.2211Z" fill="#CBDBE2"/>
<path d="M17.8961 36.9185C17.5519 36.9794 17.1961 37.0106 16.8334 37.0106C13.4552 37.0106 10.7148 34.2716 10.7148 30.892C10.7148 27.5125 13.4552 24.7734 16.8334 24.7734C17.1963 24.7734 17.5519 24.8047 17.8961 24.8656C15.0238 25.3687 12.8402 27.8753 12.8402 30.892C12.8402 33.9088 15.024 36.4155 17.8961 36.9185Z" fill="white"/>
<path d="M17.8968 37.0912C14.4762 37.6041 11.852 40.5558 11.852 44.1194V47.2213H9.72656V44.1194C9.72656 40.1944 12.9092 37.0117 16.8343 37.0117C17.1955 37.0119 17.5511 37.0388 17.8968 37.0912Z" fill="#A4AEB1"/>
<path d="M22.9508 30.892C22.9508 34.2716 20.2118 37.0106 16.8322 37.0106C16.4694 37.0106 16.1138 36.9794 15.7695 36.9185C18.6432 36.4155 20.8254 33.9088 20.8254 30.892C20.8254 27.8753 18.6432 25.3685 15.7695 24.8656C16.1138 24.8047 16.4696 24.7734 16.8322 24.7734C20.2118 24.7734 22.9508 27.5125 22.9508 30.892Z" fill="#E3E4E5"/>
<path d="M23.9398 44.1194V47.2213H21.8143V44.1194C21.8143 42.1568 21.0194 40.38 19.7329 39.0934C18.6842 38.0448 17.3084 37.3207 15.7695 37.0912C16.1167 37.0388 16.471 37.0117 16.8322 37.0117C18.7962 37.0117 20.5731 37.808 21.8583 39.0934C23.1448 40.3802 23.9398 42.157 23.9398 44.1194Z" fill="#B0BBC1"/>
<path d="M48.8197 33.3736C47.3657 33.3736 46.2757 33.3736 44.7426 33.3736C44.7641 33.2585 44.7758 33.1414 44.7758 33.0204V32.9091C44.7758 28.9218 42.3001 25.5376 38.812 24.1716C40.8745 22.9761 42.2513 20.761 42.2513 18.2339V16.534C42.2513 16.3673 42.2431 16.2008 42.231 16.0347C42.8633 15.941 43.3473 15.3965 43.3473 14.7388V10.3592C43.3473 8.71582 42.0124 7.37891 40.369 7.37891H35.0038C33.54 7.37891 32.2343 8.11275 31.4634 9.26035C31.0379 8.90709 30.4934 8.69631 29.9021 8.69631C28.5476 8.69631 27.4449 9.79902 27.4449 11.1535V14.7388C27.4449 15.4273 27.9763 15.9615 28.5624 16.0347C28.5503 16.2008 28.5421 16.3671 28.5421 16.5338V18.2337C28.5421 20.7688 29.927 22.9849 31.9791 24.1704C28.7726 25.3363 26.0182 28.7268 26.0182 32.9089V33.0202C26.0182 33.1412 26.0299 33.2583 26.0513 33.3735H23.2741C23.5727 32.6025 23.7366 31.7652 23.7366 30.8909C23.7366 27.0851 20.6412 23.9916 16.8354 23.9916C13.0315 23.9916 9.93612 27.0851 9.93612 30.8909C9.93612 31.7652 10.1001 32.6025 10.3967 33.3735C8.24673 33.3735 2.93458 33.3735 0.780681 33.3735C0.349355 33.3735 0 33.7228 0 34.1541C0 34.5855 0.349355 34.9348 0.780681 34.9348H2.0044V38.7348C2.0044 39.1661 2.35375 39.5155 2.78508 39.5155H3.9561V47.2188C3.9561 47.6502 4.30546 47.9995 4.73678 47.9995H44.8638C45.2951 47.9995 45.6445 47.6502 45.6445 47.2188V39.5157H46.8155C47.2468 39.5157 47.5962 39.1663 47.5962 38.735V34.935H48.8199C49.2512 34.935 49.6006 34.5857 49.6006 34.1543C49.6006 33.723 49.251 33.3736 48.8197 33.3736ZM43.2144 32.9091V33.0204C43.2144 33.2156 43.0544 33.3736 42.8592 33.3736H38.6396L37.3261 26.6403L37.8316 25.479C40.8484 26.4551 43.2144 29.3399 43.2144 32.9091ZM34.5586 25.1355C34.7788 25.1111 35.099 25.0906 35.3979 25.0906C35.8229 25.0906 36.0809 25.1213 36.2761 25.1394L36.0029 25.7698H34.8553L34.5586 25.1355ZM34.9978 27.3312H35.8702L37.049 33.3736H33.7779L34.9978 27.3312ZM29.006 11.1535C29.006 10.6597 29.4081 10.2577 29.9019 10.2577C30.3742 10.2577 30.7645 10.6285 30.7918 11.1008C30.8153 11.497 31.1334 11.8132 31.5296 11.8346C31.9277 11.8542 32.2751 11.577 32.3415 11.1847C32.562 9.88489 33.6823 8.94027 35.0036 8.94027H40.3688C41.1495 8.94027 41.7858 9.57652 41.7858 10.3592V14.489H29.006V11.1535ZM30.1033 18.2339V16.534C30.1033 16.3724 30.1121 16.2109 30.1267 16.0503H40.6665C40.6811 16.2109 40.6899 16.3724 40.6899 16.534V18.2339C40.6899 21.1103 38.3436 23.5255 35.3965 23.5255C32.4777 23.5255 30.1033 21.1517 30.1033 18.2339ZM27.5793 33.0204V32.9091C27.5793 29.5073 29.7637 26.5062 32.9914 25.4673L33.5418 26.6461L32.1873 33.3736H27.9345C27.7374 33.3736 27.5793 33.2156 27.5793 33.0204ZM11.4973 30.8911C11.4973 27.9479 13.892 25.5532 16.8352 25.5532C19.7803 25.5532 22.1751 27.9479 22.1751 30.8911C22.1751 33.8147 19.7989 36.229 16.8352 36.229C13.8821 36.229 11.4973 33.8221 11.4973 30.8911ZM3.56557 34.935H11.2494C11.8525 35.7664 12.6351 36.4573 13.5407 36.9511C12.9572 37.2205 12.4146 37.5581 11.9189 37.9543C8.90016 37.9543 6.4576 37.9543 3.56557 37.9543V34.935ZM5.51727 39.5157H10.4336C9.49875 40.8116 8.94837 42.4022 8.94837 44.1178V46.4383H5.51727V39.5157ZM10.5097 46.4383V44.1178C10.5097 40.6322 13.3434 37.7903 16.8352 37.7903C20.3155 37.7903 23.1626 40.6219 23.1626 44.1178V46.4383H10.5097ZM44.0829 46.4383H24.724V44.1178C24.724 42.4022 24.1736 40.8116 23.2387 39.5157H44.0829V46.4383ZM46.0346 37.9543C44.9858 37.9543 23.9482 37.9543 21.7535 37.9543C21.2578 37.5581 20.7152 37.2205 20.1316 36.9511C21.0372 36.4573 21.8199 35.7664 22.4229 34.935H46.0346V37.9543Z" fill="#0B182B"/>
<path d="M39.9798 11.7734H39.8744C39.4431 11.7734 39.0938 12.1228 39.0938 12.5541C39.0938 12.9854 39.4431 13.3348 39.8744 13.3348H39.9798C40.4111 13.3348 40.7605 12.9854 40.7605 12.5541C40.7605 12.1228 40.4111 11.7734 39.9798 11.7734Z" fill="#0B182B"/>
<path d="M36.9471 11.7734H34.8002C34.3689 11.7734 34.0195 12.1228 34.0195 12.5541C34.0195 12.9854 34.3689 13.3348 34.8002 13.3348H36.9471C37.3784 13.3348 37.7278 12.9854 37.7278 12.5541C37.7278 12.1228 37.3784 11.7734 36.9471 11.7734Z" fill="#0B182B"/>
<path d="M11.6368 21.2814C12.8527 21.2814 14.0413 21.0784 15.1752 20.6783C17.657 22.1965 20.7557 22.6493 23.591 22.3548C24.7341 22.2436 25.14 20.7753 24.2097 20.085C22.6346 18.9179 21.7778 16.7515 21.327 15.0418C21.9574 13.6561 22.2775 12.1786 22.2775 10.6407C22.2775 4.77387 17.5036 0 11.6368 0C5.76801 0 0.996094 4.77387 0.996094 10.6407C0.996094 16.5095 5.76801 21.2814 11.6368 21.2814ZM11.6368 1.56136C16.6429 1.56136 20.7161 5.63457 20.7161 10.6407C20.7161 12.0362 20.4077 13.375 19.7988 14.6202C19.7188 14.7842 19.6993 14.9715 19.7442 15.1491C20.1872 16.9447 21.0538 19.3063 22.7029 20.8559C20.8918 20.9457 18.093 20.7544 15.7002 19.1618C15.4789 19.0131 15.2018 18.9961 14.9801 19.0857C13.9164 19.5073 12.7902 19.72 11.6368 19.72C6.63066 19.72 2.55746 15.6468 2.55746 10.6407C2.55746 5.63457 6.63066 1.56136 11.6368 1.56136Z" fill="#0B182B"/>
<path d="M7.07842 16.547H16.1129C17.5142 16.547 18.652 15.4072 18.652 14.0078C18.652 11.365 18.6526 8.12245 18.6526 7.39642C18.6526 5.99646 17.5136 4.85745 16.1136 4.85745H14.7223V4.23193C14.7223 3.41377 14.0565 2.74805 13.2384 2.74805H9.95367C9.13552 2.74805 8.46979 3.41377 8.46979 4.23193V4.85745H7.07842C5.66851 4.85745 4.53906 6.01617 4.53906 7.3972V14.0078C4.53926 15.4072 5.67905 16.547 7.07842 16.547ZM14.7067 7.78578C14.2755 7.78578 13.926 8.13533 13.926 8.56646V8.97222H9.26628V8.56646C9.26628 8.13533 8.91673 7.78578 8.4856 7.78578C8.05447 7.78578 7.70492 8.13533 7.70492 8.56646V8.97222H6.10101V7.39661C6.10101 6.85755 6.53917 6.41979 7.07842 6.41979H16.1129C16.6535 6.41979 17.0907 6.85697 17.0907 7.39759V8.97242H15.6154C15.5715 8.97242 15.5293 8.97847 15.4873 8.9853V8.56646C15.4873 8.13533 15.1378 7.78578 14.7067 7.78578ZM16.1129 14.9856H7.07842C6.53975 14.9856 6.10062 14.5465 6.10062 14.0078V10.5336H7.70492V10.9411C7.70492 11.3722 8.05447 11.7218 8.4856 11.7218C8.91673 11.7218 9.26628 11.3722 9.26628 10.9411V10.5336H13.926V10.9411C13.926 11.3722 14.2755 11.7218 14.7067 11.7218C15.1378 11.7218 15.4873 11.3722 15.4873 10.9411V10.5205C15.5293 10.5275 15.5715 10.5334 15.6154 10.5334H17.0907V14.0078C17.0907 14.5465 16.6535 14.9856 16.1129 14.9856ZM10.0314 4.3096H13.1609V4.85745H10.0314V4.3096Z" fill="#0B182B"/>
</svg>
