<svg width="16" height="16" viewBox="0 0 16 16" fill="none" xmlns="http://www.w3.org/2000/svg">
<path d="M10.2833 16H8.62501C8.02085 16 7.52638 15.5213 7.50104 14.9232L6.5666 9.4334L1.07678 8.49899C0.478719 8.47362 0 7.97915 0 7.37499V5.71671C0 4.4749 0.842438 3.40143 2.04866 3.10624L14.6137 0.0311731C14.6154 0.0307356 14.6172 0.0303294 14.6189 0.0299231C15.0002 -0.0590457 15.3931 0.0531107 15.67 0.329986C15.9469 0.606861 16.059 0.999799 15.9701 1.38111C15.9697 1.38286 15.9693 1.38461 15.9689 1.38636L12.8938 13.9514C12.5986 15.1576 11.5251 16 10.2833 16ZM14.8478 1.00336L2.28638 4.07758C1.52897 4.26293 1 4.93696 1 5.71671V7.37499C1 7.44393 1.05606 7.49999 1.125 7.49999C1.15313 7.49999 1.18119 7.50237 1.20891 7.50709L7.08391 8.50709C7.29329 8.54271 7.45729 8.70674 7.49291 8.91609L8.49291 14.7911C8.49763 14.8188 8.50001 14.8469 8.50001 14.875C8.50001 14.9439 8.55607 15 8.62501 15H10.2833C11.063 15 11.7371 14.471 11.9224 13.7136L14.9967 1.15217C15.0088 1.09717 14.9851 1.05927 14.9629 1.03708C14.9407 1.01492 14.9028 0.991205 14.8478 1.00336Z" fill="#946E5F"/>
<path d="M6.99999 9.50003C6.87202 9.50003 6.74409 9.45122 6.64646 9.35356C6.45118 9.15831 6.45118 8.84172 6.64646 8.64647L11.6465 3.64646C11.8417 3.45118 12.1583 3.45118 12.3536 3.64646C12.5488 3.84171 12.5488 4.15831 12.3536 4.35356L7.35356 9.35356C7.2559 9.45122 7.12796 9.50003 6.99999 9.50003Z" fill="#946E5F"/>
</svg>
