<svg width="20" height="20" viewBox="0 0 20 20" fill="none" xmlns="http://www.w3.org/2000/svg">
<path d="M16.1008 8.33314H3.90912C2.67579 8.33314 1.67578 7.32482 1.67578 6.09982V3.90814C1.67578 2.67481 2.68412 1.6748 3.90912 1.6748H16.1008C17.3341 1.6748 18.3341 2.68314 18.3341 3.90814V6.09982C18.3341 7.32482 17.3258 8.33314 16.1008 8.33314Z" stroke="#0F2846" stroke-width="1.5" stroke-linecap="round" stroke-linejoin="round"/>
<path d="M16.1008 18.3331H3.90912C2.67579 18.3331 1.67578 17.3248 1.67578 16.0998V13.9081C1.67578 12.6748 2.68412 11.6748 3.90912 11.6748H16.1008C17.3341 11.6748 18.3341 12.6831 18.3341 13.9081V16.0998C18.3341 17.3248 17.3258 18.3331 16.1008 18.3331Z" stroke="#0F2846" stroke-width="1.5" stroke-linecap="round" stroke-linejoin="round"/>
<path d="M5 4.16699V5.83366" stroke="#A17B67" stroke-width="1.5" stroke-linecap="round" stroke-linejoin="round"/>
<path d="M8.33203 4.16699V5.83366" stroke="#A17B67" stroke-width="1.5" stroke-linecap="round" stroke-linejoin="round"/>
<path d="M5 14.167V15.8337" stroke="#A17B67" stroke-width="1.5" stroke-linecap="round" stroke-linejoin="round"/>
<path d="M8.33203 14.167V15.8337" stroke="#A17B67" stroke-width="1.5" stroke-linecap="round" stroke-linejoin="round"/>
<path d="M11.668 5H15.0013" stroke="#A17B67" stroke-width="1.5" stroke-linecap="round" stroke-linejoin="round"/>
<path d="M11.668 15H15.0013" stroke="#A17B67" stroke-width="1.5" stroke-linecap="round" stroke-linejoin="round"/>
</svg>
