<svg width="56" height="57" viewBox="0 0 56 57" fill="none" xmlns="http://www.w3.org/2000/svg">
<path d="M49.6071 15.5328V31.1613H27.9141V20.4501H34.3438V14.7129H48.783C49.2391 14.7129 49.6071 15.0786 49.6071 15.5328Z" fill="#FBFCFD"/>
<path d="M49.605 15.5328V31.1613H47.1327V15.5328C47.1327 15.0786 46.7647 14.7129 46.3086 14.7129H48.7809C49.237 14.7129 49.605 15.0786 49.605 15.5328Z" fill="#E3E4E5"/>
<path d="M27.9141 20.4512H30.3863V31.1624H27.9141V20.4512Z" fill="#E3E4E5"/>
<path d="M27.9141 20.4496L34.3455 14.7129V20.4496H27.9141Z" fill="#E3E4E5"/>
<path d="M24.2849 29.8401C24.2849 30.5692 23.7109 31.1608 23.0036 31.1608H6.1524C5.44509 31.1608 4.87109 30.5692 4.87109 29.8401C4.87109 24.8061 8.1765 20.9829 12.3459 19.9706C13.062 19.7975 13.809 19.7051 14.5764 19.7051H14.5791C15.3529 19.7051 16.1063 19.7989 16.8277 19.9745C20.9367 20.982 24.2849 24.7623 24.2849 29.8401Z" fill="#BEC6CB"/>
<path d="M16.0155 19.8156C15.7474 19.8551 15.4812 19.9085 15.2205 19.9716C11.0987 20.9737 7.7444 24.7644 7.7444 29.8418C7.7444 30.5704 8.31906 31.1628 9.02593 31.1628H6.15262C5.44576 31.1628 4.87109 30.5704 4.87109 29.8418C4.87109 24.8535 8.14102 20.9942 12.3472 19.9716C13.0635 19.7979 13.8107 19.707 14.5769 19.707H14.5806C15.0691 19.707 15.5482 19.7445 16.0155 19.8156Z" fill="#CBDBE2"/>
<path d="M7.71875 10.6555V12.6324C7.71875 16.5197 10.8043 19.6999 14.5752 19.6999C18.3465 19.6999 21.4317 16.5194 21.4317 12.6324V10.6555C21.4317 6.76961 18.3881 3.61256 14.6182 3.58803C10.8148 3.5635 7.71875 6.73486 7.71875 10.6555Z" fill="#E3E4E5"/>
<path d="M24.285 29.8416C24.285 30.5702 23.7104 31.1626 23.0035 31.1626H20.1302C20.7719 31.1626 21.4117 30.6804 21.4117 29.7133C21.4117 25.0449 18.2916 21.0434 13.9548 19.9755C13.6886 19.9103 13.4165 19.8569 13.1406 19.8156C13.61 19.7445 14.0888 19.707 14.5753 19.707H14.579C15.3529 19.707 16.1056 19.7997 16.8279 19.9755C20.9631 20.9937 24.285 24.7885 24.285 29.8416Z" fill="#BEC6CB"/>
<path d="M16.8258 19.9747L15.8367 22.3123H13.4036L12.3438 19.9706C13.0599 19.7975 13.8068 19.7051 14.5743 19.7051H14.577C15.351 19.7053 16.1044 19.7991 16.8258 19.9747Z" fill="#B1B7BD"/>
<path d="M13.4068 22.3125L11.6758 31.1618H17.5152L15.8399 22.3125H13.4068Z" fill="#B1B7BD"/>
<path d="M16.0128 19.5414C15.5492 19.6461 15.0684 19.6993 14.5761 19.6993C10.8045 19.6993 7.71875 16.5204 7.71875 12.6329V10.6545C7.71875 6.74903 10.793 3.58789 14.5781 3.58789H14.6202C15.099 3.59175 15.5646 3.64513 16.0148 3.74393C12.9174 4.42303 10.5921 7.25847 10.5921 10.6545V12.6329C10.5918 16.0133 12.9251 18.8564 16.0128 19.5414Z" fill="#B1B7BD"/>
<path d="M21.4347 10.6544V12.6329C21.4347 14.5778 20.6628 16.3428 19.4196 17.6243C18.1784 18.9057 16.4621 19.6993 14.5773 19.6993C14.085 19.6993 13.6042 19.6459 13.1406 19.5414C14.4528 19.2512 15.6288 18.572 16.5463 17.6243C17.7895 16.3428 18.5614 14.5776 18.5614 12.6329V10.6544C18.5614 7.26233 16.2398 4.42326 13.1424 3.74393C13.606 3.64127 14.0868 3.58789 14.579 3.58789H14.6211C18.391 3.61151 21.4347 6.76878 21.4347 10.6544Z" fill="#E3E4E5"/>
<path d="M20.1934 0.910156H14.1357C12.1909 0.910156 10.5771 2.36649 10.2622 4.27866C10.2043 3.25546 9.38324 2.44348 8.37604 2.44348C7.33116 2.44348 6.48438 3.31655 6.48438 4.39335V8.56565C6.48438 8.90725 6.75298 9.18412 7.08438 9.18412H22.076C22.4074 9.18412 22.676 8.90725 22.676 8.56565V3.46895C22.676 2.05578 21.5646 0.910156 20.1934 0.910156Z" fill="#E1E5EA"/>
<path d="M3.14844 31.1602H52.8584V55.7458H3.14844V31.1602Z" fill="#E1E5EA"/>
<path d="M48.707 31.1621H52.861V55.7473H48.707V31.1621Z" fill="#B1B7BD"/>
<path d="M3.14844 31.1621H7.42028V55.7469H3.14844V31.1621Z" fill="#FBFCFD"/>
<path d="M19.6275 6.92833H19.7487C20.2334 6.92833 20.6301 6.52178 20.6301 6.01983C20.6301 5.51788 20.2334 5.11133 19.7487 5.11133H19.6275C19.1405 5.11133 18.7461 5.51788 18.7461 6.01983C18.7461 6.52178 19.1405 6.92833 19.6275 6.92833Z" fill="#0B182B"/>
<path d="M13.897 6.92833H16.3208C16.8078 6.92833 17.2022 6.52178 17.2022 6.01983C17.2022 5.51788 16.8078 5.11133 16.3208 5.11133H13.897C13.41 5.11133 13.0156 5.51788 13.0156 6.01983C13.0156 6.52178 13.41 6.92833 13.897 6.92833Z" fill="#0B182B"/>
<path d="M55.1186 30.2516C51.5406 30.2516 54.0773 30.2509 50.4995 30.2509V15.5309C50.4995 14.5769 49.7349 13.8024 48.794 13.8024H34.3548C34.136 13.8024 33.9152 13.8971 33.7781 14.0243L27.3478 19.7602C27.1526 19.9346 27.0437 20.1944 27.0437 20.4481V30.2509H25.1223C25.1619 30.0315 25.1597 29.909 25.1597 29.7103C25.1597 25.5793 23.2606 22.0326 18.4273 19.5417C20.7123 18.1766 22.3102 15.6222 22.3102 12.632V10.6536C22.3102 10.4598 22.301 10.2663 22.2873 10.0733C22.9032 10.0026 23.5492 9.39846 23.5492 8.56514V3.46821C23.5492 1.55581 22.0399 0 20.1846 0H14.127C12.4744 0 11.0003 0.853993 10.1322 2.18949C9.65181 1.77839 9.03484 1.5331 8.36719 1.5331C6.83799 1.5331 5.59304 2.81636 5.59304 4.39261V8.56491C5.59304 9.27604 6.07692 9.93947 6.8554 10.0733C6.84174 10.2663 6.83248 10.4598 6.83248 10.6536V12.632C6.83248 15.5826 8.3965 18.1619 10.7139 19.5412C6.90982 21.0493 3.98231 24.9123 3.98231 29.8375C3.98231 29.9783 3.99553 30.1169 4.01977 30.2509C3.95256 30.2509 3.05289 30.2516 0.881383 30.2516C0.394639 30.2516 0 30.6583 0 31.1601C0 31.6618 0.394639 32.0686 0.881383 32.0686H2.26361V55.7457C2.26361 56.2477 2.65803 56.6542 3.145 56.6542H52.855C53.342 56.6542 53.7364 56.2477 53.7364 55.7457V32.0686H55.1186C55.6054 32.0686 56 31.6618 56 31.1601C56 30.6583 55.6054 30.2516 55.1186 30.2516ZM13.6268 20.6639C13.8721 20.6353 14.2368 20.6117 14.5721 20.6117C15.0549 20.6117 15.3455 20.6473 15.5659 20.6684L15.2552 21.4021H13.9596L13.6268 20.6639ZM14.1204 23.2191H15.1054L16.4363 30.2509H12.7455L14.1204 23.2191ZM33.4734 16.6987V19.5396H30.2887L33.4734 16.6987ZM28.8065 21.3566H34.3548C34.8417 21.3566 35.2362 20.9501 35.2362 20.4481V15.6194H48.7367V30.2509H28.8065V21.3566ZM23.397 29.8375C23.397 30.0669 23.2163 30.2509 22.9959 30.2509H18.2343L16.7491 22.415L17.3198 21.0636C20.7138 22.1954 23.397 25.4964 23.397 29.8375ZM7.3558 4.39261C7.3558 3.81798 7.80972 3.3501 8.36719 3.3501C8.90043 3.3501 9.34332 3.78164 9.37417 4.32901C9.40061 4.79235 9.75757 5.15802 10.2049 5.18528C10.6544 5.20799 11.0466 4.88547 11.1215 4.42895C11.3727 2.91629 12.6353 1.81701 14.127 1.81701H20.1843C21.0679 1.81701 21.7862 2.55743 21.7862 3.46821V8.27419C18.5298 8.27419 8.55757 8.27419 7.3558 8.27419V4.39261ZM8.59525 12.6318V10.6533C8.59525 10.4655 8.60516 10.2779 8.62169 10.091H20.521C20.5375 10.2779 20.5475 10.4655 20.5475 10.6533V12.6318C20.5475 15.9787 17.8985 18.7897 14.5712 18.7897C11.276 18.7899 8.59525 16.0276 8.59525 12.6318ZM5.74508 29.8375C5.74508 25.5017 8.42272 22.189 11.8553 21.05L12.4766 22.4218L10.9474 30.2509H6.14611C5.92576 30.2509 5.74508 30.0669 5.74508 29.8375ZM51.9736 54.8372H4.02638V32.0686H51.9736V54.8372Z" fill="#0B182B"/>
<path d="M30.9859 44.2093C30.9466 44.2512 30.7985 44.4306 30.6605 44.5781C29.8516 45.5059 27.7415 47.0246 26.637 47.4882C26.4693 47.5627 26.0452 47.7203 25.8187 47.7305C25.6015 47.7305 25.3946 47.6784 25.1971 47.5728C24.9509 47.4253 24.7534 47.1931 24.6452 46.9191C24.5755 46.7289 24.4673 46.1597 24.4673 46.1496C24.3591 45.5269 24.2996 44.5152 24.2996 43.3971C24.2996 42.3319 24.3591 41.3614 24.4477 40.7293C24.4579 40.7192 24.5661 40.0119 24.6844 39.7696C24.9015 39.327 25.3256 39.0522 25.7794 39.0522L25.8187 39.0522C26.1142 39.0631 26.7358 39.3379 26.7358 39.348C27.7807 39.8123 29.8422 41.2565 30.6707 42.2162C30.6707 42.2162 30.904 42.4628 31.0055 42.6168C31.1637 42.8381 31.2422 43.1122 31.2422 43.3863C31.2422 43.6922 31.1536 43.9771 30.9859 44.2093Z" fill="#0B182B"/>
<rect x="13.6367" y="35.3301" width="28.2703" height="16.1208" rx="4.25" stroke="#0B182B" stroke-width="0.5"/>
</svg>
