<svg width="20" height="20" viewBox="0 0 20 20" fill="none" xmlns="http://www.w3.org/2000/svg">
<path d="M7.5013 18.3337H12.5013C16.668 18.3337 18.3346 16.667 18.3346 12.5003V7.50033C18.3346 3.33366 16.668 1.66699 12.5013 1.66699H7.5013C3.33464 1.66699 1.66797 3.33366 1.66797 7.50033V12.5003C1.66797 16.667 3.33464 18.3337 7.5013 18.3337Z" stroke="#0F2846" stroke-width="1.5" stroke-linecap="round" stroke-linejoin="round"/>
<path d="M5.83203 6.875C6.66536 7.70833 8.0237 7.70833 8.86537 6.875" stroke="#A17B67" stroke-width="1.5" stroke-miterlimit="10" stroke-linecap="round" stroke-linejoin="round"/>
<path d="M11.1328 6.875C11.9661 7.70833 13.3245 7.70833 14.1661 6.875" stroke="#A17B67" stroke-width="1.5" stroke-miterlimit="10" stroke-linecap="round" stroke-linejoin="round"/>
<path d="M7 10.833H13C13.4167 10.833 13.75 11.1663 13.75 11.583C13.75 13.658 12.075 15.333 10 15.333C7.925 15.333 6.25 13.658 6.25 11.583C6.25 11.1663 6.58333 10.833 7 10.833Z" stroke="#A17B67" stroke-width="1.5" stroke-miterlimit="10" stroke-linecap="round" stroke-linejoin="round"/>
</svg>
