<svg width="16" height="18" viewBox="0 0 16 18" fill="none" xmlns="http://www.w3.org/2000/svg">
<path d="M1 10.1429V1.5C1 1.2643 1 1.14645 1.07322 1.07322C1.14645 1 1.2643 1 1.5 1H6.09625C6.39696 1 6.54731 1 6.66813 1.07467C6.78896 1.14935 6.8562 1.28383 6.99068 1.55279L7.58075 2.73293C7.71523 3.00189 7.78247 3.13637 7.90329 3.21104C8.02412 3.28571 8.17447 3.28571 8.47518 3.28571H14.2143C14.45 3.28571 14.5678 3.28571 14.6411 3.35894C14.7143 3.43216 14.7143 3.55001 14.7143 3.78571V11.9286C14.7143 12.1643 14.7143 12.2821 14.6411 12.3553C14.5678 12.4286 14.45 12.4286 14.2143 12.4286H8.47518C8.17447 12.4286 8.02412 12.4286 7.90329 12.3539C7.78247 12.2792 7.71523 12.1447 7.58075 11.8758L6.99068 10.6956C6.8562 10.4267 6.78896 10.2922 6.66813 10.2175C6.54731 10.1429 6.39696 10.1429 6.09625 10.1429H1ZM1 10.1429V17" stroke="#0F2846" stroke-linecap="round"/>
</svg>
