<svg width="40" height="48" viewBox="0 0 40 48" fill="none" xmlns="http://www.w3.org/2000/svg">
<path d="M3.98438 0.818359H35.1632V42.1307H3.98438V0.818359Z" fill="#FBFCFD"/>
<path d="M3.98438 0.818359H7.10005V42.1307H3.98438V0.818359Z" fill="white"/>
<path d="M32.0469 0.818359H35.1626V42.1307H32.0469V0.818359Z" fill="#E3E4E5"/>
<path d="M38.3201 47.1826H0.828125V19.4297L19.5741 28.2239L38.3201 19.4297V47.1826Z" fill="#946E5F"/>
<path d="M0.828125 19.4297L3.9438 20.892V47.1826H0.828125V19.4297Z" fill="#A57F6A"/>
<path d="M38.3227 19.4297V47.1826H35.207V20.892L38.3227 19.4297Z" fill="#7A554F"/>
<path d="M37.9654 18.6905L35.9965 19.6143V0.818066C35.9965 0.366289 35.6245 0 35.1656 0H3.98807C3.52923 0 3.15722 0.366289 3.15722 0.818066V19.6143L1.18832 18.6905C0.636014 18.4312 0 18.83 0 19.4291V47.1819C0 47.6337 0.372012 48 0.830848 48H38.3228C38.7817 48 39.1537 47.6337 39.1537 47.1819V19.4291C39.1537 18.8296 38.5179 18.4318 37.9654 18.6905ZM4.81892 1.63613H34.3348V20.3938L19.5768 27.3171L4.81892 20.3938V1.63613ZM37.492 46.3639H1.6617V20.7249L19.2194 28.9616C19.4456 29.0677 19.7081 29.0677 19.9341 28.9616L37.4918 20.7249V46.3639H37.492Z" fill="#0B182B"/>
<path d="M8.83085 8.58925H30.3265C30.7854 8.58925 31.1574 8.22297 31.1574 7.77119C31.1574 7.31941 30.7854 6.95312 30.3265 6.95312H8.83085C8.37201 6.95312 8 7.31941 8 7.77119C8 8.22297 8.37201 8.58925 8.83085 8.58925Z" fill="#0B182B"/>
<path d="M31.1574 13.0896C31.1574 12.6378 30.7854 12.2715 30.3265 12.2715H8.83085C8.37201 12.2715 8 12.6378 8 13.0896C8 13.5413 8.37201 13.9076 8.83085 13.9076H30.3265C30.7854 13.9076 31.1574 13.5413 31.1574 13.0896Z" fill="#0B182B"/>
<path d="M26.4256 17.5879H24.1473C23.6884 17.5879 23.3164 17.9542 23.3164 18.406C23.3164 18.8577 23.6884 19.224 24.1473 19.224H26.4256C26.8845 19.224 27.2565 18.8577 27.2565 18.406C27.2565 17.9542 26.8845 17.5879 26.4256 17.5879Z" fill="#0B182B"/>
<path d="M21.8647 18.406C21.8647 17.9542 21.4927 17.5879 21.0339 17.5879H12.7254C12.2665 17.5879 11.8945 17.9542 11.8945 18.406C11.8945 18.8577 12.2665 19.224 12.7254 19.224H21.0339C21.4927 19.224 21.8647 18.8577 21.8647 18.406Z" fill="#0B182B"/>
</svg>
