<svg width="33" height="48" viewBox="0 0 33 48" fill="none" xmlns="http://www.w3.org/2000/svg">
<path d="M21.6115 47.2315H10.9927C9.5686 47.2315 8.41406 46.0944 8.41406 44.6919C8.41406 43.2894 9.5686 42.1523 10.9927 42.1523H21.6115C23.0356 42.1523 24.1902 43.2894 24.1902 44.6919C24.19 46.0944 23.0356 47.2315 21.6115 47.2315Z" fill="#946E5F"/>
<path d="M29.0298 24.9888C33.0856 19.1096 32.7025 11.2199 27.92 5.89683C21.7842 -0.932366 10.8392 -0.951973 4.6859 5.89683C-0.0966036 11.2197 -0.479758 19.1096 3.57606 24.9888L14.9206 41.4336C15.5837 42.395 17.0222 42.395 17.6853 41.4336L29.0298 24.9888Z" fill="#83909E"/>
<path d="M17.5211 41.4328C17.5471 41.4703 17.5748 41.5063 17.6025 41.5405C16.9108 42.3924 15.5568 42.3567 14.9206 41.4328L3.57552 24.9888C-0.479521 19.1102 -0.0963665 11.2203 4.68497 5.89661C8.07266 2.12658 12.9129 0.438023 17.6025 0.820562C13.7763 1.1314 10.0489 2.82169 7.28546 5.89661C2.50393 11.2203 2.12078 19.1102 6.17601 24.9888L17.5211 41.4328Z" fill="#ADB6C0"/>
<path d="M29.0309 24.9886L17.6858 41.4327C17.0495 42.3563 15.6955 42.3923 15.0039 41.5403C15.0316 41.5061 15.0593 41.4703 15.0853 41.4327L26.4304 24.9886C30.4855 19.11 30.1023 11.2201 25.321 5.89645C22.5628 2.82652 18.8337 1.13278 15.0039 0.820402C19.6988 0.437863 24.5408 2.13334 27.9215 5.89645C32.7028 11.2201 33.086 19.11 29.0309 24.9886Z" fill="#5B6B82"/>
<path d="M16.2999 27.3048C22.6722 27.3048 27.8381 22.2173 27.8381 15.9415C27.8381 9.66567 22.6722 4.57812 16.2999 4.57812C9.92753 4.57812 4.76172 9.66567 4.76172 15.9415C4.76172 22.2173 9.92753 27.3048 16.2999 27.3048Z" fill="#946E5F"/>
<path d="M17.2628 27.2646C16.9456 27.2912 16.6245 27.3039 16.2995 27.3039C9.92758 27.3039 4.76172 22.2163 4.76172 15.9409C4.76172 9.66552 9.92758 4.57812 16.2995 4.57812C16.6245 4.57812 16.9456 4.59081 17.2628 4.61734C11.3417 5.09926 6.68842 9.98577 6.68842 15.9411C6.68842 21.8964 11.3417 26.7827 17.2628 27.2646Z" fill="#C3A695"/>
<path d="M27.837 15.9411C27.837 22.2165 22.6711 27.3041 16.2992 27.3041C15.9742 27.3041 15.6531 27.2914 15.3359 27.2648C21.257 26.7829 25.9105 21.8964 25.9105 15.9411C25.9105 9.98577 21.2572 5.09926 15.3359 4.61734C15.6531 4.59081 15.9742 4.57812 16.2992 4.57812C22.6711 4.57812 27.837 9.66571 27.837 15.9411Z" fill="#A57F6A"/>
<path d="M18.0186 8.99812L18.944 10.8445C19.2249 11.405 19.7679 11.7935 20.396 11.8835L22.465 12.1795C24.0468 12.406 24.6782 14.3202 23.5337 15.419L22.0366 16.8563C21.582 17.2927 21.3747 17.9213 21.482 18.5374L21.8355 20.5668C22.1057 22.1183 20.4522 23.3013 19.0375 22.5689L17.1869 21.6106C16.6252 21.3197 15.9539 21.3197 15.3922 21.6106L13.5416 22.5689C12.1269 23.3013 10.4734 22.1183 10.7436 20.5668L11.097 18.5374C11.2044 17.9213 10.9969 17.2927 10.5425 16.8563L9.04542 15.419C7.90084 14.3202 8.53247 12.406 10.1141 12.1795L12.1831 11.8835C12.8112 11.7935 13.3542 11.405 13.6351 10.8445L14.5605 8.99812C15.2674 7.58657 17.3113 7.58657 18.0186 8.99812Z" fill="#F2EBE7"/>
<path d="M23.5348 15.4187L22.0377 16.8562C21.5832 17.2922 21.3761 17.921 21.483 18.5373L21.8365 20.5672C22.0897 22.0203 20.6542 23.1501 19.3092 22.6852C20.1438 22.3988 20.7563 21.558 20.5834 20.5672L20.2299 18.5373C20.1229 17.921 20.3302 17.2924 20.7846 16.8562L22.2817 15.4187C23.4263 14.3203 22.7947 12.4055 21.2131 12.1792L19.1437 11.883C18.5154 11.7932 17.9731 11.4049 17.6917 10.8446L16.7669 8.99821C16.5221 8.51033 16.1177 8.19103 15.6641 8.04052C16.5221 7.75505 17.5572 8.07435 18.0202 8.99821L18.945 10.8446C19.2264 11.4049 19.7687 11.7932 20.397 11.883L22.4664 12.1792C24.048 12.4055 24.6796 14.3203 23.5348 15.4187Z" fill="#E4D3C9"/>
<path d="M16.9162 8.04052C16.4626 8.19103 16.0581 8.51033 15.8134 8.99821L14.8886 10.8446C14.6071 11.4049 14.0649 11.7932 13.4366 11.883L11.3672 12.1792C9.78557 12.4055 9.15394 14.3201 10.2985 15.4187L11.7956 16.8562C12.25 17.2922 12.4573 17.921 12.3503 18.5373L11.9969 20.5672C11.8239 21.558 12.4362 22.3988 13.2711 22.6852C11.926 23.1501 10.4906 22.0203 10.7438 20.5672L11.0972 18.5373C11.2042 17.921 10.9969 17.2924 10.5425 16.8562L9.04542 15.4187C7.90084 14.3203 8.53247 12.4055 10.1141 12.1792L12.1835 11.883C12.8118 11.7932 13.354 11.4049 13.6355 10.8446L14.5603 8.99821C15.0231 8.07435 16.0581 7.75505 16.9162 8.04052Z" fill="#E4D3C9"/>
<path d="M28.5025 5.38567C22.0605 -1.78416 10.5608 -1.80627 4.09906 5.38567C-0.893855 10.9429 -1.37519 19.1811 2.92813 25.4194L13.9409 41.383H10.9914C9.13902 41.383 7.63197 42.8672 7.63197 44.6915C7.63197 46.5158 9.13902 48 10.9914 48H21.6102C23.4625 48 24.9696 46.5158 24.9696 44.6915C24.9696 42.8672 23.4625 41.383 21.6102 41.383H18.6607L29.6734 25.4194C33.9767 19.1809 33.4952 10.9429 28.5025 5.38567ZM21.6102 42.9209C22.6016 42.9209 23.4081 43.7152 23.4081 44.6915C23.4081 45.6679 22.6016 46.4622 21.6102 46.4622H10.9914C10 46.4622 9.19348 45.6679 9.19348 44.6915C9.19348 43.7152 10 42.9209 10.9914 42.9209H21.6102ZM17.0371 40.9999C16.6813 41.5157 15.9136 41.5066 15.564 40.9999L4.2195 24.5551C0.317485 18.8989 0.74885 11.4352 5.26824 6.40487C11.1118 -0.0990678 21.5151 -0.0704257 27.3329 6.40487C31.8523 11.4352 32.2837 18.8989 28.3817 24.5551L17.0371 40.9999Z" fill="#0B182B"/>
<path d="M16.2994 3.80859C9.50664 3.80859 3.98047 9.25123 3.98047 15.9409C3.98047 22.6305 9.50664 28.0733 16.2994 28.0733C23.0921 28.0733 28.6183 22.6307 28.6183 15.9411C28.6183 9.25142 23.0921 3.80859 16.2994 3.80859ZM16.2994 26.5355C10.3676 26.5355 5.54198 21.7828 5.54198 15.9411C5.54198 10.0994 10.3676 5.34644 16.2994 5.34644C22.2312 5.34644 27.0568 10.0992 27.0568 15.9409C27.0568 21.7826 22.2312 26.5355 16.2994 26.5355Z" fill="#0B182B"/>
<path d="M22.5771 11.4192C19.4342 10.9696 20.1 11.415 18.7186 8.65837C17.7249 6.6759 14.8529 6.67686 13.8598 8.65837L12.9346 10.5048C12.7673 10.8385 12.4443 11.0695 12.0705 11.1232L10.0015 11.4192C7.78008 11.7373 6.89334 14.4278 8.50013 15.9703C10.7731 18.1521 10.502 17.4055 9.974 20.4373C9.59455 22.6159 11.9183 24.2783 13.9049 23.25C16.716 21.7945 15.9109 21.8193 18.6743 23.25C20.6611 24.2787 22.9845 22.6155 22.605 20.4373C22.0659 17.3411 21.8477 18.1119 24.0789 15.9703C25.6861 14.4268 24.7976 11.737 22.5771 11.4192ZM22.9886 14.869C20.2846 17.4647 20.4377 17.0908 21.0656 20.6972C21.2268 21.6234 20.2434 22.3252 19.4004 21.8887C16.058 20.1582 16.4664 20.1859 13.1778 21.8887C12.335 22.325 11.3514 21.6234 11.5127 20.6972L11.8662 18.6676C12.342 15.9362 8.75154 15.3713 9.29943 13.7102C9.83932 12.0741 13.1007 13.6477 14.3347 11.1852L15.2599 9.33887C15.6813 8.49767 16.8962 8.49632 17.3182 9.33887C17.3182 9.33868 18.2434 11.1852 18.2434 11.1852C18.638 11.9728 19.4006 12.5186 20.2833 12.6449L22.3523 12.9409C22.7944 13.0041 23.1406 13.2917 23.2788 13.7102C23.417 14.1287 23.3085 14.5618 22.9886 14.869Z" fill="#0B182B"/>
<path d="M18.1866 34.3468C17.8229 34.1189 17.3402 34.2246 17.1087 34.5827L15.6417 36.8532C15.4102 37.2115 15.5174 37.6867 15.8812 37.9147C16.2446 38.1426 16.7275 38.0373 16.959 37.6788L18.4261 35.4083C18.6576 35.05 18.5502 34.5748 18.1866 34.3468Z" fill="#0B182B"/>
<path d="M20.8187 30.2746C20.455 30.0466 19.9723 30.1522 19.7408 30.5105L18.6808 32.151C18.4493 32.5093 18.5564 32.9845 18.9203 33.2125C19.2837 33.4405 19.7666 33.3351 19.9981 32.9766L21.0582 31.3361C21.2899 30.9778 21.1825 30.5026 20.8187 30.2746Z" fill="#0B182B"/>
</svg>
