<svg width="73" height="13" viewBox="0 0 73 13" fill="none" xmlns="http://www.w3.org/2000/svg">
<path d="M9.86952 7.79324C9.71136 7.94652 9.63869 8.16819 9.67472 8.38559L10.2176 11.3901C10.2634 11.6447 10.1559 11.9024 9.9428 12.0496C9.73396 12.2022 9.4561 12.2206 9.22833 12.0984L6.52369 10.6878C6.42965 10.6377 6.32523 10.6108 6.21836 10.6078H6.05287C5.99547 10.6163 5.93929 10.6347 5.88799 10.6628L3.18275 12.0801C3.04902 12.1473 2.89757 12.1711 2.74918 12.1473C2.38767 12.0789 2.14645 11.7345 2.20569 11.3711L2.74918 8.36666C2.78521 8.14743 2.71254 7.92454 2.55438 7.76882L0.34927 5.63149C0.16485 5.45257 0.10073 5.18388 0.185002 4.94144C0.266831 4.69962 0.475678 4.52314 0.727882 4.48345L3.76288 4.04316C3.99371 4.01934 4.19645 3.87889 4.30027 3.67126L5.63762 0.92938C5.66938 0.868314 5.71029 0.812133 5.75975 0.764501L5.81471 0.721755C5.84342 0.69 5.87639 0.663742 5.91303 0.642368L5.97959 0.617942L6.08341 0.575195H6.3405C6.57011 0.599011 6.77224 0.736411 6.87788 0.941594L8.23294 3.67126C8.33065 3.87095 8.52057 4.00957 8.7398 4.04316L11.7748 4.48345C12.0313 4.52009 12.2456 4.69718 12.3305 4.94144C12.4105 5.18632 12.3415 5.45501 12.1534 5.63149L9.86952 7.79324Z" fill="#946E5F"/>
<path d="M24.9867 7.79324C24.8285 7.94652 24.7559 8.16819 24.7919 8.38559L25.3348 11.3901C25.3806 11.6447 25.2731 11.9024 25.06 12.0496C24.8511 12.2022 24.5733 12.2206 24.3455 12.0984L21.6409 10.6878C21.5468 10.6377 21.4424 10.6108 21.3356 10.6078H21.1701C21.1127 10.6163 21.0565 10.6347 21.0052 10.6628L18.2999 12.0801C18.1662 12.1473 18.0148 12.1711 17.8664 12.1473C17.5049 12.0789 17.2636 11.7345 17.3229 11.3711L17.8664 8.36666C17.9024 8.14743 17.8297 7.92454 17.6716 7.76882L15.4665 5.63149C15.282 5.45257 15.2179 5.18388 15.3022 4.94144C15.384 4.69962 15.5929 4.52314 15.8451 4.48345L18.8801 4.04316C19.1109 4.01934 19.3136 3.87889 19.4175 3.67126L20.7548 0.92938C20.7866 0.868314 20.8275 0.812133 20.8769 0.764501L20.9319 0.721755C20.9606 0.69 20.9936 0.663742 21.0302 0.642368L21.0968 0.617942L21.2006 0.575195H21.4577C21.6873 0.599011 21.8894 0.736411 21.9951 0.941594L23.3501 3.67126C23.4478 3.87095 23.6378 4.00957 23.857 4.04316L26.892 4.48345C27.1485 4.52009 27.3628 4.69718 27.4477 4.94144C27.5277 5.18632 27.4587 5.45501 27.2706 5.63149L24.9867 7.79324Z" fill="#946E5F"/>
<path d="M40.1039 7.79324C39.9457 7.94652 39.8731 8.16819 39.9091 8.38559L40.452 11.3901C40.4978 11.6447 40.3903 11.9024 40.1772 12.0496C39.9683 12.2022 39.6905 12.2206 39.4627 12.0984L36.7581 10.6878C36.664 10.6377 36.5596 10.6108 36.4527 10.6078H36.2872C36.2298 10.6163 36.1737 10.6347 36.1224 10.6628L33.4171 12.0801C33.2834 12.1473 33.1319 12.1711 32.9836 12.1473C32.622 12.0789 32.3808 11.7345 32.4401 11.3711L32.9836 8.36666C33.0196 8.14743 32.9469 7.92454 32.7888 7.76882L30.5836 5.63149C30.3992 5.45257 30.3351 5.18388 30.4194 4.94144C30.5012 4.69962 30.7101 4.52314 30.9623 4.48345L33.9973 4.04316C34.2281 4.01934 34.4308 3.87889 34.5346 3.67126L35.872 0.92938C35.9038 0.868314 35.9447 0.812133 35.9941 0.764501L36.0491 0.721755C36.0778 0.69 36.1108 0.663742 36.1474 0.642368L36.214 0.617942L36.3178 0.575195H36.5749C36.8045 0.599011 37.0066 0.736411 37.1123 0.941594L38.4673 3.67126C38.565 3.87095 38.7549 4.00957 38.9742 4.04316L42.0092 4.48345C42.2656 4.52009 42.48 4.69718 42.5649 4.94144C42.6449 5.18632 42.5759 5.45501 42.3878 5.63149L40.1039 7.79324Z" fill="#946E5F"/>
<path d="M55.2172 7.79324C55.059 7.94652 54.9863 8.16819 55.0224 8.38559L55.5653 11.3901C55.6111 11.6447 55.5036 11.9024 55.2905 12.0496C55.0816 12.2022 54.8038 12.2206 54.576 12.0984L51.8714 10.6878C51.7773 10.6377 51.6729 10.6108 51.566 10.6078H51.4005C51.3431 10.6163 51.2869 10.6347 51.2357 10.6628L48.5304 12.0801C48.3967 12.1473 48.2452 12.1711 48.0968 12.1473C47.7353 12.0789 47.4941 11.7345 47.5533 11.3711L48.0968 8.36666C48.1329 8.14743 48.0602 7.92454 47.902 7.76882L45.6969 5.63149C45.5125 5.45257 45.4484 5.18388 45.5327 4.94144C45.6145 4.69962 45.8233 4.52314 46.0755 4.48345L49.1105 4.04316C49.3414 4.01934 49.5441 3.87889 49.6479 3.67126L50.9853 0.92938C51.017 0.868314 51.0579 0.812133 51.1074 0.764501L51.1624 0.721755C51.1911 0.69 51.224 0.663742 51.2607 0.642368L51.3272 0.617942L51.4311 0.575195H51.6882C51.9178 0.599011 52.1199 0.736411 52.2255 0.941594L53.5806 3.67126C53.6783 3.87095 53.8682 4.00957 54.0875 4.04316L57.1225 4.48345C57.3789 4.52009 57.5933 4.69718 57.6782 4.94144C57.7582 5.18632 57.6891 5.45501 57.5011 5.63149L55.2172 7.79324Z" fill="#946E5F"/>
<path d="M70.3344 7.79324C70.1762 7.94652 70.1035 8.16819 70.1396 8.38559L70.6824 11.3901C70.7282 11.6447 70.6208 11.9024 70.4076 12.0496C70.1988 12.2022 69.9209 12.2206 69.6932 12.0984L66.9885 10.6878C66.8945 10.6377 66.7901 10.6108 66.6832 10.6078H66.5177C66.4603 10.6163 66.4041 10.6347 66.3528 10.6628L63.6476 12.0801C63.5139 12.1473 63.3624 12.1711 63.214 12.1473C62.8525 12.0789 62.6113 11.7345 62.6705 11.3711L63.214 8.36666C63.2501 8.14743 63.1774 7.92454 63.0192 7.76882L60.8141 5.63149C60.6297 5.45257 60.5656 5.18388 60.6498 4.94144C60.7317 4.69962 60.9405 4.52314 61.1927 4.48345L64.2277 4.04316C64.4586 4.01934 64.6613 3.87889 64.7651 3.67126L66.1025 0.92938C66.1342 0.868314 66.1751 0.812133 66.2246 0.764501L66.2796 0.721755C66.3083 0.69 66.3412 0.663742 66.3779 0.642368L66.4444 0.617942L66.5483 0.575195H66.8053C67.0349 0.599011 67.2371 0.736411 67.3427 0.941594L68.6978 3.67126C68.7955 3.87095 68.9854 4.00957 69.2046 4.04316L72.2396 4.48345C72.4961 4.52009 72.7105 4.69718 72.7953 4.94144C72.8753 5.18632 72.8063 5.45501 72.6183 5.63149L70.3344 7.79324Z" fill="#946E5F"/>
</svg>
