<svg width="24" height="16" viewBox="0 0 24 16" fill="none" xmlns="http://www.w3.org/2000/svg">
<path d="M13.5513 7.51906L13.5533 7.99119C13.5533 9.95337 13.4384 11.7422 13.2653 12.9084L13.1137 13.6336C13.0293 14.0176 12.9184 14.4549 12.8028 14.6782C12.3795 15.4948 11.5519 16 10.6661 16H10.589C10.0115 15.9809 8.79844 15.4742 8.79844 15.4566C6.84646 14.6376 3.08061 12.1657 1.34133 10.4035L0.835905 9.87442C0.703552 9.73103 0.554854 9.56132 0.46254 9.42904C0.15418 9.02075 0 8.51551 0 8.01028C0 7.4463 0.173089 6.92198 0.500358 6.49312L1.01964 5.93271L1.13599 5.81311C2.71415 4.10208 6.83483 1.3042 8.99044 0.447953L9.31589 0.323228C9.70752 0.182853 10.2562 0.0154213 10.589 0C11.0122 0 11.4166 0.0984028 11.802 0.292271C12.2835 0.56398 12.6675 0.99284 12.8798 1.49807C13.0151 1.84762 13.2275 2.89774 13.2275 2.91683C13.4222 3.97565 13.535 5.64642 13.5513 7.51906ZM24 8.00059C24 9.11827 23.1026 10.0245 21.9957 10.0245L17.0634 9.58825C16.195 9.58825 15.491 8.8774 15.491 8.00059C15.491 7.12231 16.195 6.41292 17.0634 6.41292L21.9957 5.97672C23.1026 5.97672 24 6.88291 24 8.00059Z" fill="#0F2846"/>
</svg>
