<svg width="20" height="16" viewBox="0 0 20 16" fill="none" xmlns="http://www.w3.org/2000/svg">
<path d="M0.538097 4.70781L7.32147 0.195911C7.49671 0.0788399 7.70048 0.0115968 7.91098 0.0013701C8.12148 -0.00885661 8.33081 0.0383178 8.51657 0.13785C8.70817 0.241221 8.86805 0.39473 8.97913 0.581956C9.09021 0.769183 9.1483 0.983084 9.14719 1.20078V2.85626H12.0045C13.9742 2.85848 15.8625 3.6419 17.2552 5.03464C18.648 6.42738 19.4314 8.3157 19.4336 10.2853V15.4285C19.4336 15.562 19.3868 15.6912 19.3015 15.7939C19.2162 15.8965 19.0977 15.9661 18.9665 15.9905C18.9319 15.9967 18.8969 15.9999 18.8618 16C18.7464 16 18.6337 15.965 18.5386 15.8997C18.4434 15.8343 18.3703 15.7417 18.3289 15.6339C17.5732 13.6695 14.9643 8.57093 12.0045 8.57093H9.14719V10.2262C9.1483 10.4439 9.09021 10.6578 8.97913 10.845C8.86805 11.0322 8.70817 11.1857 8.51657 11.2891C8.33091 11.3887 8.12166 11.436 7.9112 11.4259C7.70074 11.4158 7.49699 11.3486 7.32175 11.2316L0.538097 6.71938C0.372318 6.60914 0.236357 6.45963 0.142313 6.28416C0.0482693 6.10868 -0.00094223 5.91268 -0.00094223 5.7136C-0.00094223 5.51451 0.0482693 5.31851 0.142313 5.14303C0.236357 4.96756 0.372318 4.81805 0.538097 4.70781Z" fill="#946E5F"/>
</svg>
