<svg width="32" height="32" viewBox="0 0 32 32" fill="none" xmlns="http://www.w3.org/2000/svg">
<path d="M21.8331 4.33313C23.3789 4.33774 24.8601 4.95385 25.9531 6.04689C27.0462 7.13993 27.6623 8.62109 27.6669 10.1669V21.8331C27.6623 23.3789 27.0462 24.8601 25.9531 25.9531C24.8601 27.0462 23.3789 27.6623 21.8331 27.6669H10.1669C8.62109 27.6623 7.13993 27.0462 6.04689 25.9531C4.95385 24.8601 4.33774 23.3789 4.33313 21.8331V10.1669C4.33774 8.62109 4.95385 7.13993 6.04689 6.04689C7.13993 4.95385 8.62109 4.33774 10.1669 4.33313H21.8331ZM21.8331 2H10.1669C5.675 2 2 5.675 2 10.1669V21.8331C2 26.325 5.675 30 10.1669 30H21.8331C26.325 30 30 26.325 30 21.8331V10.1669C30 5.675 26.325 2 21.8331 2Z" fill="#A0ADB6"/>
<path d="M23.5831 10.168C23.237 10.168 22.8987 10.0653 22.6109 9.87304C22.3231 9.68075 22.0988 9.40744 21.9663 9.08767C21.8339 8.7679 21.7992 8.41603 21.8667 8.07656C21.9343 7.7371 22.1009 7.42527 22.3457 7.18053C22.5904 6.93579 22.9022 6.76912 23.2417 6.7016C23.5812 6.63407 23.933 6.66873 24.2528 6.80118C24.5726 6.93363 24.8459 7.15794 25.0382 7.44572C25.2305 7.73351 25.3331 8.07185 25.3331 8.41797C25.3336 8.64792 25.2887 8.87571 25.2009 9.08825C25.1131 9.30079 24.9843 9.49391 24.8217 9.65651C24.6591 9.81911 24.4659 9.948 24.2534 10.0358C24.0409 10.1235 23.8131 10.1685 23.5831 10.168ZM16 11.3342C16.923 11.3342 17.8253 11.6079 18.5928 12.1207C19.3602 12.6335 19.9584 13.3624 20.3116 14.2152C20.6649 15.0679 20.7573 16.0063 20.5772 16.9116C20.3971 17.8168 19.9526 18.6484 19.3 19.3011C18.6473 19.9538 17.8157 20.3982 16.9105 20.5783C16.0052 20.7584 15.0668 20.666 14.2141 20.3127C13.3613 19.9595 12.6324 19.3613 12.1196 18.5939C11.6068 17.8264 11.3331 16.9241 11.3331 16.0011C11.3345 14.7638 11.8266 13.5775 12.7015 12.7026C13.5764 11.8277 14.7627 11.3355 16 11.3342ZM16 9.0011C14.6155 9.0011 13.2622 9.41164 12.111 10.1808C10.9599 10.95 10.0627 12.0432 9.53285 13.3223C9.00303 14.6014 8.86441 16.0089 9.13451 17.3667C9.4046 18.7246 10.0713 19.9719 11.0503 20.9508C12.0292 21.9298 13.2765 22.5965 14.6344 22.8666C15.9922 23.1367 17.3997 22.9981 18.6788 22.4683C19.9579 21.9384 21.0511 21.0412 21.8203 19.8901C22.5895 18.7389 23 17.3856 23 16.0011C23 14.1446 22.2625 12.3641 20.9497 11.0513C19.637 9.73859 17.8565 9.0011 16 9.0011Z" fill="#A0ADB6"/>
</svg>
