<svg width="96" height="96" viewBox="0 0 96 96" fill="none" xmlns="http://www.w3.org/2000/svg">
<path d="M48.0007 94.4545C73.6564 94.4545 94.4545 73.6564 94.4545 48.0007C94.4545 22.345 73.6564 1.54688 48.0007 1.54688C22.345 1.54688 1.54688 22.345 1.54688 48.0007C1.54688 73.6564 22.345 94.4545 48.0007 94.4545Z" fill="#C3A695"/>
<path d="M6.98436 48.0007C6.98436 23.2578 26.3296 3.03622 50.7193 1.62805C49.8194 1.57625 48.9133 1.54688 48.0007 1.54688C22.3451 1.54688 1.54688 22.3451 1.54688 48.0007C1.54688 73.6563 22.3451 94.4545 48.0007 94.4545C48.9137 94.4545 49.8194 94.4252 50.7193 94.3734C26.3292 92.9652 6.98436 72.7436 6.98436 48.0007Z" fill="#DFC8BA"/>
<path d="M89.0161 48.0007C89.0161 23.2578 69.6709 3.03622 45.2812 1.62805C46.1811 1.57625 47.0872 1.54688 47.9998 1.54688C73.6554 1.54688 94.4536 22.3448 94.4536 48.0007C94.4536 73.6567 73.6554 94.4545 47.9998 94.4545C47.0868 94.4545 46.1811 94.4252 45.2812 94.3734C69.6713 92.9652 89.0161 72.7436 89.0161 48.0007Z" fill="#946E5F"/>
<path d="M48.0019 84.7265C68.2843 84.7265 84.7265 68.2843 84.7265 48.0019C84.7265 27.7195 68.2843 11.2773 48.0019 11.2773C27.7195 11.2773 11.2773 27.7195 11.2773 48.0019C11.2773 68.2843 27.7195 84.7265 48.0019 84.7265Z" fill="white"/>
<path d="M51.0664 84.5966C50.0568 84.6824 49.0348 84.7234 48.0004 84.7234C27.7197 84.7234 11.2773 68.2814 11.2773 48.0004C11.2773 27.7193 27.7197 11.2773 48.0004 11.2773C49.0348 11.2773 50.0568 11.3183 51.0664 11.4041C32.2206 12.9615 17.4094 28.7537 17.4094 48.0004C17.4094 67.2471 32.2206 83.0392 51.0664 84.5966Z" fill="white"/>
<path d="M84.7188 48.0004C84.7188 68.2811 68.2764 84.7234 47.9957 84.7234C46.9614 84.7234 45.9393 84.6824 44.9297 84.5966C63.7755 83.0388 78.5867 67.2471 78.5867 48.0004C78.5867 28.7537 63.7755 12.9615 44.9297 11.4041C45.9393 11.3183 46.9614 11.2773 47.9957 11.2773C68.2764 11.2773 84.7188 27.7197 84.7188 48.0004Z" fill="#E3E4E5"/>
<path d="M61.2798 35.6799H61.5326C67.2078 35.6799 71.808 40.2805 71.808 45.9553V60.7316C71.808 66.4069 67.2074 71.0071 61.5326 71.0071H53.2765C48.5498 71.0071 44.2627 69.1494 41.0938 66.1282C40.6705 65.7215 40.1031 65.5035 39.5194 65.5035H31.0781V40.0118H40.8016C41.3686 40.0118 41.9237 39.8062 42.347 39.4239C46.4838 35.676 52.692 26.1675 55.7955 21.5382C56.4287 20.5931 57.7027 20.3423 58.6482 20.9712C62.6389 23.6607 62.9899 27.4902 61.206 30.317L59.6672 32.7553C58.8662 34.0255 59.7785 35.6799 61.2798 35.6799Z" fill="#FFBB98"/>
<path d="M36.4499 44.1214V61.3941C36.4499 63.6638 38.2898 65.5038 40.5596 65.5038H31.0781V40.0117H40.5596C38.2898 40.0117 36.4499 41.852 36.4499 44.1214Z" fill="#FFCAA6"/>
<path d="M46.5085 40.012H40.8047C41.3729 40.012 41.9268 39.8056 42.3509 39.4241C46.4861 35.6762 52.6959 26.168 55.799 21.538C56.4322 20.5941 57.707 20.3425 58.6509 20.9698C59.4789 21.5264 60.1488 22.1345 60.6776 22.773C57.3931 27.691 51.8505 35.9839 48.0547 39.4237C47.6306 39.806 47.0767 40.012 46.5085 40.012Z" fill="#FFCAA6"/>
<path d="M71.8142 45.9559V60.7299C71.8142 66.4055 67.2128 71.0069 61.5372 71.0069H57.2976C62.9732 71.0069 67.5746 66.4055 67.5746 60.7299V45.9559C67.5746 40.2803 62.9732 35.6789 57.2976 35.6789H57.046C55.545 35.6789 54.632 34.0253 55.4349 32.7563L56.9725 30.3172C58.5639 27.7931 58.4565 24.4719 55.5764 21.8743C55.6525 21.7584 55.729 21.6482 55.8025 21.538C56.4356 20.5941 57.7105 20.3425 58.6544 20.9698C62.6454 23.6605 62.996 27.4904 61.2125 30.3168L59.6749 32.7559C58.872 34.0249 59.785 35.6785 61.286 35.6785H61.5376C67.2124 35.6789 71.8142 40.2803 71.8142 45.9559Z" fill="#FFAA80"/>
<path d="M24.1875 41.0855V64.4292C24.1875 65.0225 24.6684 65.5034 25.2617 65.5034H31.0826V40.0117H25.2617C24.6684 40.0113 24.1875 40.4922 24.1875 41.0855Z" fill="#0F2846"/>
<path d="M48 0C21.5327 0 0 21.5327 0 48C0 74.4673 21.5327 96 48 96C74.4673 96 96 74.4673 96 48C96 21.5327 74.4673 0 48 0ZM48 92.9077C23.2377 92.9077 3.09234 72.7623 3.09234 48C3.09234 23.2377 23.2377 3.09234 48 3.09234C72.7623 3.09234 92.9077 23.2377 92.9077 48C92.9077 72.7623 72.7623 92.9077 48 92.9077Z" fill="#0D223B"/>
<path d="M47.9973 9.73047C26.8948 9.73047 9.72656 26.8987 9.72656 48.0012C9.72656 69.1037 26.8948 86.2719 47.9973 86.2719C69.0998 86.2719 86.268 69.1037 86.268 48.0012C86.268 26.8987 69.0998 9.73047 47.9973 9.73047ZM47.9973 83.1796C28.5999 83.1796 12.8189 67.3987 12.8189 48.0012C12.8189 28.6038 28.5999 12.8228 47.9973 12.8228C67.3947 12.8228 83.1757 28.6038 83.1757 48.0012C83.1757 67.3987 67.3947 83.1796 47.9973 83.1796Z" fill="#FBFCFD"/>
<path d="M61.536 34.1326H61.2836C61.1077 34.1326 61.015 34.0313 60.9682 33.9463C60.9214 33.8613 60.8851 33.7287 60.979 33.5802L62.5178 31.1416C64.5959 27.8478 64.4741 23.0296 59.5086 19.6829C57.8573 18.5836 55.6169 19.0304 54.5156 20.6763L53.7128 21.8765C50.4454 26.7686 44.9773 34.9567 41.3145 38.2752C41.1815 38.3958 40.996 38.4642 40.8054 38.4642H31.0819H25.2606C23.8157 38.4642 22.6406 39.6397 22.6406 41.0846V64.4282C22.6406 65.8727 23.8161 67.0482 25.2606 67.0482H31.0819H39.5228C39.7146 67.0482 39.8978 67.1189 40.0304 67.2461C43.6194 70.6678 48.3248 72.5522 53.2799 72.5522H61.536C68.0547 72.5522 73.3576 67.2488 73.3576 60.7306V45.9538C73.358 39.436 68.0547 34.1326 61.536 34.1326ZM29.5358 63.9563H25.733V41.5569H29.5358V63.9563ZM70.2657 60.7309C70.2657 65.5442 66.3496 69.4602 61.5364 69.4602H53.2803C49.1234 69.4602 45.1756 67.8793 42.1683 65.0123C41.4594 64.3312 40.5201 63.9566 39.5232 63.9566H32.6281V41.5573H40.805C41.7656 41.5573 42.6828 41.2071 43.3886 40.5689C47.336 36.9923 52.9374 28.6058 56.2841 23.5947L57.0842 22.3976C57.2408 22.1641 57.5593 22.1003 57.7877 22.2526C61.2442 24.5819 61.1464 27.5193 59.9021 29.4914L58.3633 31.9301C57.6922 32.9939 57.6524 34.3386 58.2597 35.4399C58.867 36.5415 60.0254 37.2253 61.2832 37.2253H61.5356C66.3492 37.2253 70.2649 41.1414 70.2649 45.9546V60.7309H70.2657Z" fill="#0D223B"/>
<path d="M55.9974 61.9082C55.6194 61.9515 55.2383 61.9778 54.8641 61.9859C54.0106 62.0044 53.3334 62.7118 53.3519 63.5657C53.3705 64.4079 54.0589 65.0778 54.8973 65.0778C54.9085 65.0778 54.9201 65.0778 54.9317 65.0774C55.401 65.0674 55.8784 65.0345 56.3507 64.98C57.1988 64.8826 57.8076 64.1161 57.7102 63.2673C57.6128 62.4196 56.8467 61.8135 55.9974 61.9082Z" fill="#0D223B"/>
<path d="M49.906 60.9663C47.3405 59.7959 45.9002 58.0089 45.8693 57.9702C45.3455 57.3 44.3765 57.1794 43.7035 57.702C43.029 58.2254 42.9068 59.1967 43.4302 59.8713C43.506 59.9687 45.3189 62.2721 48.6223 63.7792C48.8306 63.8743 49.0486 63.9191 49.2631 63.9191C49.8499 63.9191 50.4112 63.5832 50.6709 63.0142C51.0254 62.2377 50.6829 61.3208 49.906 60.9663Z" fill="#0D223B"/>
</svg>
