<svg width="22" height="20" viewBox="0 0 22 20" fill="none" xmlns="http://www.w3.org/2000/svg">
<path d="M16.9743 12.4413C16.7017 12.7055 16.5765 13.0875 16.6386 13.4623L17.5743 18.6409C17.6532 19.0798 17.468 19.524 17.1006 19.7776C16.7407 20.0408 16.2618 20.0723 15.8692 19.8618L11.2074 17.4304C11.0453 17.3441 10.8653 17.2978 10.6811 17.2925H10.3958C10.2969 17.3073 10.2001 17.3388 10.1116 17.3873L5.4488 19.8303C5.21829 19.946 4.95725 19.9871 4.70148 19.946C4.07836 19.8281 3.6626 19.2345 3.7647 18.6082L4.70148 13.4296C4.76358 13.0518 4.63832 12.6676 4.36571 12.3992L0.564912 8.71521C0.247038 8.40681 0.136519 7.94368 0.281773 7.52581C0.422816 7.109 0.782792 6.80481 1.2175 6.73639L6.44873 5.97749C6.8466 5.93644 7.19605 5.69436 7.37498 5.33649L9.68009 0.610485C9.73483 0.505229 9.80535 0.408394 9.8906 0.326294L9.98534 0.252615C10.0348 0.197881 10.0916 0.152621 10.1548 0.115782L10.2695 0.0736793L10.4485 0H10.8916C11.2874 0.0410499 11.6358 0.277876 11.8178 0.631537L14.1535 5.33649C14.3219 5.68067 14.6492 5.9196 15.0271 5.97749L20.2583 6.73639C20.7004 6.79955 21.0699 7.10479 21.2162 7.52581C21.354 7.94789 21.2351 8.41102 20.9109 8.71521L16.9743 12.4413Z" fill="#D5DDE2"/>
</svg>
