<svg width="22" height="20" viewBox="0 0 22 20" fill="none" xmlns="http://www.w3.org/2000/svg">
<path d="M16.9197 12.4413C16.647 12.7055 16.5218 13.0875 16.5839 13.4623L17.5196 18.6409C17.5986 19.0798 17.4133 19.524 17.046 19.7776C16.686 20.0408 16.2071 20.0723 15.8145 19.8618L11.1527 17.4304C10.9906 17.3441 10.8106 17.2978 10.6264 17.2925H10.3411C10.2422 17.3073 10.1454 17.3388 10.057 17.3873L5.39411 19.8303C5.1636 19.946 4.90256 19.9871 4.64679 19.946C4.02367 19.8281 3.60791 19.2345 3.71001 18.6082L4.64679 13.4296C4.70889 13.0518 4.58364 12.6676 4.31102 12.3992L0.510224 8.71521C0.192351 8.40681 0.081832 7.94368 0.227085 7.52581C0.368129 7.109 0.728105 6.80481 1.16281 6.73639L6.39404 5.97749C6.79191 5.93644 7.14136 5.69436 7.3203 5.33649L9.6254 0.610485C9.68014 0.505229 9.75066 0.408394 9.83592 0.326294L9.93065 0.252615C9.98012 0.197881 10.037 0.152621 10.1001 0.115782L10.2148 0.0736793L10.3938 0H10.8369C11.2327 0.0410499 11.5811 0.277876 11.7632 0.631537L14.0988 5.33649C14.2672 5.68067 14.5945 5.9196 14.9724 5.97749L20.2036 6.73639C20.6457 6.79955 21.0152 7.10479 21.1615 7.52581C21.2994 7.94789 21.1804 8.41102 20.8562 8.71521L16.9197 12.4413Z" fill="#F5D31D"/>
</svg>
